<svg width="18" height="18" viewBox="0 0 18 18" fill="none" xmlns="http://www.w3.org/2000/svg">
<g clip-path="url(#clip0_9_404)">
<path d="M3 7.5C3 4.67157 3 3.25736 3.87868 2.37868C4.75736 1.5 6.17157 1.5 9 1.5C11.8284 1.5 13.2426 1.5 14.1213 2.37868C15 3.25736 15 4.67157 15 7.5V9C15 11.8284 15 13.2426 14.1213 14.1213C13.2426 15 11.8284 15 9 15C6.17157 15 4.75736 15 3.87868 14.1213C3 13.2426 3 11.8284 3 9V7.5Z" stroke="#818898" stroke-width="1.125"/>
<path d="M3 9.75H15" stroke="#818898" stroke-width="1.125" stroke-linecap="round" stroke-linejoin="round"/>
<path d="M11.625 12H12.75" stroke="#818898" stroke-width="1.125" stroke-linecap="round" stroke-linejoin="round"/>
<path d="M5.25 12H6.375" stroke="#818898" stroke-width="1.125" stroke-linecap="round" stroke-linejoin="round"/>
<path d="M4.5 14.625V15.75C4.5 16.1642 4.83579 16.5 5.25 16.5H6.375C6.78921 16.5 7.125 16.1642 7.125 15.75V15" stroke="#818898" stroke-width="1.125" stroke-linecap="round" stroke-linejoin="round"/>
<path d="M13.5 14.625V15.75C13.5 16.1642 13.1642 16.5 12.75 16.5H11.625C11.2108 16.5 10.875 16.1642 10.875 15.75V15" stroke="#818898" stroke-width="1.125" stroke-linecap="round" stroke-linejoin="round"/>
<path d="M15 6.75H15.75C16.1642 6.75 16.5 7.08579 16.5 7.5V8.25C16.5 8.48607 16.3889 8.70836 16.2 8.85L15 9.75" stroke="#818898" stroke-width="1.125" stroke-linecap="round" stroke-linejoin="round"/>
<path d="M3 6.75H2.25C1.83579 6.75 1.5 7.08579 1.5 7.5V8.25C1.5 8.48607 1.61115 8.70836 1.8 8.85L3 9.75" stroke="#818898" stroke-width="1.125" stroke-linecap="round" stroke-linejoin="round"/>
<path d="M14.625 3.75H3.375" stroke="#818898" stroke-width="1.125" stroke-linecap="round"/>
</g>
<defs>
<clipPath id="clip0_9_404">
<rect width="18" height="18" fill="white"/>
</clipPath>
</defs>
</svg>
