<svg width="252" height="264" viewBox="0 0 252 264" fill="none" xmlns="http://www.w3.org/2000/svg">
<path d="M164.54 136.534C164.54 136.534 175.75 147.257 174.29 149.701C172.953 151.961 169.147 149.722 169.147 149.722C169.147 149.722 172.109 152.392 170.772 154.098C169.291 155.967 165.795 152.742 165.795 152.742C165.795 152.742 168.962 155.453 167.317 157.097C165.363 159.069 162.236 155.679 162.236 155.679C162.236 155.679 163.512 159.87 159.562 158.904C156.168 158.083 143.662 139.8 143.662 139.8L159.603 127.68" fill="#FFC1A4"/>
<path d="M159.151 140.991C156.909 140.991 155.366 139.718 155.284 139.656C155.099 139.492 155.058 139.183 155.243 138.978C155.408 138.773 155.716 138.752 155.922 138.916C155.942 138.937 157.814 140.478 160.262 139.902C162.751 139.348 164.088 136.369 164.108 136.349C164.211 136.102 164.499 135.999 164.746 136.102C164.993 136.205 165.096 136.492 164.993 136.739C164.931 136.883 163.43 140.169 160.488 140.847C160.015 140.95 159.583 140.991 159.151 140.991Z" fill="#060606"/>
<path d="M169.148 150.195C169.024 150.195 168.88 150.154 168.798 150.051L163.656 144.792C163.471 144.607 163.471 144.299 163.656 144.114C163.841 143.929 164.149 143.929 164.334 144.114L169.477 149.373C169.662 149.579 169.662 149.866 169.477 150.072C169.374 150.154 169.271 150.195 169.148 150.195Z" fill="#060606"/>
<path d="M165.795 153.214C165.651 153.214 165.528 153.152 165.425 153.05L160.612 147.565C160.447 147.359 160.468 147.051 160.653 146.887C160.858 146.702 161.167 146.723 161.331 146.928L166.145 152.413C166.33 152.618 166.309 152.927 166.104 153.091C166.021 153.173 165.898 153.214 165.795 153.214Z" fill="#060606"/>
<path d="M162.236 156.152C162.113 156.152 161.969 156.111 161.887 156.009L157.197 150.914C157.012 150.729 157.032 150.421 157.238 150.236C157.423 150.051 157.732 150.072 157.917 150.277L162.586 155.351C162.771 155.536 162.751 155.844 162.565 156.029C162.463 156.111 162.36 156.152 162.236 156.152Z" fill="#060606"/>
<path d="M124.245 70.0163L135.578 97.1942L160.446 128.152L149.154 145.613L122.003 116.299C119.473 113.546 117.498 110.321 116.223 106.788L101.249 65.5791L124.245 70.0163Z" fill="#FFC1A4"/>
<path d="M125.932 72.5842L108.386 87.0256L105.219 71.3311L125.932 72.5842Z" fill="#F7B094"/>
<path d="M111.533 242.8L110.073 228.872L128.729 227.722L128.276 244.423" fill="#FFC1A4"/>
<path d="M128.359 234.583L111.163 239.41L110.793 235.343L128.359 234.583Z" fill="black"/>
<path d="M143.683 259.543C143.683 259.57 143.683 259.597 143.683 259.625L143.621 263.014L110.628 262.439L110.69 259.152L110.71 258.084C111.081 251.49 110.525 241.958 110.525 241.958L129.881 242.41L130.189 244.69C130.436 246.539 131.259 248.203 132.493 249.477C133.727 250.771 135.352 251.675 137.203 251.983C140.947 252.537 143.703 255.763 143.683 259.543Z" fill="#DF1C41"/>
<path d="M143.682 259.543C143.682 259.57 143.682 259.597 143.682 259.625L143.621 263.014L110.628 262.439L110.69 259.152L143.682 259.543Z" fill="black"/>
<path d="M127.31 252.845C127.124 252.845 126.96 252.763 126.857 252.619C126.672 252.373 126.734 252.024 126.98 251.839L129.984 249.6L125.602 250.052C125.355 250.072 125.129 249.949 125.047 249.723C124.944 249.497 125.006 249.23 125.211 249.086L128.009 246.826L123.607 247.237C123.319 247.258 123.052 247.032 123.011 246.744C122.99 246.436 123.216 246.169 123.504 246.148L129.716 245.553C129.963 245.532 130.189 245.676 130.292 245.902C130.374 246.128 130.313 246.374 130.127 246.539L127.33 248.778L131.876 248.305C132.123 248.285 132.349 248.429 132.452 248.655C132.534 248.881 132.452 249.148 132.267 249.292L127.639 252.722C127.536 252.804 127.412 252.845 127.31 252.845Z" fill="#060606"/>
<path d="M131.238 255.619C131.169 255.619 131.101 255.605 131.032 255.578C130.765 255.475 130.621 255.167 130.724 254.879C132.349 250.565 135.887 251.408 135.928 251.428C136.216 251.49 136.401 251.798 136.319 252.085C136.236 252.394 135.948 252.558 135.66 252.496C135.537 252.455 133.028 251.901 131.752 255.27C131.67 255.495 131.464 255.619 131.238 255.619Z" fill="#060606"/>
<path d="M45.959 236.453L47.4811 222.546L65.9522 225.36L61.9823 241.589" fill="#FFC1A4"/>
<path d="M64.142 231.995L46.3291 233.064L46.8022 229.017L64.142 231.995Z" fill="black"/>
<path d="M73.8097 259.625C73.8097 259.653 73.8029 259.68 73.7892 259.708L73.0075 263.015L40.8992 255.455L41.6397 252.251L41.8865 251.224C43.676 244.855 45.1364 235.426 45.1364 235.426L63.9777 239.966L63.772 242.246C63.628 244.116 64.0806 245.924 65.0062 247.444C65.9523 248.943 67.351 250.176 69.0788 250.874C72.6167 252.21 74.6325 255.948 73.8097 259.625Z" fill="#DF1C41"/>
<path d="M73.8097 259.625C73.8097 259.653 73.8029 259.68 73.7892 259.707L73.0075 263.015L40.8992 255.455L41.6397 252.25L73.8097 259.625Z" fill="black"/>
<path d="M59.3499 249.622C59.1442 249.622 58.9385 249.498 58.8357 249.293C58.7122 249.026 58.8356 248.697 59.1236 248.574L62.5381 247.033L58.1569 246.54C57.91 246.499 57.7249 246.314 57.6838 246.088C57.6426 245.842 57.7661 245.595 57.9717 245.493L61.1805 243.89L56.8199 243.356C56.5113 243.315 56.3056 243.048 56.3468 242.74C56.3674 242.432 56.6348 242.226 56.9433 242.267L63.1346 243.007C63.3814 243.048 63.5665 243.212 63.6077 243.459C63.6488 243.705 63.546 243.931 63.3197 244.055L60.1315 245.636L64.6567 246.15C64.9035 246.191 65.1092 246.376 65.1504 246.622C65.1709 246.869 65.0475 247.095 64.8213 247.198L59.5761 249.581C59.4939 249.608 59.4184 249.622 59.3499 249.622Z" fill="#060606"/>
<path d="M62.5995 253.175C62.4898 253.175 62.387 253.148 62.291 253.093C62.0442 252.929 61.9619 252.579 62.147 252.333C64.6565 248.471 67.9269 250.032 67.9475 250.053C68.2149 250.197 68.3383 250.525 68.1943 250.792C68.0709 251.059 67.7418 251.183 67.4538 251.039C67.351 250.998 65.0267 249.909 63.0521 252.929C62.9492 253.093 62.7847 253.175 62.5995 253.175Z" fill="#060606"/>
<path d="M133.152 235.302H101.352L94.1937 166.033L86.1718 135.075L77.2859 100.728H107.091L121.16 155.33C121.763 157.713 122.271 160.109 122.682 162.52L133.152 235.302Z" fill="#01565B"/>
<path d="M94.7081 131.357L94.1938 166.033L86.1719 135.075L88.3522 133.308L94.7081 131.357Z" fill="black"/>
<path d="M87.8789 100.728L92.0956 156.953C92.6921 165.005 91.5197 173.079 88.64 180.638L71.2591 233.063L42.3184 228.523L62.0441 166.628L57.992 100.728H87.8789Z" fill="#01565B"/>
<path d="M88.6399 181.111C88.5851 181.111 88.5302 181.104 88.4754 181.09C88.2285 180.988 88.0845 180.72 88.1874 180.453C91.0259 173.038 92.1984 164.903 91.6019 156.973L88.6399 117.408C88.6194 117.141 88.825 116.915 89.0924 116.894C89.3598 116.874 89.5861 117.079 89.6067 117.346L92.5686 156.912C93.1651 164.985 91.9721 173.243 89.0924 180.803C89.0102 180.988 88.825 181.111 88.6399 181.111Z" fill="white"/>
<path d="M112.007 109.191L108.613 52.1445L56.0178 53.7263L56.4086 111.451L112.007 109.191Z" fill="#DF1C41"/>
<path d="M80.1039 62.6417C89.9977 62.8471 88.8869 53.5208 85.0816 49.9053L84.7731 40.8049L70.889 33.7793L69.7577 52.165C69.7577 52.165 69.3874 62.4363 80.1039 62.6417Z" fill="#FFC1A4"/>
<path d="M85.0202 48.0356C83.5392 47.3987 79.0757 45.3239 77.8416 42.0371L84.8351 42.8177L85.0202 48.0356Z" fill="#060606"/>
<path d="M70.0252 25.3362C67.9477 33.4916 72.8638 41.7909 81.0297 43.8657C89.1956 45.961 97.5261 41.0308 99.6036 32.8754C101.702 24.7199 96.7651 16.4207 88.5991 14.3459C80.4332 12.2506 72.1233 17.1808 70.0252 25.3362Z" fill="#FFC1A4"/>
<path d="M91.7461 34.0255C91.561 34.0255 91.3965 33.8817 91.3759 33.6763C91.3553 33.4709 91.4993 33.286 91.705 33.2655C92.0752 33.2244 92.4455 33.1833 92.754 33.019C93.042 32.8546 93.2271 32.5876 93.2477 32.2794C93.3094 31.6837 92.8157 31.129 92.3426 30.636L89.6481 27.9655C89.4835 27.8217 89.4835 27.5752 89.6481 27.4314C89.7921 27.267 90.0389 27.267 90.1829 27.4314L92.8774 30.1019C93.4945 30.6976 94.1116 31.4372 94.0293 32.3411C93.9676 32.9162 93.6385 33.4093 93.1243 33.6969C92.6923 33.9228 92.2192 33.9845 91.7873 34.0255C91.7736 34.0255 91.7598 34.0255 91.7461 34.0255Z" fill="#060606"/>
<path d="M89.8744 38.0519C89.7509 38.0519 89.6481 37.9903 89.5658 37.9081C88.4345 36.4702 86.5216 35.6279 84.6909 35.7512C84.4852 35.7717 84.3001 35.6074 84.2795 35.4019C84.2795 35.1965 84.4235 35.0116 84.6498 34.9911C86.7478 34.8267 88.8665 35.7717 90.1829 37.4151C90.3063 37.5795 90.2857 37.826 90.1006 37.9698C90.0389 38.0109 89.9566 38.0519 89.8744 38.0519Z" fill="#060606"/>
<path d="M85.2256 28.4789C85.5753 29.2185 86.2746 29.6088 86.7683 29.3828C87.2825 29.1363 87.4265 28.3557 87.0974 27.6367C86.7477 26.8971 86.069 26.4863 85.5547 26.7328C85.0405 26.9588 84.8965 27.7394 85.2256 28.4789Z" fill="#060606"/>
<path d="M92.96 24.8022C93.2891 25.5417 93.9884 25.9526 94.4821 25.706C94.9963 25.4801 95.1403 24.6789 94.8112 23.9599C94.4615 23.2204 93.7827 22.8095 93.2685 23.056C92.7543 23.282 92.6103 24.0832 92.96 24.8022Z" fill="#060606"/>
<path d="M98.2872 13.1337C98.0815 14.7977 97.4233 16.4 96.3537 17.6737C95.2019 19.0295 93.5358 19.9744 91.7668 20.1799C89.9979 20.3647 88.1261 19.8101 86.8302 18.557C86.5628 20.5907 85.1024 22.419 83.1895 23.138C81.2766 23.8365 78.5615 23.6721 77.0393 22.2958C77.1628 24.1446 77.2862 25.9934 77.4096 27.8423C77.4713 28.6023 77.0599 32.3616 75.6612 31.1085C75.6201 31.0675 74.4888 30.0814 70.4572 29.3624C66.7959 28.7051 72.5347 34.6008 71.7736 35.0733C62.9084 40.3733 58.2186 32.1562 61.9005 26.1167C61.9005 26.1167 57.0667 21.5973 59.2882 14.3663C60.6046 10.114 64.5333 8.55273 67.5158 7.97754C68.5237 5.67677 70.3544 3.70467 72.617 2.59537C75.1058 1.38335 77.9444 1.17792 80.7006 1.01358C81.9485 0.931412 83.1964 0.849245 84.4442 0.767075C85.3287 0.72599 86.2132 0.664358 87.1182 0.705443C90.4093 0.869784 93.618 2.45157 95.7367 4.97832C97.629 7.21746 98.6575 10.2372 98.2872 13.1337Z" fill="#060606"/>
<path d="M66.2817 30.2665C66.3845 32.5673 68.3386 34.3545 70.6423 34.2518C72.946 34.1491 74.7356 32.1975 74.6327 29.8967C74.5299 27.5754 72.5758 25.7882 70.2721 25.8909C67.9478 25.9936 66.1582 27.9657 66.2817 30.2665Z" fill="#FFC1A4"/>
<path d="M91.1496 17.0983C90.9028 17.0983 90.6491 17.071 90.3886 17.0162C90.1417 16.9751 89.9566 16.708 90.0183 16.4615C90.08 16.1945 90.3269 16.0301 90.5943 16.0712C91.6844 16.2972 92.898 15.8658 93.5768 14.9824C94.2761 14.0991 94.4201 12.8255 93.9676 11.8189C93.8442 11.5724 93.947 11.2848 94.1938 11.1821C94.4407 11.0588 94.7286 11.1821 94.8315 11.408C95.4486 12.7433 95.2634 14.4278 94.3378 15.5782C93.5768 16.5437 92.3632 17.0983 91.1496 17.0983Z" fill="white"/>
<path d="M79.5485 22.7684C79.3017 22.7684 79.0754 22.563 79.0754 22.3165C79.0548 22.0494 79.2605 21.8234 79.5279 21.8029C80.3095 21.7824 81.1323 21.7413 81.8316 21.4537C82.531 21.1661 83.0247 20.5909 83.1069 20.0157C83.1481 19.7486 83.3949 19.5638 83.6417 19.6048C83.9091 19.6459 84.0943 19.8719 84.0737 20.1389C83.9503 21.0839 83.2304 21.9056 82.2019 22.337C81.338 22.6862 80.3918 22.7273 79.5691 22.7684C79.5691 22.7684 79.5622 22.7684 79.5485 22.7684Z" fill="white"/>
<path d="M62.7234 21.5562C62.6411 21.5562 62.5588 21.5357 62.4766 21.4946C61.0984 20.714 60.7076 18.9884 60.9339 17.6531C61.1601 16.2767 61.9212 15.0647 62.6 14.0171C62.744 13.7911 63.0319 13.7295 63.2582 13.8733C63.4845 13.9965 63.5462 14.3047 63.4228 14.5306C62.7851 15.5167 62.0858 16.626 61.8801 17.7969C61.7155 18.7829 61.9829 20.0977 62.9702 20.6523C63.1965 20.7961 63.2788 21.0837 63.1348 21.3097C63.0525 21.474 62.888 21.5562 62.7234 21.5562Z" fill="white"/>
<path d="M113.364 218.704C113.117 218.704 112.911 218.519 112.891 218.252L108.798 161.246L105.363 140.149C104.848 136.903 102.833 134.212 99.8706 132.794C96.8881 131.377 93.5353 131.48 90.6762 133.123C90.45 133.246 90.162 133.164 90.018 132.938C89.8946 132.712 89.9769 132.404 90.2031 132.281C93.3502 130.494 97.0115 130.37 100.282 131.932C103.552 133.493 105.753 136.43 106.329 139.984L109.744 161.123L113.858 218.19C113.858 218.457 113.672 218.683 113.405 218.704C113.391 218.704 113.378 218.704 113.364 218.704Z" fill="white"/>
<path d="M124.986 223.861H105.836C105.569 223.861 105.342 223.635 105.342 223.367C105.342 223.1 105.569 222.895 105.836 222.895H124.986C125.253 222.895 125.479 223.1 125.479 223.367C125.479 223.635 125.253 223.861 124.986 223.861Z" fill="white"/>
<path d="M66.0756 132.753C65.9522 132.753 65.8083 132.712 65.726 132.609C65.5409 132.404 65.5408 132.116 65.7465 131.931C67.8652 129.939 69.2844 127.165 69.6547 124.269C70.0043 121.393 69.305 118.353 67.7212 115.908C67.5772 115.682 67.6389 115.394 67.8652 115.251C68.0914 115.107 68.3999 115.169 68.5439 115.394C70.2306 118.024 70.9917 121.29 70.6008 124.392C70.21 127.494 68.6879 130.493 66.4048 132.63C66.3019 132.712 66.1991 132.753 66.0756 132.753Z" fill="white"/>
<path d="M107.667 127.7C107.612 127.7 107.557 127.693 107.502 127.679C105.26 126.857 103.429 125.029 102.607 122.81C101.763 120.571 101.969 118.003 103.142 115.908C103.265 115.682 103.573 115.6 103.8 115.723C104.026 115.867 104.108 116.155 103.985 116.381C102.956 118.229 102.771 120.489 103.512 122.461C104.232 124.433 105.857 126.056 107.831 126.775C108.078 126.857 108.222 127.145 108.119 127.391C108.058 127.597 107.872 127.7 107.667 127.7Z" fill="white"/>
<path d="M60.7484 214.924C60.6799 214.924 60.6181 214.911 60.5633 214.883C60.3165 214.801 60.193 214.513 60.2959 214.267L76.9774 171.004C77.7796 168.95 78.191 166.813 78.2322 164.615L78.8698 131.316C78.8904 131.069 79.0961 130.843 79.3635 130.843C79.6309 130.864 79.8571 131.069 79.8365 131.336L79.1989 164.636C79.1578 166.937 78.7258 169.196 77.8825 171.333L61.1804 214.616C61.1187 214.801 60.9335 214.924 60.7484 214.924Z" fill="white"/>
<path d="M67.2687 223.86C67.255 223.86 67.2344 223.853 67.207 223.84L52.3356 221.601C52.0682 221.56 51.883 221.313 51.9242 221.046C51.9653 220.799 52.2121 220.615 52.4795 220.656L67.351 222.895C67.6184 222.936 67.8035 223.182 67.7624 223.449C67.7213 223.675 67.5156 223.86 67.2687 223.86Z" fill="white"/>
<path d="M42.9972 52.9861L33.0211 52.0617L61.715 26.1164C58.1977 25.0687 55.9351 17.3858 53.4874 10.7505L12.884 45.6113C8.58504 48.0559 5.97276 52.6575 6.11674 57.5877C6.32244 64.1613 11.691 71.0431 18.2114 71.8443L43.1206 73.0152L42.9972 52.9861Z" fill="#FFC1A4"/>
<path d="M53.4873 10.7507C53.4873 10.7507 57.5188 5.53288 59.2878 4.60847C61.0567 3.6635 63.1548 4.3825 63.1548 4.3825C63.1548 4.3825 64.6975 2.1639 66.5281 1.79413C68.3382 1.40382 69.5518 2.5542 69.5518 2.5542C69.5518 2.5542 70.7036 0.335601 72.9251 0.56157C75.126 0.808082 79.9803 3.9511 80.3917 5.14258C80.7002 6.02591 80.6797 7.3201 78.9313 7.42281C78.9313 7.42281 78.5405 8.98405 76.7715 9.02513C76.7715 9.02513 77.368 10.6891 74.9409 11.2848C72.4932 11.86 67.0012 10.5247 67.0012 10.5247C67.0012 10.5247 68.0091 12.4968 65.5614 13.0926C63.1136 13.6678 59.6375 17.2216 58.9998 18.9472C58.0331 21.5767 61.7149 26.1166 61.7149 26.1166L58.5267 28.2941L53.4873 10.7507Z" fill="#FFC1A4"/>
<path d="M65.5614 13.4627C65.3969 13.4627 65.2323 13.36 65.1912 13.1751C65.1295 12.9697 65.2735 12.7642 65.4791 12.7026C66.1168 12.5588 66.5282 12.2917 66.7133 11.922C66.9601 11.3673 66.6516 10.71 66.6516 10.71C66.5899 10.5662 66.5899 10.4018 66.6927 10.2991C66.775 10.1759 66.9395 10.1142 67.0835 10.1553C67.1452 10.1759 72.5343 11.4495 74.8587 10.8948C75.5991 10.7305 76.0928 10.4224 76.3191 10.0115C76.5659 9.58012 76.4219 9.16927 76.4219 9.14872C76.3808 9.02547 76.4013 8.90222 76.463 8.7995C76.5453 8.69679 76.6482 8.63516 76.7716 8.63516C78.2114 8.61462 78.5405 7.38206 78.5611 7.32043C78.6022 7.15609 78.7462 7.03284 78.9108 7.03284C79.4456 7.00544 79.8089 6.8548 80.0009 6.58089C80.2889 6.1495 80.1038 5.51268 80.0215 5.26617C79.8158 4.62935 77.5738 2.90376 75.2495 1.77392C75.0643 1.69175 74.9821 1.46578 75.0643 1.26035C75.1672 1.07547 75.3935 0.993302 75.5991 1.09602C77.5121 2.02043 80.3712 3.91036 80.7414 4.99912C80.906 5.4716 81.0911 6.31384 80.6386 7.01229C80.3506 7.43684 79.8775 7.6902 79.2193 7.77237C78.9725 8.36811 78.3554 9.18981 77.2241 9.37469C77.2447 9.64175 77.2035 10.0115 76.9978 10.3813C76.6687 10.9976 76.0105 11.4084 75.0232 11.6549C73.0074 12.1274 69.0993 11.3879 67.5566 11.0592C67.5978 11.3879 67.5978 11.8193 67.4126 12.2301C67.1452 12.8259 66.5487 13.2573 65.6437 13.4627C65.6163 13.4627 65.5888 13.4627 65.5614 13.4627Z" fill="#060606"/>
<path d="M67.001 10.9146C66.9599 10.9146 66.9256 10.9146 66.8982 10.9146L64.5122 10.3394C64.3065 10.2983 64.1831 10.0929 64.2242 9.88744C64.2859 9.68201 64.4916 9.53822 64.6973 9.59984L67.0833 10.1545C67.289 10.1956 67.4124 10.4215 67.3713 10.627C67.3301 10.7913 67.1656 10.9146 67.001 10.9146Z" fill="#060606"/>
<path d="M76.7713 9.41561C76.5656 9.39506 76.4011 9.23072 76.4011 9.02529C76.4011 8.9842 76.3805 8.32684 75.5372 7.85436C74.7761 7.44351 70.1892 6.47801 67.289 5.92336C67.0833 5.88227 66.9393 5.69739 66.9804 5.47142C67.0216 5.26599 67.2273 5.12219 67.4329 5.16328C68.1734 5.30708 74.7967 6.58072 75.9074 7.197C77.1827 7.89545 77.1621 8.98421 77.1621 9.04583C77.1621 9.25126 76.9976 9.41561 76.7713 9.41561Z" fill="#060606"/>
<path d="M78.931 7.8129C78.7871 7.8129 78.6431 7.71019 78.5814 7.56639C78.2728 6.8474 77.6969 6.29275 76.977 5.98461L71.7524 3.80708C71.5673 3.72491 71.4645 3.49895 71.5467 3.31406C71.629 3.10864 71.8553 3.02647 72.061 3.10864L77.2649 5.26561C78.1906 5.65592 78.8899 6.35438 79.2807 7.25825C79.363 7.46368 79.2807 7.68965 79.075 7.77182C79.0339 7.79921 78.9859 7.8129 78.931 7.8129Z" fill="#060606"/>
<path d="M62.0027 53.4587L40.0144 52.7603L37.5667 77.3087H55.5441C59.5756 77.3087 63.3192 75.2544 65.4995 71.8854C67.9884 68.0234 68.0295 63.0727 65.6023 59.1901L62.0027 53.4587Z" fill="#DF1C41"/>
<path d="M55.5442 77.7809C55.2768 77.7809 55.0505 77.5755 55.0505 77.3084C55.0505 77.0414 55.2768 76.8154 55.5442 76.8154C59.4318 76.8154 62.9902 74.8844 65.0883 71.6181C65.2528 71.3922 65.5408 71.3305 65.767 71.4743C65.9933 71.6181 66.055 71.9263 65.911 72.1522C63.6279 75.6856 59.7609 77.7809 55.5442 77.7809Z" fill="white"/>
<path d="M40.0145 52.7603L33.926 72.5839H38.0398L40.0145 52.7603Z" fill="#F7B094"/>
<path d="M109.127 109.293L58.7326 115.662L58.2595 110.875L109.127 109.293Z" fill="black"/>
<path d="M193.666 184.11L178.897 193.991L162.812 171.928L139.487 139.922C135.64 134.664 136.957 127.268 142.366 123.632C147.797 120.017 155.14 121.598 158.554 127.145L192.123 181.603C192.123 181.603 192.13 181.61 192.144 181.624L193.666 184.11Z" fill="#34787C"/>
<path d="M193.665 184.11L178.897 193.991L167.543 178.419C167.975 178.666 192.123 181.604 192.123 181.604C192.123 181.604 192.13 181.61 192.143 181.624L193.665 184.11Z" fill="#141323"/>
<path d="M248.338 236.062C239.946 257.755 215.551 268.581 193.83 260.22C172.089 251.839 161.269 227.475 169.641 205.782C178.013 184.069 202.428 173.263 224.149 181.624C245.87 189.985 256.71 214.369 248.338 236.062Z" fill="#34787C"/>
<path d="M241.407 233.391C234.516 251.284 214.399 260.2 196.484 253.297C178.568 246.416 169.662 226.325 176.552 208.432C183.464 190.54 203.58 181.645 221.475 188.526C239.391 195.429 248.318 215.519 241.407 233.391Z" fill="white"/>
<path d="M241.407 233.391C234.516 251.284 214.399 260.199 196.484 253.317C190.478 250.996 185.5 247.216 181.777 242.512C184.78 245.162 188.297 247.339 192.267 248.86C210.162 255.762 230.279 246.826 237.19 228.954C241.777 217.06 239.37 204.179 231.965 194.874C242.559 204.2 246.796 219.463 241.407 233.391Z" fill="#141323"/>
<path d="M100.015 52.3902L109.991 51.9178C115.462 51.6507 120.522 54.8759 122.579 59.9705L127.413 71.8852L104.232 82.7112L100.015 52.3902Z" fill="#DF1C41"/>
<path d="M160.447 128.152L167.296 133.555C168.345 134.377 168.592 135.856 167.872 136.965L164.951 141.484C164.087 142.84 162.298 143.231 160.92 142.388C159.562 141.546 159.13 139.779 159.932 138.403L162.648 133.802L159.007 127.885L160.447 128.152Z" fill="#FFC1A4"/>
<path d="M136.525 58.759C135.359 57.9921 134.434 57.2526 133.748 56.5404C133.076 55.8283 132.651 55.0819 132.473 54.3013C132.295 53.507 132.356 52.6442 132.658 51.7129C132.96 50.7953 133.488 49.7614 134.242 48.611C135.023 47.4195 135.771 46.5088 136.484 45.8788C137.211 45.2488 137.972 44.8585 138.767 44.7079C139.562 44.5435 140.419 44.6326 141.338 44.9749C142.257 45.3173 143.306 45.872 144.485 46.6389C145.678 47.4195 146.624 48.1727 147.324 48.8986C148.009 49.6107 148.448 50.364 148.64 51.1583C148.832 51.9663 148.784 52.8222 148.496 53.7261C148.208 54.6437 147.673 55.6982 146.892 56.8897C146.138 58.04 145.397 58.9371 144.67 59.5808C143.93 60.2244 143.155 60.6147 142.346 60.7517C141.537 60.9023 140.666 60.7996 139.734 60.4435C138.801 60.1012 137.732 59.5397 136.525 58.759ZM164.972 95.4687C162.627 93.9349 160.728 92.2161 159.274 90.3125C157.835 88.4089 156.827 86.4026 156.251 84.2935C155.675 82.1845 155.524 80.007 155.798 77.761C156.086 75.515 156.792 73.2895 157.917 71.0846L149.771 65.2711C149.278 64.915 149.161 64.2576 149.422 63.299C149.682 62.3403 150.299 61.1214 151.273 59.6424C151.89 58.6974 152.432 57.9168 152.898 57.3005C153.364 56.6979 153.776 56.246 154.132 55.9447C154.489 55.6434 154.825 55.4722 155.14 55.4311C155.442 55.3901 155.764 55.4585 156.107 55.6366L166.474 61.8815C167.406 62.443 168.119 62.9703 168.613 63.4633C169.12 63.9563 169.442 64.463 169.58 64.9835C169.73 65.5039 169.717 66.038 169.538 66.5858C169.374 67.1199 169.086 67.7019 168.674 68.3319L168.284 68.9277C167.283 70.4478 166.666 71.9132 166.432 73.3238C166.199 74.7481 166.247 76.0765 166.576 77.309C166.906 78.5553 167.509 79.6988 168.387 80.7397C169.264 81.7668 170.313 82.6844 171.534 83.4924C172.905 84.3962 174.29 85.0262 175.689 85.3823C177.087 85.7521 178.459 85.8137 179.802 85.5672C181.146 85.3207 182.428 84.7523 183.649 83.8621C184.869 82.9583 186.001 81.712 187.043 80.1234C188.003 78.658 188.702 77.2748 189.141 75.9738C189.593 74.6727 189.909 73.5155 190.087 72.5021C190.265 71.4749 190.389 70.6053 190.457 69.8931C190.512 69.181 190.635 68.6811 190.827 68.3935C190.951 68.1881 191.136 68.0443 191.383 67.9621C191.63 67.8663 191.959 67.8731 192.37 67.9827C192.795 68.0922 193.344 68.3182 194.016 68.6606C194.688 69.003 195.51 69.496 196.484 70.1397C197.485 70.7833 198.184 71.3037 198.582 71.7009C198.98 72.0844 199.233 72.5089 199.343 72.9745C199.439 73.4539 199.418 74.214 199.281 75.2548C199.144 76.3093 198.87 77.5008 198.459 78.8292C198.061 80.1576 197.526 81.5819 196.854 83.1021C196.182 84.6222 195.359 86.1287 194.386 87.6214C192.178 90.9904 189.826 93.5651 187.331 95.3455C184.821 97.1395 182.278 98.2899 179.7 98.7966C177.135 99.2897 174.605 99.228 172.11 98.6118C169.6 97.9955 167.221 96.9478 164.972 95.4687Z" fill="#99BBBD"/>
<path d="M7.39238 110.054C9.06534 108.904 10.7383 108.103 12.4113 107.651C14.0979 107.199 15.7297 107.069 17.3067 107.26C18.8837 107.452 20.3852 107.945 21.8113 108.739C23.2512 109.547 24.5607 110.629 25.74 111.985L31.8696 108.103C32.2536 107.87 32.7335 107.973 33.3095 108.411C33.8717 108.849 34.523 109.595 35.2635 110.65C35.7298 111.321 36.1069 111.896 36.3948 112.375C36.6691 112.855 36.8611 113.259 36.9708 113.588C37.0667 113.902 37.0873 114.17 37.0325 114.389C36.9776 114.608 36.8405 114.806 36.6211 114.984L29.607 120.243C28.9625 120.723 28.4072 121.058 27.9409 121.25C27.4747 121.455 27.0496 121.538 26.6656 121.496C26.268 121.442 25.9114 121.284 25.596 121.024C25.2807 120.764 24.9653 120.408 24.6499 119.956L24.3619 119.524C23.6077 118.456 22.7849 117.648 21.8936 117.1C21.0023 116.552 20.0972 116.224 19.1785 116.114C18.246 115.991 17.3136 116.08 16.3811 116.381C15.4486 116.683 14.5436 117.135 13.666 117.737C12.6786 118.422 11.8764 119.182 11.2594 120.017C10.6286 120.853 10.2104 121.757 10.0047 122.729C9.79897 123.701 9.83325 124.715 10.1075 125.769C10.3818 126.837 10.9097 127.94 11.6913 129.077C12.4181 130.117 13.1586 130.967 13.9128 131.624C14.667 132.281 15.3595 132.809 15.9903 133.206C16.6348 133.603 17.1901 133.925 17.6564 134.171C18.1226 134.404 18.4243 134.623 18.5614 134.829C18.6574 134.966 18.7054 135.13 18.7054 135.322C18.6917 135.5 18.5888 135.719 18.3969 135.979C18.2186 136.225 17.9169 136.527 17.4918 136.883C17.0804 137.253 16.5319 137.677 15.8463 138.157C15.1332 138.65 14.5916 138.978 14.2213 139.143C13.8511 139.307 13.4946 139.355 13.1517 139.286C12.8089 139.218 12.3016 138.999 11.6296 138.629C10.9577 138.246 10.2241 137.739 9.42873 137.109C8.64711 136.465 7.83806 135.712 7.00158 134.849C6.1651 133.986 5.37662 133.028 4.63613 131.973C2.97689 129.563 1.88672 127.276 1.36564 125.112C0.844555 122.934 0.76914 120.914 1.13938 119.052C1.49591 117.189 2.22268 115.505 3.3197 113.998C4.41672 112.478 5.77428 111.163 7.39238 110.054ZM39.8916 100.995C40.7281 100.42 41.4754 100.002 42.1336 99.7418C42.7918 99.4816 43.4157 99.3994 44.0054 99.4953C44.5813 99.5911 45.1367 99.865 45.6715 100.317C46.22 100.769 46.7754 101.406 47.3376 102.227C47.9272 103.077 48.3386 103.83 48.5717 104.487C48.7911 105.144 48.846 105.761 48.7363 106.336C48.6266 106.911 48.3318 107.459 47.8518 107.979C47.3719 108.513 46.7137 109.068 45.8772 109.643C45.0133 110.232 44.2454 110.664 43.5734 110.938C42.9015 111.211 42.2707 111.3 41.6811 111.205C41.0914 111.122 40.5292 110.855 39.9944 110.403C39.4596 109.965 38.8974 109.315 38.3078 108.452C37.7455 107.644 37.3479 106.904 37.1147 106.233C36.8816 105.562 36.8268 104.939 36.9502 104.364C37.0736 103.775 37.3753 103.213 37.8552 102.679C38.3489 102.145 39.0277 101.584 39.8916 100.995Z" fill="#99BBBD"/>
</svg>
