<svg width="22" height="22" viewBox="0 0 22 22" fill="none" xmlns="http://www.w3.org/2000/svg">
<circle cx="11" cy="11.9165" r="2.75" stroke="#818898" stroke-width="1.5"/>
<path d="M8.963 19.25H13.0371C15.898 19.25 17.3285 19.25 18.3561 18.5759C18.8009 18.284 19.1829 17.909 19.4801 17.4723C20.1667 16.4634 20.1667 15.0589 20.1667 12.25C20.1667 9.44108 20.1667 8.03661 19.4801 7.02772C19.1829 6.59096 18.8009 6.21596 18.3561 5.92412C17.6958 5.49096 16.8691 5.33613 15.6035 5.28078C14.9996 5.28078 14.4796 4.83146 14.3612 4.25C14.1835 3.37781 13.4035 2.75 12.4976 2.75H9.50252C8.59659 2.75 7.8166 3.37781 7.63893 4.25C7.52048 4.83146 7.00049 5.28078 6.39654 5.28078C5.13093 5.33613 4.3043 5.49096 3.64401 5.92412C3.19916 6.21596 2.81722 6.59096 2.51998 7.02772C1.83337 8.03661 1.83337 9.44108 1.83337 12.25C1.83337 15.0589 1.83337 16.4634 2.51998 17.4723C2.81722 17.909 3.19916 18.284 3.64401 18.5759C4.67159 19.25 6.10206 19.25 8.963 19.25Z" stroke="#818898" stroke-width="1.5"/>
<path d="M17.4167 9.1665H16.5" stroke="#818898" stroke-width="1.5" stroke-linecap="round"/>
</svg>
