<svg width="180" height="180" viewBox="0 0 180 180" fill="none" xmlns="http://www.w3.org/2000/svg">
<path d="M179.38 90.0001C179.38 139.349 139.349 179.358 90.0001 179.358C40.6517 179.358 0.641846 139.349 0.641846 90.0001C0.641846 40.6517 40.6517 0.641846 90.0001 0.641846C139.349 0.641846 179.38 40.6517 179.38 90.0001Z" fill="#E6F3FC"/>
<path fill-rule="evenodd" clip-rule="evenodd" d="M90 180C40.386 180 0 139.636 0 90C0 40.3639 40.386 0 90 0C139.636 0 180 40.3639 180 90C180 139.636 139.636 180 90 180ZM90 1.26137C41.072 1.26137 1.2835 41.072 1.2835 90C1.2835 138.928 41.072 178.716 90 178.716C138.928 178.716 178.739 138.928 178.739 90C178.739 41.072 138.928 1.26137 90 1.26137Z" fill="#003A3E"/>
<path d="M162.695 89.9999C162.695 130.142 130.143 162.673 89.9999 162.673C49.8573 162.673 17.3271 130.142 17.3271 89.9999C17.3271 49.8573 49.8573 17.3271 89.9999 17.3271C130.143 17.3271 162.695 49.8573 162.695 89.9999Z" fill="#679A9D"/>
<path d="M157.052 89.9999C157.052 127.022 127.044 157.052 89.9999 157.052C52.9775 157.052 22.948 127.022 22.948 89.9999C22.948 52.9554 52.9775 22.948 89.9999 22.948C127.044 22.948 157.052 52.9554 157.052 89.9999Z" fill="white"/>
<path fill-rule="evenodd" clip-rule="evenodd" d="M89.9998 157.693C52.6897 157.693 22.3062 127.332 22.3062 89.9998C22.3062 52.6676 52.6897 22.3062 89.9998 22.3062C127.332 22.3062 157.693 52.6676 157.693 89.9998C157.693 127.332 127.332 157.693 89.9998 157.693ZM89.9998 23.5897C53.3757 23.5897 23.5897 53.3757 23.5897 89.9998C23.5897 126.624 53.3757 156.41 89.9998 156.41C126.624 156.41 156.41 126.624 156.41 89.9998C156.41 53.3757 126.624 23.5897 89.9998 23.5897Z" fill="#003A3E"/>
<path d="M89.9999 37.8412C89.2918 37.8412 88.7164 37.2658 88.7164 36.5577V33.2161C88.7164 32.508 89.2918 31.9326 89.9999 31.9326C90.7081 31.9326 91.2834 32.508 91.2834 33.2161V36.5577C91.2834 37.2658 90.7081 37.8412 89.9999 37.8412Z" fill="#003A3E"/>
<path d="M61.6094 40.8281L63.2912 43.7271L61.6094 40.8281Z" fill="white"/>
<path d="M63.2897 45.0111C62.8471 45.0111 62.4267 44.7677 62.1832 44.3693L60.5014 41.4483C60.1473 40.8508 60.3686 40.0763 60.9661 39.7222C61.5857 39.3681 62.3603 39.5673 62.7143 40.1869L64.3962 43.0858C64.7502 43.7055 64.5511 44.48 63.9315 44.8341C63.7323 44.9447 63.511 45.0111 63.2897 45.0111Z" fill="#003A3E"/>
<path d="M40.8278 61.6072L43.7267 63.289L40.8278 61.6072Z" fill="white"/>
<path d="M43.7288 64.5504C43.5296 64.5504 43.3084 64.5062 43.0871 64.3955L40.1881 62.7137C39.5685 62.3596 39.3693 61.5851 39.7234 60.9655C40.0775 60.3458 40.852 60.1467 41.4716 60.5007L44.3706 62.1826C44.9902 62.5366 45.1893 63.3112 44.8353 63.9308C44.614 64.3291 44.1714 64.5504 43.7288 64.5504Z" fill="#003A3E"/>
<path d="M36.58 91.2833H33.2164C32.5082 91.2833 31.9329 90.7079 31.9329 89.9998C31.9329 89.2917 32.5082 88.7163 33.2164 88.7163H36.58C37.2882 88.7163 37.8635 89.2917 37.8635 89.9998C37.8635 90.7079 37.2882 91.2833 36.58 91.2833Z" fill="#003A3E"/>
<path d="M40.8278 118.393L43.7267 116.711L40.8278 118.393Z" fill="white"/>
<path d="M40.8296 119.677C40.387 119.677 39.9666 119.434 39.7232 119.036C39.3691 118.416 39.5683 117.641 40.1879 117.287L43.0868 115.605C43.7064 115.251 44.481 115.451 44.835 116.07C45.1891 116.69 44.9899 117.464 44.3703 117.818L41.4714 119.5C41.2722 119.611 41.0509 119.677 40.8296 119.677Z" fill="#003A3E"/>
<path d="M61.6094 139.17L63.2912 136.271L61.6094 139.17Z" fill="white"/>
<path d="M61.6079 140.455C61.3866 140.455 61.1653 140.389 60.9661 140.278C60.3686 139.924 60.1473 139.15 60.5014 138.53L62.1832 135.631C62.5373 135.011 63.3118 134.812 63.9315 135.166C64.5511 135.52 64.7502 136.295 64.3962 136.914L62.7143 139.813C62.493 140.234 62.0505 140.455 61.6079 140.455Z" fill="#003A3E"/>
<path d="M89.9999 148.067C89.2918 148.067 88.7164 147.492 88.7164 146.784V143.42C88.7164 142.712 89.2918 142.137 89.9999 142.137C90.7081 142.137 91.2834 142.712 91.2834 143.42V146.784C91.2834 147.492 90.7081 148.067 89.9999 148.067Z" fill="#003A3E"/>
<path d="M118.392 139.17L116.71 136.271L118.392 139.17Z" fill="white"/>
<path d="M118.391 140.455C117.949 140.455 117.528 140.234 117.285 139.813L115.603 136.914C115.249 136.295 115.47 135.52 116.09 135.166C116.687 134.812 117.484 135.011 117.816 135.631L119.498 138.53C119.852 139.15 119.653 139.924 119.033 140.278C118.834 140.389 118.613 140.455 118.391 140.455Z" fill="#003A3E"/>
<path d="M139.194 118.393L136.273 116.711L139.194 118.393Z" fill="white"/>
<path d="M139.172 119.677C138.973 119.677 138.752 119.611 138.553 119.5L135.632 117.818C135.034 117.464 134.813 116.69 135.167 116.07C135.521 115.451 136.295 115.251 136.915 115.605L139.814 117.287C140.434 117.641 140.633 118.416 140.301 119.036C140.057 119.434 139.615 119.677 139.172 119.677Z" fill="#003A3E"/>
<path d="M146.784 91.2833H143.443C142.734 91.2833 142.159 90.7079 142.159 89.9998C142.159 89.2917 142.734 88.7163 143.443 88.7163H146.784C147.492 88.7163 148.068 89.2917 148.068 89.9998C148.068 90.7079 147.492 91.2833 146.784 91.2833Z" fill="#003A3E"/>
<path d="M139.194 61.6072L136.273 63.289L139.194 61.6072Z" fill="white"/>
<path d="M136.273 64.5504C135.83 64.5504 135.41 64.3291 135.167 63.9308C134.812 63.3112 135.034 62.5366 135.631 62.1826L138.552 60.5007C139.15 60.1467 139.946 60.3458 140.301 60.9655C140.632 61.5851 140.433 62.3596 139.814 62.7137L136.915 64.3955C136.716 64.5062 136.494 64.5504 136.273 64.5504Z" fill="#003A3E"/>
<path d="M118.392 40.8281L116.71 43.7271L118.392 40.8281Z" fill="white"/>
<path d="M116.71 45.0111C116.51 45.0111 116.289 44.9447 116.09 44.8341C115.47 44.48 115.249 43.7055 115.603 43.0858L117.285 40.1869C117.639 39.5673 118.436 39.3681 119.033 39.7222C119.653 40.0763 119.852 40.8508 119.498 41.4483L117.816 44.3693C117.595 44.7677 117.152 45.0111 116.71 45.0111Z" fill="#003A3E"/>
<path d="M112.483 113.767C112.173 113.767 111.841 113.635 111.598 113.391L89.0925 90.9078C88.8712 90.6644 88.7163 90.3324 88.7163 90.0005V50.8316C88.7163 50.1235 89.2917 49.5481 89.9998 49.5481C90.7079 49.5481 91.2833 50.1235 91.2833 50.8316V89.4694L113.391 111.577C113.899 112.086 113.899 112.882 113.391 113.391C113.147 113.635 112.815 113.767 112.483 113.767Z" fill="#003A3E"/>
<path d="M97.5681 90.0001C97.5681 94.1604 94.1823 97.5462 89.9998 97.5462C85.8395 97.5462 82.4537 94.1604 82.4537 90.0001C82.4537 85.8177 85.8395 82.4319 89.9998 82.4319C94.1823 82.4319 97.5681 85.8177 97.5681 90.0001Z" fill="#01565B"/>
<path fill-rule="evenodd" clip-rule="evenodd" d="M89.9996 98.8303C85.1312 98.8303 81.17 94.8692 81.17 90.0008C81.17 85.1323 85.1312 81.1711 89.9996 81.1711C94.8681 81.1711 98.8292 85.1323 98.8292 90.0008C98.8292 94.8692 94.8681 98.8303 89.9996 98.8303ZM89.9996 83.716C86.5475 83.716 83.737 86.5264 83.737 90.0008C83.737 93.4529 86.5475 96.2633 89.9996 96.2633C93.4739 96.2633 96.2844 93.4529 96.2844 90.0008C96.2844 86.5264 93.4739 83.716 89.9996 83.716Z" fill="#003A3E"/>
</svg>
