<svg width="80" height="80" viewBox="0 0 80 80" fill="none" xmlns="http://www.w3.org/2000/svg">
<g clip-path="url(#clip0_34_7254)">
<path d="M41 0L43.0934 0.0548172L45.1811 0.219124L47.2574 0.492466L49.3165 0.874096L51.3528 1.36297L53.3607 1.95774L55.3347 2.65678L57.2695 3.45818L59.1596 4.35974L61 5.35898L62.7856 6.45318L64.5114 7.63932L66.1728 8.91416L67.7652 10.2742L69.2843 11.7157L70.7258 13.2348L72.0858 14.8272L73.3607 16.4886L74.5468 18.2144L75.641 20L76.6403 21.8404L77.5418 23.7305L78.3432 25.6653L79.0423 27.6393L79.637 29.6472L80.1259 31.6835L80.5075 33.7426L80.7809 35.8189L80.9452 37.9066L81 40L80.9452 42.0934L80.7809 44.1811L80.5075 46.2574L80.1259 48.3165L79.637 50.3528L79.0423 52.3607L78.3432 54.3347L77.5418 56.2695L76.6403 58.1596L75.641 60L74.5468 61.7856L73.3607 63.5114L72.0858 65.1728L70.7258 66.7652L69.2843 68.2843L67.7652 69.7258L66.1728 71.0858L64.5114 72.3607L62.7856 73.5468L61 74.641L59.1596 75.6403L57.2695 76.5418L55.3347 77.3432L53.3607 78.0423L51.3528 78.637L49.3165 79.1259L47.2574 79.5075L45.1811 79.7809L43.0934 79.9452L41 80L38.9066 79.9452L36.8189 79.7809L34.7426 79.5075L32.6835 79.1259L30.6472 78.637L28.6393 78.0423L26.6653 77.3432L24.7305 76.5418L22.8404 75.6403L21 74.641L19.2144 73.5468L17.4886 72.3607L15.8272 71.0858L14.2348 69.7258L12.7157 68.2843L11.2742 66.7652L9.91416 65.1728L8.63932 63.5114L7.45318 61.7856L6.35898 60L5.35974 58.1596L4.45818 56.2695L3.65678 54.3347L2.95774 52.3607L2.36297 50.3528L1.8741 48.3165L1.49247 46.2574L1.21912 44.1811L1.05482 42.0934L1 40L1.05482 37.9066L1.21912 35.8189L1.49247 33.7426L1.8741 31.6835L2.36297 29.6472L2.95774 27.6393L3.65678 25.6653L4.45818 23.7305L5.35974 21.8404L6.35898 20L7.45318 18.2144L8.63932 16.4886L9.91416 14.8272L11.2742 13.2348L12.7157 11.7157L14.2348 10.2742L15.8272 8.91416L17.4886 7.63932L19.2144 6.45318L21 5.35898L22.8404 4.35974L24.7305 3.45818L26.6653 2.65678L28.6393 1.95774L30.6472 1.36297L32.6835 0.874096L34.7426 0.492466L36.8189 0.219124L38.9066 0.0548172L41 0Z" fill="#FADBE1"/>
<path d="M53.7501 31H28.25" stroke="#DF1C41" stroke-width="2.25" stroke-linecap="round"/>
<path d="M51.2505 34.75L50.5606 45.0987C50.2951 49.081 50.1623 51.0722 48.8648 52.2861C47.5673 53.5 45.5717 53.5 41.5805 53.5H40.4205C36.4293 53.5 34.4337 53.5 33.1361 52.2861C31.8386 51.0722 31.7059 49.081 31.4404 45.0987L30.7505 34.75" stroke="#DF1C41" stroke-width="2.25" stroke-linecap="round"/>
<path d="M37.25 38.5L38 46" stroke="#DF1C41" stroke-width="2.25" stroke-linecap="round"/>
<path d="M44.75 38.5L44 46" stroke="#DF1C41" stroke-width="2.25" stroke-linecap="round"/>
<path d="M32.75 31C32.8338 31 32.8757 31 32.9137 30.999C34.1489 30.9677 35.2385 30.1824 35.6588 29.0205C35.6718 28.9847 35.685 28.945 35.7115 28.8655L35.8571 28.4286C35.9815 28.0556 36.0436 27.8691 36.1261 27.7108C36.455 27.0791 37.0636 26.6405 37.7669 26.5281C37.9432 26.5 38.1398 26.5 38.5329 26.5H43.4671C43.8602 26.5 44.0568 26.5 44.2331 26.5281C44.9364 26.6405 45.545 27.0791 45.8739 27.7108C45.9564 27.8691 46.0185 28.0556 46.1429 28.4286L46.2885 28.8655C46.315 28.9449 46.3283 28.9848 46.3412 29.0205C46.7615 30.1824 47.8511 30.9677 49.0863 30.999C49.1243 31 49.1662 31 49.25 31" stroke="#DF1C41" stroke-width="2.25"/>
</g>
<defs>
<clipPath id="clip0_34_7254">
<rect width="80" height="80" fill="white"/>
</clipPath>
</defs>
</svg>
