<svg width="17" height="15" viewBox="0 0 17 15" fill="none" xmlns="http://www.w3.org/2000/svg">
<g opacity="0.8">
<path fill-rule="evenodd" clip-rule="evenodd" d="M11.6114 3.46526C11.8721 3.14339 11.8225 2.67111 11.5006 2.41039C11.1788 2.14968 10.7065 2.19925 10.4458 2.52112L4.48814 9.8761L2.05714 7.46111C1.76328 7.16919 1.28841 7.17075 0.996484 7.46461C0.704561 7.75847 0.70613 8.23335 0.99999 8.52527L4.01989 11.5253C4.17036 11.6748 4.3771 11.7535 4.5889 11.7421C4.8007 11.7307 4.99775 11.6301 5.13126 11.4653L11.6114 3.46526ZM16.5937 3.48631C16.866 3.1742 16.8338 2.70042 16.5216 2.4281C16.2095 2.15577 15.7358 2.18803 15.4634 2.50014L9.00594 9.90117L8.55365 9.4577C8.25788 9.1677 7.78303 9.17238 7.49304 9.46814C7.20304 9.76391 7.20772 10.2388 7.50348 10.5288L8.52338 11.5288C8.67081 11.6733 8.87132 11.7507 9.07764 11.7427C9.28396 11.7346 9.47784 11.6419 9.61359 11.4863L16.5937 3.48631Z" fill="#C1C7D0"/>
</g>
</svg>
