<svg width="148" height="168" viewBox="0 0 148 168" fill="none" xmlns="http://www.w3.org/2000/svg">
<path d="M146.6 125.637C146.6 125.748 146.607 125.837 146.621 125.906C146.607 125.81 146.6 125.72 146.6 125.637Z" fill="#FFBE4C"/>
<path d="M146.621 126.59C146.248 126.59 145.959 126.321 145.917 125.969L145.897 125.7C145.855 125.327 146.145 124.996 146.517 124.955C146.91 124.914 147.242 125.183 147.283 125.555C147.297 125.679 147.304 125.783 147.304 125.865C147.324 126.238 147.035 126.569 146.662 126.59C146.648 126.59 146.635 126.59 146.621 126.59Z" fill="black"/>
<path d="M146.6 125.637C146.6 125.72 146.607 125.81 146.621 125.906C147.407 135.528 124.997 148.565 93.5444 157.504C88.7231 158.89 83.7155 160.153 78.5216 161.311C73.3485 162.449 68.2581 163.422 63.3126 164.208C31.1977 169.361 5.47681 167.064 1.91768 158.125C1.79353 157.835 1.69697 157.532 1.62799 157.214C-0.834423 146.102 29.6044 129.9 69.6031 121.023C108.816 112.332 142.689 113.925 146.311 124.479C146.324 124.52 146.338 124.561 146.352 124.603C146.393 124.727 146.435 124.851 146.455 124.975C146.538 125.244 146.559 125.472 146.6 125.637Z" fill="white"/>
<path fill-rule="evenodd" clip-rule="evenodd" d="M32.3565 167.602C28.5904 167.602 25.0727 167.457 21.8446 167.147C10.2361 166.029 3.11787 163.008 1.27623 158.394C1.13138 158.063 1.02791 157.711 0.945136 157.38C-1.64144 145.688 28.4663 129.445 69.4583 120.361C109.147 111.566 143.186 113.263 146.973 124.251L147.055 124.561C147.083 124.644 147.111 124.727 147.138 124.81C147.2 125.058 147.242 125.306 147.283 125.555C147.283 125.568 147.283 125.575 147.283 125.575L147.304 125.803C147.304 125.817 147.304 125.83 147.304 125.844C148.111 135.694 126.094 148.979 93.7307 158.187C88.8472 159.573 83.7776 160.856 78.6872 161.973C73.5761 163.112 68.4444 164.084 63.4161 164.891C52.2834 166.691 41.5854 167.602 32.3565 167.602ZM115.83 116.119C102.815 116.119 86.7159 117.94 69.748 121.706C30.8459 130.335 -0.0274079 146.516 2.31085 157.069C2.36603 157.345 2.44881 157.614 2.55917 157.876C5.91137 166.257 31.4046 168.636 63.2091 163.525C68.196 162.718 73.3071 161.746 78.3768 160.628C83.4465 159.511 88.4955 158.228 93.3582 156.842C124.521 147.985 146.621 135.011 145.938 125.989C145.924 125.975 145.917 125.968 145.917 125.968L145.897 125.72C145.876 125.575 145.855 125.368 145.793 125.141C145.773 125.058 145.752 124.996 145.731 124.934L145.669 124.706C143.703 119.036 132.24 116.119 115.83 116.119Z" fill="black"/>
<path d="M137.061 129.382C137.075 129.424 137.081 129.472 137.081 129.527C137.081 129.527 137.081 129.534 137.081 129.548C137.226 135.114 119.927 143.66 95.3652 150.675C89.654 152.31 83.5497 153.862 77.1971 155.269C70.8238 156.676 64.6367 157.855 58.7807 158.786C33.7013 162.78 14.4779 162.387 12.0775 157.338C11.9948 157.159 11.9327 156.972 11.8913 156.779C10.6083 151.006 29.6248 141.694 56.4631 134.328C61.3259 133.004 66.4162 131.741 71.7135 130.562C76.9902 129.382 82.1633 128.389 87.1295 127.541C113.926 122.968 134.764 123.257 136.895 128.658C136.909 128.686 136.923 128.713 136.937 128.741C136.957 128.824 136.978 128.886 136.999 128.948C137.04 129.134 137.061 129.258 137.061 129.382Z" fill="black"/>
<path fill-rule="evenodd" clip-rule="evenodd" d="M29.4181 162.16C20.1478 162.16 13.0089 160.918 11.4569 157.628C11.3466 157.394 11.2638 157.159 11.2086 156.925C9.636 149.827 32.7082 140.143 56.2771 133.666C61.264 132.3 66.4165 131.038 71.5689 129.879C76.7214 128.741 81.9152 127.727 87.0056 126.858C110.285 122.885 134.93 121.83 137.537 128.41C137.558 128.431 137.599 128.534 137.599 128.555C137.64 128.679 137.661 128.741 137.661 128.803C137.723 128.948 137.744 129.134 137.764 129.321C137.764 129.334 137.764 129.355 137.764 129.383V129.445C137.764 129.472 137.764 129.5 137.764 129.528C137.971 136.667 115.147 145.751 95.5516 151.338C89.6956 153.014 83.5499 154.566 77.3421 155.952C71.1137 157.318 64.9059 158.518 58.8843 159.47C49.1174 161.022 38.2952 162.16 29.4181 162.16ZM119.245 125.017C111.195 125.017 100.435 125.968 87.2332 128.224C82.1842 129.093 77.011 130.107 71.8586 131.245C66.7268 132.383 61.6158 133.645 56.6495 135.011C26.7281 143.205 11.6018 152.269 12.5537 156.635C12.5812 156.759 12.6295 156.89 12.6985 157.028C14.8919 161.622 33.7842 162.056 58.6567 158.104C64.6576 157.152 70.8447 155.973 77.0317 154.586C83.2395 153.221 89.3231 151.669 95.1791 150.013C123.569 141.902 136.419 133.749 136.378 129.59C136.378 129.576 136.378 129.555 136.378 129.528V129.403C136.378 129.334 136.357 129.245 136.316 129.134C136.316 129.072 136.295 129.052 136.295 129.031L136.275 128.969C136.275 128.948 136.254 128.907 136.254 128.907C135.323 126.569 129.467 125.017 119.245 125.017Z" fill="black"/>
<path d="M146.311 124.479C142.689 113.925 108.816 112.332 69.6031 121.023C29.6043 129.9 -0.834457 146.102 1.62796 157.214C1.69694 157.532 1.79349 157.835 1.91765 158.125L1.83489 158.166C1.83489 158.166 -1.12416 153.221 7.3805 133.418C16.7335 111.608 12.3674 79.6377 9.40837 69.5812C6.84249 60.7661 9.76014 33.7623 34.7982 22.2158C36.8881 21.2433 39.1436 20.3742 41.5646 19.6499C43.2338 19.1533 44.9789 18.7119 46.7999 18.3256C48.5932 17.898 50.3452 17.5669 52.0558 17.3324C54.5596 16.9599 56.9599 16.7944 59.2775 16.7944C86.8814 16.6495 100.932 39.908 102.318 48.992C103.911 59.3383 113.451 90.1703 131.143 105.979C142.42 116.077 145.483 121.892 146.311 124.479Z" fill="#01565B"/>
<path fill-rule="evenodd" clip-rule="evenodd" d="M1.83485 158.849C1.60723 158.849 1.3796 158.725 1.25544 158.518C1.13129 158.29 -1.78637 153.055 6.73898 133.128C16.0713 111.401 11.4776 79.0791 8.74616 69.7674C5.99405 60.3523 9.49109 33.1208 34.5084 21.5951C36.7018 20.5811 38.9987 19.712 41.3784 18.9878C43.0545 18.4912 44.8133 18.0359 46.655 17.6635C48.4552 17.2289 50.2348 16.8771 51.973 16.6495C54.4354 16.2978 56.8978 16.1115 59.2775 16.0908C86.84 15.9667 101.532 39.1838 103.001 48.8886C104.47 58.4692 113.968 89.715 131.598 105.462C143 115.664 146.124 121.623 146.973 124.272C147.097 124.623 146.89 125.017 146.538 125.12C146.166 125.244 145.793 125.058 145.669 124.706C142.172 114.546 108.112 113.201 69.7479 121.706C30.8458 130.335 -0.0274897 146.516 2.31077 157.069C2.36595 157.345 2.44873 157.614 2.55909 157.876C2.64186 158.063 2.62116 158.249 2.53839 158.435C2.45562 158.601 2.31077 158.745 2.12453 158.808L2.04177 158.828C1.9728 158.842 1.90382 158.849 1.83485 158.849ZM59.5051 17.4772C59.4223 17.4772 59.3464 17.4772 59.2775 17.4772C56.9599 17.4772 54.5595 17.6635 52.1592 18.0152C50.4831 18.2429 48.7242 18.5946 46.9447 19.0085C45.1444 19.3809 43.4062 19.8155 41.7715 20.3121C39.4747 21.0157 37.2192 21.8641 35.0878 22.8366C10.8361 34.0313 7.42184 60.3109 10.0912 69.3742C13.3192 80.4448 17.3129 112.022 8.02192 133.687C4.58695 141.716 3.03501 147.261 2.41424 150.986C9.07725 140.308 35.5224 127.872 69.4582 120.361C102.897 112.932 132.343 112.994 143.041 119.761C140.889 116.636 137.164 112.291 130.688 106.497C113.12 90.8118 103.373 60.4971 101.635 49.0955C100.207 39.7631 86.0743 17.4772 59.5051 17.4772Z" fill="black"/>
<path d="M90.2336 137.867C90.7923 140.391 90.751 142.895 90.1923 145.254C88.7645 151.214 84.0673 156.138 77.6939 157.546C71.3206 158.973 64.9887 156.49 61.1813 151.69C59.6707 149.786 58.5533 147.53 57.9946 145.006C57.1048 140.95 57.767 136.915 59.6293 133.542C63.4781 132.487 67.5132 131.494 71.7138 130.562C75.9144 129.631 79.9908 128.824 83.9224 128.141C87.0263 130.438 89.3439 133.811 90.2336 137.867Z" fill="#FFBE4C"/>
<path d="M59.2773 16.7943C56.9598 16.7943 54.5594 16.9598 52.0556 17.3323C52.7178 15.9873 52.9454 14.3939 52.5936 12.8213C51.7866 9.11732 48.1033 6.77906 44.3994 7.58607C40.6954 8.41377 38.3571 12.0971 39.1641 15.801C39.5159 17.3737 40.385 18.7187 41.5645 19.6499C39.1435 20.3741 36.9087 21.2432 34.798 22.2157C33.7634 20.7672 32.9978 19.0911 32.5839 17.2495C30.9699 9.90364 35.605 2.64054 42.9509 1.00583C50.2761 -0.608191 57.5599 4.02695 59.1739 11.3521C59.5877 13.1938 59.6084 15.0354 59.2773 16.7943Z" fill="white"/>
<path fill-rule="evenodd" clip-rule="evenodd" d="M34.7981 22.8987C34.5705 22.8987 34.3636 22.7952 34.2394 22.609C33.122 21.0363 32.3357 19.2982 31.9219 17.3944C30.2044 9.6968 35.0878 2.04054 42.7855 0.34375C50.4831 -1.37373 58.1601 3.50971 59.8569 11.2074C60.2707 13.1111 60.3121 15.0355 59.9603 16.9185C59.8982 17.2289 59.6086 17.4772 59.2775 17.4772C56.9599 17.4979 54.5596 17.6634 52.1592 18.0152C51.9109 18.0566 51.6419 17.9531 51.4971 17.7255C51.3522 17.5186 51.3315 17.2496 51.435 17.022C52.0558 15.7804 52.2213 14.3526 51.9316 12.9662C51.5591 11.3522 50.6073 9.9865 49.2002 9.09672C47.8138 8.20693 46.1584 7.91724 44.5444 8.26901C41.2128 9.01395 39.1022 12.3248 39.8471 15.6356C40.1575 17.0427 40.9025 18.2428 41.9992 19.1119C42.2061 19.2775 42.2889 19.5258 42.2475 19.7948C42.2061 20.0431 42.0199 20.25 41.7716 20.3121C39.4954 20.995 37.2399 21.8433 35.0878 22.8366C34.9913 22.878 34.8947 22.8987 34.7981 22.8987ZM45.8894 1.37838C44.9582 1.37838 44.027 1.48184 43.0959 1.68877C36.1225 3.24071 31.7149 10.152 33.2669 17.1047C33.598 18.6153 34.1981 20.0431 35.0465 21.3467C36.7433 20.5811 38.4814 19.9189 40.2403 19.3395C39.3919 18.3877 38.7711 17.2082 38.5021 15.946C37.5916 11.8695 40.1782 7.81378 44.2547 6.924C46.2205 6.46876 48.2483 6.84122 49.9451 7.91724C51.6626 9.01394 52.8421 10.69 53.2766 12.6765C53.5663 13.9388 53.5042 15.2631 53.1318 16.484C54.9941 16.2564 56.8564 16.1322 58.6774 16.0908C58.905 14.5802 58.8429 13.0283 58.5118 11.5177C57.1668 5.4962 51.8074 1.37838 45.8894 1.37838Z" fill="black"/>
</svg>
