<svg width="136" height="23" viewBox="0 0 136 23" fill="none" xmlns="http://www.w3.org/2000/svg">
    <path
        d="M29.4875 17.7007C29.4875 18.819 28.5843 19.7222 27.466 19.7222C26.3478 19.7222 25.4302 18.819 25.4302 17.7007C25.4302 16.5824 26.3478 15.6792 27.466 15.6792C28.5843 15.6792 29.4875 16.5824 29.4875 17.7007Z"
        fill="#679A9D" />
    <path
        d="M12.0107 17.7007C12.0107 18.819 11.0932 19.7222 9.9749 19.7222C8.85662 19.7222 7.95339 18.819 7.95339 17.7007C7.95339 16.5824 8.85662 15.6792 9.9749 15.6792C11.0932 15.6792 12.0107 16.5824 12.0107 17.7007Z"
        fill="#679A9D" />
    <path fill-rule="evenodd" clip-rule="evenodd"
        d="M2.08961 6.64696C1.54481 6.64696 1.10036 6.20251 1.10036 5.65771C1.10036 5.1129 1.54481 4.66846 2.08961 4.66846H3.27957V2.48925C3.27957 1.94445 3.72401 1.5 4.26881 1.5H22.2186V7.43549C22.2186 7.99463 22.6631 8.42473 23.2079 8.42473H30.8351C30.8351 8.43907 33.8889 8.62545 33.8889 11.5358V17.4713C33.8889 18.0161 33.4444 18.4606 32.8996 18.4606H31.1792C30.8208 20.2097 29.2867 21.5 27.466 21.5C25.6452 21.5 24.0968 20.2097 23.7384 18.4606H13.6882C13.3441 20.2097 11.7957 21.5 9.97491 21.5C8.15413 21.5 6.62007 20.2097 6.26165 18.4606H4.26881C3.72401 18.4606 3.27957 18.0161 3.27957 17.4713V14.5036H1.10036C0.555557 14.5036 0.111109 14.0591 0.111109 13.5143C0.111109 12.9695 0.555557 12.5251 1.10036 12.5251H10.0179C10.5627 12.5251 11.0072 12.0806 11.0072 11.5358C11.0072 10.991 10.5627 10.5466 10.0036 10.5466H1.10036C0.555557 10.5466 0.111109 10.1022 0.111109 9.55735C0.111109 9.01255 0.555557 8.5681 1.10036 8.5681H7.07886C7.62366 8.5681 8.0681 8.12366 8.0681 7.57886C8.0681 6.9337 7.65233 6.64696 7.07886 6.64696H2.08961ZM24.1971 1.70072C27.1219 2.38889 28.2401 4.09498 29.6452 6.44624H24.1971V1.70072ZM25.6452 17.7007C25.6452 19.3208 27.595 20.1237 28.7419 18.991C29.4444 18.2742 29.4444 17.1272 28.7419 16.4247C27.595 15.2778 25.6452 16.095 25.6452 17.7007ZM8.15412 17.7007C8.15412 19.3208 10.1183 20.1237 11.2509 18.991C11.9677 18.2742 11.9677 17.1272 11.2509 16.4247C10.1183 15.2778 8.15412 16.095 8.15412 17.7007Z"
        fill="#01565B" />
    <path
        d="M47.9917 19V7.48H44.4277V5.59H53.6077V7.48H50.0977V19H47.9917ZM53.9255 19V9.262H55.8695V11.224L55.6895 10.936C55.9055 10.3 56.2535 9.844 56.7335 9.568C57.2135 9.28 57.7895 9.136 58.4615 9.136H59.0555V10.99H58.2095C57.5375 10.99 56.9915 11.2 56.5715 11.62C56.1635 12.028 55.9595 12.616 55.9595 13.384V19H53.9255ZM63.921 19.216C63.189 19.216 62.547 19.054 61.995 18.73C61.443 18.394 61.011 17.932 60.699 17.344C60.399 16.744 60.249 16.054 60.249 15.274V9.262H62.283V15.094C62.283 15.538 62.373 15.928 62.553 16.264C62.733 16.6 62.985 16.864 63.309 17.056C63.633 17.236 64.005 17.326 64.425 17.326C64.857 17.326 65.235 17.23 65.559 17.038C65.883 16.846 66.135 16.576 66.315 16.228C66.507 15.88 66.603 15.472 66.603 15.004V9.262H68.619V19H66.693V17.092L66.909 17.344C66.681 17.944 66.303 18.406 65.775 18.73C65.247 19.054 64.629 19.216 63.921 19.216ZM75.6199 19.216C74.6479 19.216 73.7839 18.994 73.0279 18.55C72.2839 18.094 71.6899 17.482 71.2459 16.714C70.8139 15.946 70.5979 15.076 70.5979 14.104C70.5979 13.144 70.8139 12.28 71.2459 11.512C71.6779 10.744 72.2719 10.144 73.0279 9.712C73.7839 9.268 74.6479 9.046 75.6199 9.046C76.2799 9.046 76.8979 9.166 77.4739 9.406C78.0499 9.634 78.5479 9.952 78.9679 10.36C79.3999 10.768 79.7179 11.242 79.9219 11.782L78.1399 12.61C77.9359 12.106 77.6059 11.704 77.1499 11.404C76.7059 11.092 76.1959 10.936 75.6199 10.936C75.0679 10.936 74.5699 11.074 74.1259 11.35C73.6939 11.614 73.3519 11.992 73.0999 12.484C72.8479 12.964 72.7219 13.51 72.7219 14.122C72.7219 14.734 72.8479 15.286 73.0999 15.778C73.3519 16.258 73.6939 16.636 74.1259 16.912C74.5699 17.188 75.0679 17.326 75.6199 17.326C76.2079 17.326 76.7179 17.176 77.1499 16.876C77.5939 16.564 77.9239 16.15 78.1399 15.634L79.9219 16.48C79.7299 16.996 79.4179 17.464 78.9859 17.884C78.5659 18.292 78.0679 18.616 77.4919 18.856C76.9159 19.096 76.2919 19.216 75.6199 19.216ZM81.9099 19V5.374H83.9439V14.5L83.1519 14.302L88.0299 9.262H90.5679L86.8959 13.168L90.7299 19H88.3899L84.9699 13.834L86.1759 13.672L83.2959 16.732L83.9439 15.382V19H81.9099ZM95.4673 19V5.59H104.305V7.48H97.5913V11.332H103.945V13.222H97.5913V17.11H104.305V19H95.4673ZM108.996 19.216C108.336 19.216 107.754 19.102 107.25 18.874C106.758 18.634 106.374 18.31 106.098 17.902C105.822 17.482 105.684 16.99 105.684 16.426C105.684 15.898 105.798 15.424 106.026 15.004C106.266 14.584 106.632 14.23 107.124 13.942C107.616 13.654 108.234 13.45 108.978 13.33L112.362 12.772V14.374L109.374 14.896C108.834 14.992 108.438 15.166 108.186 15.418C107.934 15.658 107.808 15.97 107.808 16.354C107.808 16.726 107.946 17.032 108.222 17.272C108.51 17.5 108.876 17.614 109.32 17.614C109.872 17.614 110.352 17.494 110.76 17.254C111.18 17.014 111.504 16.696 111.732 16.3C111.96 15.892 112.074 15.442 112.074 14.95V12.448C112.074 11.968 111.894 11.578 111.534 11.278C111.186 10.966 110.718 10.81 110.13 10.81C109.59 10.81 109.116 10.954 108.708 11.242C108.312 11.518 108.018 11.878 107.826 12.322L106.134 11.476C106.314 10.996 106.608 10.576 107.016 10.216C107.424 9.844 107.898 9.556 108.438 9.352C108.99 9.148 109.572 9.046 110.184 9.046C110.952 9.046 111.63 9.19 112.218 9.478C112.818 9.766 113.28 10.168 113.604 10.684C113.94 11.188 114.108 11.776 114.108 12.448V19H112.164V17.236L112.578 17.29C112.35 17.686 112.056 18.028 111.696 18.316C111.348 18.604 110.946 18.826 110.49 18.982C110.046 19.138 109.548 19.216 108.996 19.216ZM120.086 19.216C119.09 19.216 118.214 18.97 117.458 18.478C116.714 17.986 116.192 17.326 115.892 16.498L117.458 15.76C117.722 16.312 118.082 16.75 118.538 17.074C119.006 17.398 119.522 17.56 120.086 17.56C120.566 17.56 120.956 17.452 121.256 17.236C121.556 17.02 121.706 16.726 121.706 16.354C121.706 16.114 121.64 15.922 121.508 15.778C121.376 15.622 121.208 15.496 121.004 15.4C120.812 15.304 120.614 15.232 120.41 15.184L118.88 14.752C118.04 14.512 117.41 14.152 116.99 13.672C116.582 13.18 116.378 12.61 116.378 11.962C116.378 11.374 116.528 10.864 116.828 10.432C117.128 9.988 117.542 9.646 118.07 9.406C118.598 9.166 119.192 9.046 119.852 9.046C120.74 9.046 121.532 9.268 122.228 9.712C122.924 10.144 123.416 10.75 123.704 11.53L122.138 12.268C121.946 11.8 121.64 11.428 121.22 11.152C120.812 10.876 120.35 10.738 119.834 10.738C119.39 10.738 119.036 10.846 118.772 11.062C118.508 11.266 118.376 11.536 118.376 11.872C118.376 12.1 118.436 12.292 118.556 12.448C118.676 12.592 118.832 12.712 119.024 12.808C119.216 12.892 119.414 12.964 119.618 13.024L121.202 13.492C122.006 13.72 122.624 14.08 123.056 14.572C123.488 15.052 123.704 15.628 123.704 16.3C123.704 16.876 123.548 17.386 123.236 17.83C122.936 18.262 122.516 18.604 121.976 18.856C121.436 19.096 120.806 19.216 120.086 19.216ZM130.269 19.216C129.297 19.216 128.433 18.994 127.677 18.55C126.933 18.094 126.351 17.482 125.931 16.714C125.511 15.934 125.301 15.064 125.301 14.104C125.301 13.12 125.511 12.25 125.931 11.494C126.363 10.738 126.939 10.144 127.659 9.712C128.379 9.268 129.195 9.046 130.107 9.046C130.839 9.046 131.493 9.172 132.069 9.424C132.645 9.676 133.131 10.024 133.527 10.468C133.923 10.9 134.223 11.398 134.427 11.962C134.643 12.526 134.751 13.126 134.751 13.762C134.751 13.918 134.745 14.08 134.733 14.248C134.721 14.416 134.697 14.572 134.661 14.716H126.903V13.096H133.509L132.537 13.834C132.657 13.246 132.615 12.724 132.411 12.268C132.219 11.8 131.919 11.434 131.511 11.17C131.115 10.894 130.647 10.756 130.107 10.756C129.567 10.756 129.087 10.894 128.667 11.17C128.247 11.434 127.923 11.818 127.695 12.322C127.467 12.814 127.377 13.414 127.425 14.122C127.365 14.782 127.455 15.358 127.695 15.85C127.947 16.342 128.295 16.726 128.739 17.002C129.195 17.278 129.711 17.416 130.287 17.416C130.875 17.416 131.373 17.284 131.781 17.02C132.201 16.756 132.531 16.414 132.771 15.994L134.427 16.804C134.235 17.26 133.935 17.674 133.527 18.046C133.131 18.406 132.651 18.694 132.087 18.91C131.535 19.114 130.929 19.216 130.269 19.216Z"
        fill="#01565B" />
</svg>
