<?xml version="1.0" encoding="utf-8"?>
<svg xmlns="http://www.w3.org/2000/svg" viewBox="0 0 209.007 45.296">
    <g transform="matrix(0.549498, 0, 0, 0.568393, 127.843935, 22.928294)" style="">
        <path style="stroke: rgb(0,0,0); stroke-width: 0; stroke-dasharray: none; stroke-linecap: butt; stroke-dashoffset: 0; stroke-linejoin: miter; stroke-miterlimit: 4; fill: rgb(1,86,91); fill-rule: nonzero; opacity: 1;" vector-effect="non-scaling-stroke" transform=" translate(-131.9, -33.28)" d="M 9.65 51.9 L 9.65 20.65 L 0 20.65 L 0 14.65 L 26 14.65 L 26 20.65 L 16.5 20.65 L 16.5 51.9 L 9.65 51.9 Z M 26.6 51.9 L 26.6 24.7 L 32.75 24.7 L 32.75 30.75 L 32.25 29.85 Q 33.2 26.8 35.23 25.6 Q 37.25 24.4 40.1 24.4 L 41.7 24.4 L 41.7 30.2 L 39.35 30.2 Q 36.55 30.2 34.85 31.92 Q 33.15 33.65 33.15 36.75 L 33.15 51.9 L 26.6 51.9 Z M 53.55 52.5 Q 50.7 52.5 48.6 51.55 Q 46.5 50.6 45.35 48.82 Q 44.2 47.05 44.2 44.7 Q 44.2 42.45 45.2 40.67 Q 46.2 38.9 48.3 37.7 Q 50.4 36.5 53.6 36 L 62.5 34.55 L 62.5 39.55 L 54.85 40.85 Q 52.9 41.2 51.95 42.1 Q 51 43 51 44.45 Q 51 45.85 52.08 46.67 Q 53.15 47.5 54.75 47.5 Q 56.8 47.5 58.38 46.63 Q 59.95 45.75 60.83 44.2 Q 61.7 42.65 61.7 40.8 L 61.7 33.8 Q 61.7 32.05 60.33 30.87 Q 58.95 29.7 56.7 29.7 Q 54.6 29.7 52.98 30.82 Q 51.35 31.95 50.6 33.8 L 45.25 31.2 Q 46.05 29.05 47.77 27.47 Q 49.5 25.9 51.85 25 Q 54.2 24.1 56.95 24.1 Q 60.3 24.1 62.85 25.32 Q 65.4 26.55 66.83 28.72 Q 68.25 30.9 68.25 33.8 L 68.25 51.9 L 62.05 51.9 L 62.05 47.25 L 63.45 47.15 Q 62.4 48.9 60.95 50.07 Q 59.5 51.25 57.65 51.88 Q 55.8 52.5 53.55 52.5 Z M 82 51.9 L 71.3 24.7 L 78.45 24.7 L 86.2 46.1 L 83.55 46.1 L 91.35 24.7 L 98.5 24.7 L 87.8 51.9 L 82 51.9 Z M 114.5 52.5 Q 110.3 52.5 107.15 50.6 Q 104 48.7 102.25 45.45 Q 100.5 42.2 100.5 38.25 Q 100.5 34.15 102.27 30.97 Q 104.05 27.8 107.13 25.95 Q 110.2 24.1 114 24.1 Q 117.2 24.1 119.63 25.15 Q 122.05 26.2 123.75 28.05 Q 125.45 29.9 126.35 32.27 Q 127.25 34.65 127.25 37.4 Q 127.25 38.1 127.17 38.85 Q 127.1 39.6 126.9 40.15 L 105.9 40.15 L 105.9 35.15 L 123.2 35.15 L 120.1 37.5 Q 120.55 35.2 119.88 33.4 Q 119.2 31.6 117.67 30.55 Q 116.15 29.5 114 29.5 Q 111.95 29.5 110.35 30.52 Q 108.75 31.55 107.92 33.52 Q 107.1 35.5 107.3 38.3 Q 107.1 40.8 107.97 42.72 Q 108.85 44.65 110.58 45.7 Q 112.3 46.75 114.55 46.75 Q 116.8 46.75 118.38 45.8 Q 119.95 44.85 120.85 43.25 L 126.15 45.85 Q 125.35 47.8 123.65 49.3 Q 121.95 50.8 119.63 51.65 Q 117.3 52.5 114.5 52.5 Z M 132.2 51.9 L 132.2 14.05 L 138.75 14.05 L 138.75 51.9 L 132.2 51.9 Z M 154.25 51.9 L 154.25 14.65 L 179 14.65 L 179 20.65 L 161.05 20.65 L 161.05 30.2 L 178 30.2 L 178 36.2 L 161.05 36.2 L 161.05 45.9 L 179 45.9 L 179 51.9 L 154.25 51.9 Z M 191.7 52.5 Q 188.85 52.5 186.75 51.55 Q 184.65 50.6 183.5 48.82 Q 182.35 47.05 182.35 44.7 Q 182.35 42.45 183.35 40.67 Q 184.35 38.9 186.45 37.7 Q 188.55 36.5 191.75 36 L 200.65 34.55 L 200.65 39.55 L 193 40.85 Q 191.05 41.2 190.1 42.1 Q 189.15 43 189.15 44.45 Q 189.15 45.85 190.22 46.67 Q 191.3 47.5 192.9 47.5 Q 194.95 47.5 196.53 46.63 Q 198.1 45.75 198.97 44.2 Q 199.85 42.65 199.85 40.8 L 199.85 33.8 Q 199.85 32.05 198.47 30.87 Q 197.1 29.7 194.85 29.7 Q 192.75 29.7 191.13 30.82 Q 189.5 31.95 188.75 33.8 L 183.4 31.2 Q 184.2 29.05 185.93 27.47 Q 187.65 25.9 190 25 Q 192.35 24.1 195.1 24.1 Q 198.45 24.1 201 25.32 Q 203.55 26.55 204.98 28.72 Q 206.4 30.9 206.4 33.8 L 206.4 51.9 L 200.2 51.9 L 200.2 47.25 L 201.6 47.15 Q 200.55 48.9 199.1 50.07 Q 197.65 51.25 195.8 51.88 Q 193.95 52.5 191.7 52.5 Z M 222.8 52.5 Q 218.45 52.5 215.22 50.42 Q 212 48.35 210.8 44.8 L 215.7 42.45 Q 216.75 44.75 218.63 46.05 Q 220.5 47.35 222.8 47.35 Q 224.6 47.35 225.65 46.55 Q 226.7 45.75 226.7 44.45 Q 226.7 43.65 226.28 43.13 Q 225.85 42.6 225.13 42.22 Q 224.4 41.85 223.55 41.6 L 219.1 40.35 Q 215.65 39.35 213.88 37.3 Q 212.1 35.25 212.1 32.45 Q 212.1 29.95 213.38 28.07 Q 214.65 26.2 216.93 25.15 Q 219.2 24.1 222.15 24.1 Q 226 24.1 228.95 25.95 Q 231.9 27.8 233.15 31.15 L 228.15 33.5 Q 227.45 31.65 225.8 30.55 Q 224.15 29.45 222.1 29.45 Q 220.45 29.45 219.5 30.2 Q 218.55 30.95 218.55 32.15 Q 218.55 32.9 218.95 33.45 Q 219.35 34 220.08 34.35 Q 220.8 34.7 221.75 35 L 226.1 36.3 Q 229.45 37.3 231.28 39.3 Q 233.1 41.3 233.1 44.2 Q 233.1 46.65 231.8 48.52 Q 230.5 50.4 228.2 51.45 Q 225.9 52.5 222.8 52.5 Z M 251.05 52.5 Q 246.85 52.5 243.7 50.6 Q 240.55 48.7 238.8 45.45 Q 237.05 42.2 237.05 38.25 Q 237.05 34.15 238.83 30.97 Q 240.6 27.8 243.68 25.95 Q 246.75 24.1 250.55 24.1 Q 253.75 24.1 256.18 25.15 Q 258.6 26.2 260.3 28.05 Q 262 29.9 262.9 32.27 Q 263.8 34.65 263.8 37.4 Q 263.8 38.1 263.73 38.85 Q 263.65 39.6 263.45 40.15 L 242.45 40.15 L 242.45 35.15 L 259.75 35.15 L 256.65 37.5 Q 257.1 35.2 256.43 33.4 Q 255.75 31.6 254.23 30.55 Q 252.7 29.5 250.55 29.5 Q 248.5 29.5 246.9 30.52 Q 245.3 31.55 244.48 33.52 Q 243.65 35.5 243.85 38.3 Q 243.65 40.8 244.53 42.72 Q 245.4 44.65 247.13 45.7 Q 248.85 46.75 251.1 46.75 Q 253.35 46.75 254.93 45.8 Q 256.5 44.85 257.4 43.25 L 262.7 45.85 Q 261.9 47.8 260.2 49.3 Q 258.5 50.8 256.18 51.65 Q 253.85 52.5 251.05 52.5 Z" stroke-linecap="round"/>
    </g>
    <g transform="matrix(0.071435, 0, 0, 0.068207, 28.934231, 22.928294)" style="">
        <path style="stroke: none; stroke-width: 15; stroke-dasharray: none; stroke-linecap: butt; stroke-dashoffset: 0; stroke-linejoin: miter; stroke-miterlimit: 4; fill: rgb(1,86,91); fill-rule: nonzero; opacity: 1;" transform=" translate(-288, -256)" d="M 256 32 L 181.2 32 C 154.1 32 129.89999999999998 49.1 120.89999999999999 74.6 L 3.1 407.2 C 1.1 413 0 419.2 0 425.4 C 0 455.5 24.5 480 54.6 480 L 256 480 L 256 416 C 256 398.3 270.3 384 288 384 C 305.7 384 320 398.3 320 416 L 320 480 L 521.4 480 C 551.6 480 576 455.5 576 425.4 C 576 419.2 574.9 413 572.9 407.2 L 455.1 74.6 C 446 49.1 421.9 32 394.8 32 L 320 32 L 320 96 C 320 113.7 305.7 128 288 128 C 270.3 128 256 113.7 256 96 L 256 32 z M 320 224 L 320 288 C 320 305.7 305.7 320 288 320 C 270.3 320 256 305.7 256 288 L 256 224 C 256 206.3 270.3 192 288 192 C 305.7 192 320 206.3 320 224 z" stroke-linecap="round"/>
    </g>
</svg>