<svg width="254" height="254" viewBox="0 0 254 254" fill="none" xmlns="http://www.w3.org/2000/svg">
<path d="M150.274 71.8005L54.6604 16.2362L104.031 6.76649L199.644 62.3308L150.274 71.8005Z" fill="#4A4C5C"/>
<path d="M150.263 68.1304L54.65 12.5661L107.434 2.46505L203.048 58.0294L150.263 68.1304Z" fill="#9AD898"/>
<path d="M100.984 119.292L5.37091 63.7277L54.6604 16.2362L150.274 71.8005L100.984 119.292Z" fill="#4C4F5F"/>
<path d="M101.138 182.688L5.57089 127.149L5.36279 63.7503L100.982 119.289L101.138 182.688Z" fill="#E4E8F4"/>
<path d="M199.829 125.744L101.138 182.688L100.982 119.289L150.275 71.818L199.621 62.3448L199.829 125.744Z" fill="#D4DAE8"/>
<path d="M199.673 62.3448V82.8009L101.034 139.694V119.289L150.327 71.818L199.673 62.3448Z" fill="#BAC1CE"/>
<path d="M98.5237 121.647L2.91047 66.0829L1.95386 63.3643L97.5671 118.929L98.5237 121.647Z" fill="#9AD898"/>
<path d="M97.5671 118.929L1.95386 63.3643L54.65 12.5661L150.263 68.1304L97.5671 118.929Z" fill="#75CA75"/>
<path d="M150.263 68.1304L203.048 58.0294L202.11 61.8419L150.274 71.8005L98.5237 121.647L97.5671 118.929L150.263 68.1304Z" fill="#6EBA6E"/>
<path d="M192.57 105.518L191.416 106.185L191.495 129.24L192.654 129.884L192.57 105.518Z" fill="#E4E8F4"/>
<path d="M191.495 129.24L177.936 137.069L177.94 138.379L192.654 129.884L191.495 129.24Z" fill="#4C7891"/>
<path d="M169.337 118.932L168.183 119.598L168.262 142.654L169.422 143.297L169.337 118.932Z" fill="#E4E8F4"/>
<path d="M168.262 142.654L154.703 150.483L154.707 151.793L169.422 143.297L168.262 142.654Z" fill="#4C7891"/>
<path d="M144.949 133.012L145.03 156.068L146.189 156.711L146.104 132.346L144.949 133.012Z" fill="#E4E8F4"/>
<path d="M131.47 163.896L131.474 165.206L146.189 156.711L145.03 156.068L131.47 163.896Z" fill="#4C7891"/>
<path d="M122.901 145.742L121.746 146.408L121.826 169.463L122.985 170.108L122.901 145.742Z" fill="#E4E8F4"/>
<path d="M121.826 169.463L108.237 177.309L108.241 178.62L122.985 170.107L121.826 169.463Z" fill="#4C7891"/>
<path d="M191.398 129.296L177.882 121.442L177.936 137.069L191.398 129.296Z" fill="#4C7891"/>
<path d="M191.495 129.24L191.416 106.185L177.856 114.014L177.882 121.442L191.398 129.296L191.495 129.24Z" fill="#37617B"/>
<path d="M154.703 150.483L168.211 142.684L154.649 134.802L154.703 150.483Z" fill="#4C7891"/>
<path d="M168.183 119.598L154.623 127.428L154.649 134.802L168.211 142.684L168.262 142.654L168.183 119.598Z" fill="#37617B"/>
<path d="M144.949 133.012L131.39 140.841L131.415 148.163L145.023 156.072L145.03 156.068L144.949 133.012Z" fill="#37617B"/>
<path d="M131.47 163.896L145.023 156.072L131.415 148.163L131.47 163.896Z" fill="#4C7891"/>
<path d="M108.237 177.309L121.826 169.463V169.452L108.182 161.523L108.237 177.309Z" fill="#4C7891"/>
<path d="M108.157 154.254L108.182 161.523L121.826 169.452L121.746 146.408L108.157 154.254Z" fill="#37617B"/>
<path d="M22.8292 95.7211L24.0072 95.0366L24.0533 85.4807L22.8753 86.1652L22.8292 95.7211Z" fill="#CAD0DD"/>
<path d="M22.8755 86.1652L24.0535 85.4807L9.90577 77.3125L8.72778 77.997L22.8755 86.1652Z" fill="white"/>
<path d="M8.72761 77.9971L8.68152 87.553L22.8292 95.7211L22.8753 86.1652L8.72761 77.9971Z" fill="#D4DAE8"/>
<path d="M11.0596 86.2594L11.1204 80.4238L9.63286 79.5738L9.60266 87.0183L11.0596 86.2594Z" fill="#CAD0DD"/>
<path d="M11.0596 86.2594L9.60266 87.0183L21.9266 94.1515V92.5124L11.0596 86.2594Z" fill="white"/>
<path d="M11.1204 80.4238L11.0596 86.2594L21.9266 92.5124L21.9568 86.6768L11.1204 80.4238Z" fill="#748BFD"/>
<path d="M36.9769 103.889L38.1549 103.205L38.201 93.6488L37.023 94.3334L36.9769 103.889Z" fill="#E4E8F4"/>
<path d="M37.023 94.3334L38.201 93.6488L24.0533 85.4807L22.8753 86.1652L37.023 94.3334Z" fill="white"/>
<path d="M22.8753 86.1652L22.8292 95.7211L36.9769 103.889L37.023 94.3334L22.8753 86.1652Z" fill="#D4DAE8"/>
<path d="M25.2073 94.4276L25.2681 88.592L23.7806 87.742L23.7504 95.1864L25.2073 94.4276Z" fill="#CAD0DD"/>
<path d="M25.2073 94.4276L23.7504 95.1864L36.0743 102.32V100.681L25.2073 94.4276Z" fill="white"/>
<path d="M25.2681 88.592L25.2073 94.4276L36.0743 100.681L36.1045 94.845L25.2681 88.592Z" fill="#748BFD"/>
<path d="M51.0712 111.986L52.2492 111.301L52.2953 101.745L51.1173 102.43L51.0712 111.986Z" fill="#CAD0DD"/>
<path d="M51.1174 102.43L52.2954 101.745L38.1477 93.5772L36.9697 94.2617L51.1174 102.43Z" fill="white"/>
<path d="M36.9696 94.2617L36.9235 103.818L51.0712 111.986L51.1173 102.43L36.9696 94.2617Z" fill="#D4DAE8"/>
<path d="M39.3016 102.524L39.3624 96.6885L37.8748 95.8385L37.8446 103.283L39.3016 102.524Z" fill="#CAD0DD"/>
<path d="M39.3016 102.524L37.8446 103.283L50.1686 110.416V108.777L39.3016 102.524Z" fill="white"/>
<path d="M39.3624 96.6885L39.3016 102.524L50.1686 108.777L50.1988 102.942L39.3624 96.6885Z" fill="#748BFD"/>
<path d="M65.2189 120.154L66.3969 119.469L66.443 109.914L65.265 110.598L65.2189 120.154Z" fill="#E4E8F4"/>
<path d="M65.265 110.598L66.443 109.914L52.2953 101.745L51.1173 102.43L65.265 110.598Z" fill="white"/>
<path d="M51.1173 102.43L51.0712 111.986L65.2189 120.154L65.265 110.598L51.1173 102.43Z" fill="#D4DAE8"/>
<path d="M53.4493 110.692L53.5101 104.857L52.0225 104.007L51.9923 111.451L53.4493 110.692Z" fill="#CAD0DD"/>
<path d="M53.4493 110.692L51.9923 111.451L64.3163 118.584V116.945L53.4493 110.692Z" fill="white"/>
<path d="M53.5101 104.857L53.4493 110.692L64.3163 116.945L64.3465 111.11L53.5101 104.857Z" fill="#748BFD"/>
<path d="M79.3132 128.251L80.4912 127.566L80.5372 118.01L79.3593 118.695L79.3132 128.251Z" fill="#CAD0DD"/>
<path d="M79.3594 118.695L80.5374 118.01L66.3897 109.842L65.2117 110.526L79.3594 118.695Z" fill="white"/>
<path d="M65.2116 110.526L65.1655 120.082L79.3132 128.251L79.3593 118.695L65.2116 110.526Z" fill="#D4DAE8"/>
<path d="M67.5436 118.789L67.6043 112.953L66.1168 112.103L66.0866 119.548L67.5436 118.789Z" fill="#CAD0DD"/>
<path d="M67.5436 118.789L66.0866 119.548L78.4106 126.681V125.042L67.5436 118.789Z" fill="white"/>
<path d="M67.6043 112.953L67.5436 118.789L78.4106 125.042L78.4408 119.206L67.6043 112.953Z" fill="#748BFD"/>
<path d="M93.4609 136.419L94.6389 135.734L94.685 126.178L93.507 126.863L93.4609 136.419Z" fill="#E4E8F4"/>
<path d="M93.507 126.863L94.6849 126.178L80.5372 118.01L79.3593 118.695L93.507 126.863Z" fill="white"/>
<path d="M79.3593 118.695L79.3132 128.251L93.4609 136.419L93.507 126.863L79.3593 118.695Z" fill="#D4DAE8"/>
<path d="M81.6913 126.957L81.752 121.121L80.2645 120.271L80.2343 127.716L81.6913 126.957Z" fill="#CAD0DD"/>
<path d="M81.6913 126.957L80.2343 127.716L92.5583 134.849V133.21L81.6913 126.957Z" fill="white"/>
<path d="M81.7521 121.121L81.6913 126.957L92.5583 133.21L92.5885 127.374L81.7521 121.121Z" fill="#748BFD"/>
<path d="M170.97 91.6339L169.587 90.8306L169.533 79.6166L170.916 80.4199L170.97 91.6339Z" fill="#CAD0DD"/>
<path d="M170.916 80.4199L169.533 79.6166L186.136 70.0311L187.518 70.8344L170.916 80.4199Z" fill="white"/>
<path d="M187.518 70.8344L187.572 82.0484L170.97 91.6339L170.916 80.4199L187.518 70.8344Z" fill="#D4DAE8"/>
<path d="M184.782 80.5304L184.71 73.6823L186.456 72.6848L186.491 81.421L184.782 80.5304Z" fill="#CAD0DD"/>
<path d="M184.782 80.5304L186.491 81.421L172.029 89.792V87.8685L184.782 80.5304Z" fill="white"/>
<path d="M184.71 73.6823L184.782 80.5304L172.029 87.8685L171.994 81.0203L184.71 73.6823Z" fill="#748BFD"/>
<path d="M154.367 101.219L152.985 100.416L152.931 89.2021L154.313 90.0054L154.367 101.219Z" fill="#E4E8F4"/>
<path d="M154.313 90.0054L152.931 89.2021L169.533 79.6166L170.916 80.4199L154.313 90.0054Z" fill="white"/>
<path d="M170.916 80.4199L170.97 91.6339L154.367 101.219L154.313 90.0054L170.916 80.4199Z" fill="#D4DAE8"/>
<path d="M168.179 90.1159L168.108 83.2678L169.853 82.2702L169.889 91.0065L168.179 90.1159Z" fill="#CAD0DD"/>
<path d="M168.179 90.1159L169.889 91.0064L155.427 99.3774V97.4539L168.179 90.1159Z" fill="white"/>
<path d="M168.108 83.2677L168.179 90.1159L155.427 97.4539L155.391 90.6058L168.108 83.2677Z" fill="#748BFD"/>
<path d="M137.828 110.721L136.445 109.917L136.391 98.7034L137.773 99.5068L137.828 110.721Z" fill="#CAD0DD"/>
<path d="M137.773 99.5068L136.391 98.7034L152.994 89.118L154.376 89.9213L137.773 99.5068Z" fill="white"/>
<path d="M154.376 89.9213L154.43 101.135L137.828 110.721L137.773 99.5068L154.376 89.9213Z" fill="#D4DAE8"/>
<path d="M151.639 99.6173L151.568 92.7691L153.314 91.7716L153.349 100.508L151.639 99.6173Z" fill="#CAD0DD"/>
<path d="M151.639 99.6173L153.349 100.508L138.887 108.879V106.955L151.639 99.6173Z" fill="white"/>
<path d="M151.568 92.7691L151.639 99.6173L138.887 106.955L138.851 100.107L151.568 92.7691Z" fill="#748BFD"/>
<path d="M121.225 120.306L119.843 119.503L119.789 108.289L121.171 109.092L121.225 120.306Z" fill="#E4E8F4"/>
<path d="M121.171 109.092L119.789 108.289L136.391 98.7034L137.773 99.5068L121.171 109.092Z" fill="white"/>
<path d="M137.773 99.5068L137.828 110.721L121.225 120.306L121.171 109.092L137.773 99.5068Z" fill="#D4DAE8"/>
<path d="M135.037 109.203L134.965 102.355L136.711 101.357L136.747 110.093L135.037 109.203Z" fill="#CAD0DD"/>
<path d="M135.037 109.203L136.747 110.093L122.284 118.464V116.541L135.037 109.203Z" fill="white"/>
<path d="M134.965 102.355L135.037 109.203L122.284 116.541L122.249 109.693L134.965 102.355Z" fill="#748BFD"/>
<path d="M159.306 139.678L161.784 138.247L155.856 134.806L156.867 134.221L162.795 137.661L165.271 136.234L159.345 132.79L154.623 135.516V136.956L159.306 139.678Z" fill="#FED57A"/>
<path d="M159.306 139.678L154.623 136.956V143.525L159.325 146.258L159.306 139.678Z" fill="#EFAC41"/>
<path d="M162.795 139.677L162.295 139.467L161.784 140.222V138.247L159.306 139.678L159.325 146.258L165.289 142.814L165.271 136.234L162.795 137.663V139.677ZM161.02 142.426L161.012 141.751L163.576 140.271L163.583 140.946L161.02 142.426Z" fill="#F9BB4A"/>
<path d="M161.012 141.751L161.02 142.426L163.583 140.946L163.576 140.271L161.012 141.751Z" fill="#4C7891"/>
<path d="M162.295 139.467L162.795 139.677V137.663L161.784 138.247V140.222L162.295 139.467Z" fill="#F34858"/>
<path d="M156.867 134.221L155.856 134.806L161.784 138.247L162.795 137.661L156.867 134.221Z" fill="#F9607F"/>
<path d="M135.107 148.954L136.995 147.865L132.477 145.24L131.415 145.853V146.811L135.107 148.954Z" fill="#FED57A"/>
<path d="M131.415 149.89L132.447 150.49L134.337 149.4L131.415 147.704V149.89Z" fill="#FED57A"/>
<path d="M131.415 149.89V154.899L132.462 155.507L132.447 150.49L131.415 149.89Z" fill="#EFAC41"/>
<path d="M133.754 152.586L133.748 152.071L135.702 150.943L135.703 150.965L137.001 150.215L136.995 147.865L135.107 148.955V150.49L134.726 150.33L134.337 150.906V149.4L132.447 150.49L132.462 155.507L134.489 154.337L134.483 152.166L133.754 152.586Z" fill="#F9BB4A"/>
<path d="M135.703 150.965L135.702 150.943L133.748 152.071L133.754 152.586L134.482 152.166L134.481 151.67L135.703 150.965Z" fill="#4C7891"/>
<path d="M134.337 149.4V150.906L134.726 150.33L135.107 150.49V148.955L134.384 149.372L134.337 149.4Z" fill="#F34858"/>
<path d="M135.107 148.954L131.415 146.811V147.704L134.337 149.4L134.384 149.372L135.107 148.954Z" fill="#F9607F"/>
<path d="M137.003 150.95L137.009 152.882L136.787 153.01L138.999 154.296L140.888 153.205L137.003 150.95Z" fill="#FED57A"/>
<path d="M137.139 150.136L141.659 152.758L143.546 151.67L139.028 149.045L137.001 150.215L137.139 150.136Z" fill="#FED57A"/>
<path d="M135.708 151.458L134.91 151.919L136.787 153.01L137.009 152.882L137.003 150.95L136.369 150.582L137.001 150.216L135.703 150.965L135.708 151.458Z" fill="#FED57A"/>
<path d="M135.703 150.965L134.481 151.67L134.91 151.919L135.708 151.458L135.703 150.965Z" fill="#FED57A"/>
<path d="M136.787 153.01L134.489 154.337L134.496 156.687L139.013 159.312L138.999 154.296L136.787 153.01Z" fill="#EFAC41"/>
<path d="M134.91 151.919L134.483 152.166L134.489 154.337L136.787 153.01L134.91 151.919Z" fill="#EFAC41"/>
<path d="M134.482 152.166L134.91 151.919L134.481 151.67L134.482 152.166Z" fill="#EFAC41"/>
<path d="M143.546 151.67L141.659 152.76V154.295L141.278 154.135L140.888 154.71V153.205L138.999 154.296L139.013 159.312L143.56 156.687L143.546 151.67ZM140.306 156.391L140.3 155.876L142.254 154.748L142.259 155.263L140.306 156.391Z" fill="#F9BB4A"/>
<path d="M140.3 155.876L140.306 156.391L142.26 155.263L142.254 154.748L140.3 155.876Z" fill="#4C7891"/>
<path d="M140.888 154.71L141.278 154.135L141.659 154.295V152.76L140.888 153.205V154.71Z" fill="#F34858"/>
<path d="M141.659 152.758L137.139 150.136L137.001 150.216L137.003 150.95L140.888 153.205L141.659 152.758Z" fill="#F9607F"/>
<path d="M136.369 150.582L137.003 150.95L137.001 150.216L136.369 150.582Z" fill="#F9607F"/>
<path d="M154.738 238.334C154.738 240.296 155.444 241.682 156.569 242.336L163.945 246.625C162.82 245.971 162.114 244.585 162.114 242.597C162.088 238.648 164.886 233.809 168.339 231.821C170.065 230.827 171.661 230.723 172.785 231.377L165.41 227.113C164.285 226.433 162.716 226.538 160.963 227.532C157.511 229.52 154.738 234.358 154.738 238.334Z" fill="#363A44"/>
<path d="M170.777 229.067C170.777 231.029 171.484 232.415 172.608 233.069L179.984 237.358C178.86 236.704 178.153 235.318 178.153 233.33C178.127 229.381 180.926 224.542 184.378 222.554C186.104 221.56 187.7 221.456 188.825 222.11L181.449 217.846C180.324 217.166 178.755 217.271 177.002 218.265C173.55 220.253 170.777 225.091 170.777 229.067Z" fill="#363A44"/>
<path d="M227.477 196.328C227.477 198.29 228.183 199.676 229.308 200.33L236.683 204.62C235.559 203.966 234.852 202.579 234.852 200.592C234.826 196.642 237.625 191.803 241.077 189.816C242.804 188.822 244.399 188.717 245.524 189.371L238.148 185.108C237.023 184.428 235.454 184.532 233.702 185.526C230.249 187.514 227.477 192.353 227.477 196.328Z" fill="#363A44"/>
<path d="M216.656 210.039L187.756 193.244L187.74 187.399L216.64 204.194L216.656 210.039Z" fill="#F9607F"/>
<path d="M230.728 201.914L201.828 185.12L201.743 155.026L230.643 171.821L230.728 201.914Z" fill="#F9607F"/>
<path d="M216.64 204.194L187.74 187.399L197.006 182.05L225.906 198.844L216.64 204.194Z" fill="#525566"/>
<path d="M243.831 164.119C243.567 163.973 243.318 163.856 243.07 163.768C242.689 163.607 242.22 163.68 241.722 163.973L231.852 169.67L202.943 152.887L212.814 147.176C213.312 146.897 213.78 146.81 214.161 146.971C214.425 147.059 214.674 147.176 214.923 147.322L243.831 164.119Z" fill="#FED57A"/>
<path d="M202.604 153.154C202.714 153.046 202.827 152.955 202.945 152.881L231.845 169.676C231.727 169.75 231.614 169.84 231.504 169.949C221.87 164.351 212.237 158.753 202.604 153.154Z" fill="#F9607F"/>
<path d="M201.836 154.432C211.469 160.03 221.102 165.628 230.736 171.226C230.683 171.416 230.65 171.614 230.643 171.821L201.743 155.026C201.751 154.819 201.783 154.621 201.836 154.432Z" fill="#F9607F"/>
<path d="M202.604 153.154C212.237 158.753 221.87 164.351 231.504 169.949C231.345 170.105 231.192 170.298 231.039 170.538C221.406 164.94 211.773 159.341 202.14 153.743C202.292 153.504 202.445 153.31 202.604 153.154Z" fill="#F9607F"/>
<path d="M241.718 163.973C242.214 163.687 242.682 163.611 243.067 163.765C245.851 164.773 248.523 169.17 251.18 174.61C251.726 175.747 252.011 177.133 252.015 178.712L252.046 189.606L230.728 201.914L230.643 171.821C230.659 171.374 230.791 170.97 230.998 170.605C231.27 170.162 231.544 169.867 231.845 169.676L241.718 163.973Z" fill="#F9BB4A"/>
<path d="M202.098 153.81C202.112 153.787 202.126 153.765 202.14 153.743C211.773 159.341 221.406 164.94 231.039 170.538C231.026 170.56 231.012 170.582 230.998 170.605C222.328 165.566 210.768 158.848 202.098 153.81Z" fill="#F9607F"/>
<path d="M201.836 154.432C201.897 154.213 201.987 154.006 202.098 153.81L230.998 170.605C230.887 170.801 230.797 171.008 230.736 171.226C221.102 165.628 211.469 160.03 201.836 154.432Z" fill="#F9607F"/>
<path d="M144.766 245.69L115.866 228.895L187.74 187.399L216.64 204.194L144.766 245.69Z" fill="#F9607F"/>
<path d="M239.101 163.958C238.442 163.577 237.636 163.504 236.597 163.914L227.092 169.406C226.389 169.816 225.833 170.797 225.833 171.603L225.906 198.841L197.012 182.044L196.925 154.805C196.925 154 197.481 153.019 198.184 152.609L207.688 147.117C208.728 146.707 209.533 146.78 210.207 147.161L239.101 163.958Z" fill="#5B5E71"/>
<path d="M236.595 163.918C238.223 163.269 239.292 163.814 240.11 164.902L231.91 169.636C231.544 169.867 231.27 170.162 231.061 170.499C230.791 170.968 230.659 171.372 230.644 171.745L230.728 201.914L216.656 210.039L216.64 204.194L225.906 198.844L225.828 171.598C225.826 170.792 226.385 169.813 227.086 169.408L236.595 163.918Z" fill="#525566"/>
<path d="M222.642 167.712L222.736 200.674L144.055 246.101L143.962 213.138L222.642 167.712Z" fill="#F34858"/>
<path d="M144.783 251.535L115.883 234.74L115.866 228.895L144.766 245.69L144.783 251.535Z" fill="#525566"/>
<path d="M216.64 204.194L216.656 210.039L144.783 251.535L144.766 245.69L216.64 204.194Z" fill="#525566"/>
<path d="M144.053 245.276L115.153 228.481L115.062 196.343L143.962 213.138L144.053 245.276Z" fill="#FA5168"/>
<path d="M117.501 199.571L116.631 199.065L116.712 227.582L117.579 226.999L117.501 199.571Z" fill="#F34858"/>
<path d="M142.484 242.557L142.481 241.469L117.579 226.999L116.712 227.582L142.484 242.557Z" fill="#F9607F"/>
<path d="M143.962 213.138L115.062 196.343L193.743 150.917L222.643 167.712L143.962 213.138Z" fill="#F9607F"/>
<path d="M117.501 199.571L117.579 226.999L117.599 227.01L141.238 213.362L117.501 199.571Z" fill="#474B59"/>
<path d="M142.405 214.04L141.238 213.362L117.599 227.01L142.481 241.469L142.405 214.04Z" fill="#5B5E71"/>
<path d="M242.542 167.224C242.417 167.113 242.235 167.138 242.029 167.238C243.921 169.041 246.077 172.167 248.293 175.733C248.542 176.128 248.205 176.934 247.708 177.226L242.593 180.167C242.33 180.314 242.081 180.285 241.978 180.08L240.822 177.956C240.704 177.737 240.47 177.692 240.206 177.854L233.243 181.965L233.243 182.074C233.243 182.322 233.419 182.439 233.653 182.308L239.628 178.779C239.892 178.617 240.126 178.662 240.243 178.881L241.4 181.004C241.503 181.21 241.752 181.238 242.015 181.092L248.4 177.402C248.898 177.109 249.235 176.304 248.986 175.908C246.702 172.233 244.476 168.996 242.542 167.224Z" fill="#FED57A"/>
<path d="M240.821 177.956L241.978 180.08C242.081 180.285 242.33 180.314 242.593 180.167L247.707 177.226C248.205 176.934 248.542 176.128 248.293 175.733C246.077 172.167 243.921 169.041 242.029 167.238C242.018 167.244 242.012 167.232 242 167.239L233.624 172.071C233.389 172.202 233.214 172.51 233.214 172.774L233.243 181.965L240.206 177.854C240.47 177.692 240.704 177.737 240.821 177.956Z" fill="#576CFB"/>
<path d="M232.967 200.575L249.006 191.337C248.307 188.409 246.097 187.068 243.886 187.068C242.677 187.068 241.412 187.446 240.127 188.182C236.122 190.506 232.967 195.928 232.967 200.575Z" fill="#EFAC41"/>
<path d="M241.075 189.819C237.635 191.805 234.838 196.649 234.85 200.602C234.861 204.574 237.675 206.178 241.115 204.192C244.572 202.196 247.369 197.352 247.357 193.38C247.346 189.427 244.531 187.824 241.075 189.819Z" fill="#525566"/>
<path d="M245.924 194.37C245.933 197.436 243.795 201.164 241.134 202.701C238.443 204.262 236.284 203.032 236.283 199.936C236.274 196.884 238.427 193.167 241.102 191.622C243.756 190.098 245.915 191.329 245.924 194.37ZM242 192.125C242.023 192.639 242.046 193.119 242.069 193.591C242.077 193.896 242.078 194.214 242.094 194.514C242.12 194.84 242.278 194.972 242.521 194.831C242.552 194.813 242.585 194.791 242.619 194.763C243.309 194.206 243.985 193.623 244.704 193.016C244.09 192.082 243.222 191.796 242 192.125ZM240.108 195.568C240.135 194.8 240.162 194.031 240.197 193.258L240.16 193.204C238.961 194.256 238.091 195.553 237.491 197.18C237.957 197.045 238.393 196.918 238.83 196.783C239.012 196.729 239.201 196.67 239.39 196.602C239.481 196.574 239.562 196.539 239.634 196.498C239.94 196.321 240.086 196.021 240.108 195.568ZM238.19 202.049C238.479 201.304 238.761 200.598 239.028 199.891C239.173 199.506 239.078 199.293 238.837 199.315C238.277 199.363 237.694 199.481 237.076 199.571C237.123 200.774 237.482 201.57 238.19 202.049ZM243.318 197.423C243.413 197.594 243.537 197.723 243.647 197.877C243.801 198.073 243.954 198.269 244.13 198.486C244.796 197.222 245.099 196.06 245.117 194.869C244.565 195.456 244.064 195.979 243.57 196.515C243.273 196.838 243.179 197.185 243.318 197.423ZM241.1 201.808C241.609 201.514 242.122 201.102 242.657 200.566C242.205 200.3 241.796 200.017 241.344 199.826C241.312 199.813 241.253 199.834 241.184 199.873C241.049 199.951 240.878 200.104 240.806 200.228C240.415 200.898 240.075 201.597 239.698 202.325C240.171 202.247 240.634 202.077 241.1 201.808ZM241.107 195.971C241.103 195.973 241.099 195.975 241.095 195.978C240.533 196.302 240.047 197.148 240.064 197.795C240.073 198.438 240.54 198.692 241.101 198.368C241.105 198.366 241.11 198.363 241.114 198.36C241.681 198.033 242.145 197.221 242.143 196.569C242.141 195.926 241.667 195.648 241.107 195.971ZM241.097 194.805C240.937 194.898 240.806 195.132 240.807 195.316C240.815 195.495 240.939 195.566 241.099 195.474C241.259 195.381 241.389 195.155 241.389 194.972C241.388 194.796 241.257 194.721 241.097 194.805ZM241.886 198.492C241.894 198.671 242.026 198.738 242.178 198.65C242.338 198.557 242.469 198.331 242.468 198.148C242.468 197.972 242.336 197.897 242.176 197.99C242.172 197.992 242.169 197.994 242.165 197.996C242.017 198.082 241.886 198.313 241.886 198.492ZM239.344 198.11C239.496 198.022 239.627 197.796 239.626 197.613C239.626 197.437 239.494 197.362 239.342 197.45C239.338 197.453 239.334 197.455 239.33 197.457C239.175 197.546 239.044 197.777 239.052 197.953C239.052 198.136 239.184 198.203 239.344 198.11ZM242.928 196.041C243.088 195.949 243.211 195.727 243.211 195.543C243.21 195.368 243.079 195.293 242.926 195.381C242.922 195.383 242.918 195.385 242.914 195.387C242.76 195.477 242.636 195.704 242.636 195.883C242.644 196.063 242.768 196.133 242.928 196.041ZM239.923 199.625C239.931 199.805 240.055 199.876 240.215 199.783C240.375 199.691 240.498 199.469 240.498 199.285C240.497 199.11 240.366 199.035 240.213 199.123C240.209 199.125 240.205 199.127 240.201 199.13C240.047 199.219 239.923 199.446 239.923 199.625Z" fill="#CAD0DD"/>
<path d="M176.268 233.314L192.307 224.076C191.608 221.148 189.398 219.807 187.187 219.807C185.978 219.807 184.712 220.184 183.428 220.921C179.423 223.245 176.268 228.667 176.268 233.314Z" fill="#474B59"/>
<path d="M184.376 222.558C180.936 224.544 178.139 229.388 178.15 233.34C178.162 237.312 180.976 238.917 184.416 236.93C187.873 234.935 190.669 230.091 190.658 226.119C190.647 222.166 187.832 220.562 184.376 222.558Z" fill="#525566"/>
<path d="M189.225 227.109C189.234 230.175 187.096 233.903 184.435 235.439C181.744 237.001 179.585 235.77 179.584 232.675C179.575 229.622 181.728 225.906 184.403 224.361C187.057 222.837 189.216 224.067 189.225 227.109ZM185.3 224.864C185.324 225.377 185.347 225.858 185.37 226.33C185.378 226.635 185.379 226.952 185.395 227.253C185.421 227.578 185.579 227.71 185.821 227.57C185.853 227.552 185.886 227.53 185.92 227.502C186.61 226.945 187.286 226.362 188.005 225.754C187.39 224.82 186.523 224.534 185.3 224.864ZM183.409 228.307C183.436 227.538 183.463 226.77 183.497 225.997L183.461 225.942C182.262 226.994 181.392 228.292 180.792 229.919C181.258 229.784 181.694 229.657 182.131 229.522C182.313 229.467 182.502 229.408 182.691 229.341C182.782 229.313 182.863 229.278 182.935 229.236C183.241 229.06 183.387 228.76 183.409 228.307ZM181.49 234.788C181.78 234.043 182.062 233.336 182.329 232.63C182.474 232.245 182.378 232.032 182.138 232.054C181.577 232.101 180.995 232.22 180.376 232.309C180.424 233.512 180.783 234.309 181.49 234.788ZM186.619 230.161C186.714 230.332 186.838 230.461 186.948 230.616C187.102 230.812 187.255 231.007 187.43 231.224C188.097 229.961 188.399 228.799 188.418 227.608C187.866 228.194 187.365 228.718 186.871 229.254C186.574 229.577 186.48 229.924 186.619 230.161ZM184.4 234.546C184.91 234.252 185.423 233.841 185.958 233.305C185.506 233.038 185.097 232.756 184.645 232.565C184.613 232.552 184.554 232.572 184.485 232.612C184.35 232.69 184.179 232.842 184.107 232.967C183.716 233.637 183.375 234.335 182.999 235.063C183.472 234.986 183.934 234.816 184.4 234.546ZM184.408 228.709C184.404 228.712 184.4 228.714 184.396 228.717C183.834 229.041 183.348 229.887 183.365 230.534C183.374 231.176 183.84 231.431 184.402 231.107C184.406 231.104 184.41 231.102 184.415 231.099C184.982 230.772 185.446 229.96 185.444 229.308C185.442 228.665 184.968 228.386 184.408 228.709ZM184.398 227.544C184.238 227.636 184.107 227.871 184.108 228.054C184.116 228.234 184.24 228.305 184.4 228.212C184.559 228.12 184.69 227.894 184.689 227.71C184.689 227.535 184.558 227.46 184.398 227.544ZM185.187 231.231C185.195 231.41 185.326 231.477 185.479 231.388C185.639 231.296 185.77 231.07 185.769 230.886C185.768 230.711 185.637 230.636 185.477 230.728C185.473 230.73 185.47 230.733 185.466 230.735C185.318 230.82 185.187 231.051 185.187 231.231ZM182.645 230.849C182.797 230.761 182.928 230.535 182.927 230.351C182.927 230.176 182.795 230.101 182.643 230.189C182.639 230.191 182.635 230.193 182.631 230.196C182.476 230.285 182.345 230.516 182.353 230.691C182.353 230.875 182.485 230.942 182.645 230.849ZM186.229 228.78C186.389 228.687 186.512 228.465 186.512 228.282C186.511 228.106 186.38 228.031 186.227 228.12C186.223 228.122 186.219 228.124 186.215 228.126C186.061 228.215 185.937 228.442 185.937 228.622C185.945 228.801 186.069 228.872 186.229 228.78ZM183.224 232.364C183.232 232.544 183.356 232.614 183.516 232.522C183.676 232.43 183.799 232.208 183.799 232.024C183.798 231.849 183.667 231.774 183.514 231.862C183.51 231.864 183.506 231.866 183.502 231.868C183.348 231.958 183.224 232.185 183.224 232.364Z" fill="#CAD0DD"/>
<path d="M160.228 242.581L176.268 233.343C175.569 230.415 173.358 229.073 171.148 229.073C169.939 229.073 168.673 229.451 167.389 230.188C163.383 232.512 160.228 237.934 160.228 242.581Z" fill="#474B59"/>
<path d="M168.336 231.825C164.896 233.811 162.1 238.654 162.111 242.607C162.122 246.579 164.937 248.183 168.377 246.197C171.834 244.202 174.63 239.358 174.619 235.386C174.608 231.433 171.793 229.829 168.336 231.825Z" fill="#525566"/>
<path d="M173.186 236.375C173.194 239.442 171.056 243.17 168.395 244.706C165.705 246.268 163.546 245.037 163.544 241.942C163.536 238.889 165.688 235.172 168.364 233.628C171.018 232.104 173.177 233.334 173.186 236.375ZM169.261 234.131C169.284 234.644 169.308 235.125 169.331 235.597C169.339 235.902 169.34 236.219 169.355 236.52C169.382 236.845 169.54 236.977 169.782 236.837C169.813 236.819 169.846 236.796 169.88 236.769C170.571 236.212 171.246 235.629 171.966 235.021C171.351 234.087 170.484 233.801 169.261 234.131ZM167.37 237.574C167.397 236.805 167.424 236.037 167.458 235.264L167.422 235.209C166.223 236.261 165.353 237.559 164.753 239.186C165.218 239.051 165.655 238.924 166.092 238.789C166.274 238.734 166.463 238.675 166.652 238.608C166.742 238.58 166.824 238.545 166.896 238.503C167.201 238.327 167.348 238.027 167.37 237.574ZM165.451 244.054C165.74 243.31 166.022 242.603 166.29 241.897C166.434 241.512 166.339 241.299 166.099 241.321C165.538 241.368 164.956 241.487 164.337 241.576C164.384 242.779 164.743 243.576 165.451 244.054ZM170.58 239.428C170.675 239.599 170.799 239.728 170.909 239.883C171.062 240.078 171.216 240.274 171.391 240.491C172.058 239.228 172.36 238.065 172.379 236.875C171.827 237.461 171.326 237.985 170.832 238.521C170.534 238.843 170.441 239.19 170.58 239.428ZM168.361 243.813C168.871 243.519 169.384 243.108 169.919 242.572C169.466 242.305 169.058 242.022 168.606 241.832C168.574 241.819 168.515 241.839 168.446 241.879C168.311 241.957 168.14 242.109 168.068 242.234C167.676 242.904 167.336 243.602 166.959 244.33C167.432 244.253 167.895 244.082 168.361 243.813ZM168.369 237.976C168.365 237.979 168.361 237.981 168.357 237.983C167.795 238.308 167.309 239.154 167.325 239.801C167.334 240.443 167.801 240.698 168.362 240.374C168.367 240.371 168.371 240.369 168.376 240.366C168.943 240.038 169.407 239.227 169.405 238.575C169.403 237.932 168.929 237.653 168.369 237.976ZM168.358 236.811C168.198 236.903 168.068 237.138 168.068 237.321C168.076 237.501 168.2 237.572 168.36 237.479C168.52 237.387 168.651 237.161 168.65 236.977C168.65 236.802 168.518 236.727 168.358 236.811ZM169.148 240.497C169.156 240.677 169.287 240.744 169.44 240.655C169.6 240.563 169.73 240.337 169.73 240.153C169.729 239.978 169.598 239.903 169.438 239.995C169.434 239.997 169.43 239.999 169.426 240.002C169.278 240.087 169.148 240.318 169.148 240.497ZM166.605 240.116C166.758 240.028 166.888 239.802 166.888 239.618C166.887 239.443 166.756 239.368 166.603 239.456C166.599 239.458 166.595 239.46 166.591 239.463C166.437 239.552 166.306 239.783 166.313 239.958C166.314 240.142 166.445 240.208 166.605 240.116ZM170.19 238.047C170.35 237.954 170.473 237.732 170.472 237.549C170.472 237.373 170.341 237.298 170.188 237.386C170.184 237.389 170.18 237.391 170.176 237.393C170.022 237.482 169.898 237.709 169.898 237.889C169.906 238.068 170.03 238.139 170.19 238.047ZM167.185 241.631C167.193 241.81 167.317 241.881 167.477 241.789C167.637 241.696 167.76 241.475 167.759 241.291C167.759 241.115 167.627 241.041 167.475 241.129C167.471 241.131 167.467 241.133 167.463 241.135C167.308 241.225 167.184 241.452 167.185 241.631Z" fill="#CAD0DD"/>
<path d="M152.107 220.165L152.632 219.86L152.556 247.342L152.032 247.647L152.107 220.165Z" fill="#37617B"/>
<path d="M140.105 213.235L140.63 212.93L152.632 219.86L152.107 220.165L140.105 213.235Z" fill="#4C7891"/>
<path d="M152.107 220.165L152.032 247.647L140.03 240.717L140.105 213.235L152.107 220.165Z" fill="#416E84"/>
<path d="M117.359 200.116L117.884 199.811L117.808 226.871L117.283 227.176L117.359 200.116Z" fill="#37617B"/>
<path d="M105.333 193.173L105.858 192.868L117.884 199.811L117.359 200.116L105.333 193.173Z" fill="#4C7891"/>
<path d="M117.359 200.116L117.283 227.176L105.258 220.233L105.333 193.173L117.359 200.116Z" fill="#416E84"/>
<path d="M129.377 226.232L127.624 225.22L127.21 225.46L129.393 226.722L130.343 226.169L130.345 225.669L129.377 226.232Z" fill="#FED57A"/>
<path d="M126.319 224.945L126.732 224.705L124.552 223.447L124.138 223.687L126.319 224.945Z" fill="#FED57A"/>
<path d="M130.772 227.037L130.341 226.789L130.343 226.169L129.393 226.722L129.377 232.52L130.345 231.957L130.358 227.278L130.772 227.037Z" fill="#EFAC41"/>
<path d="M127.21 225.461V227.202L126.76 226.536L126.319 226.722V224.946L124.138 223.687L124.121 229.486L129.377 232.52L129.393 226.722L127.21 225.461ZM127.883 229.144L125.624 227.84L125.631 227.244L127.89 228.548L127.883 229.144Z" fill="#F9BB4A"/>
<path d="M125.624 227.84L127.883 229.144L127.89 228.548L125.631 227.244L125.624 227.84Z" fill="#4C7891"/>
<path d="M126.319 226.722L126.76 226.536L127.21 227.202V225.461L126.319 224.946V226.722Z" fill="#F34858"/>
<path d="M127.624 225.22L126.732 224.705L126.319 224.945L127.21 225.46L127.624 225.22Z" fill="#F9607F"/>
<path d="M134.599 229.247L134.598 229.486L134.39 229.606L135.613 230.313L140.065 227.726L140.067 227.225L135.597 229.824L134.599 229.247Z" fill="#FED57A"/>
<path d="M132.952 228.296L130.772 227.037L130.358 227.278L132.539 228.538L132.952 228.296Z" fill="#FED57A"/>
<path d="M134.599 229.247L133.844 228.811L133.43 229.052L134.39 229.606L134.598 229.486L134.599 229.247Z" fill="#FED57A"/>
<path d="M135.613 230.313L135.597 236.111L140.05 233.523L140.066 227.726L135.613 230.313Z" fill="#EFAC41"/>
<path d="M134.39 229.606L133.43 230.164V230.793L133.125 230.342L132.064 230.958L134.11 232.139L134.103 232.735L131.845 231.431L131.849 231.083L130.345 231.957L130.341 233.077L135.597 236.111L135.613 230.313L134.39 229.606Z" fill="#F9BB4A"/>
<path d="M131.851 230.835L132.064 230.958L133.125 230.342L132.98 230.127L132.539 230.312V228.538L130.358 227.278L130.345 231.957L131.849 231.083L131.851 230.835Z" fill="#F9BB4A"/>
<path d="M133.43 230.164L134.39 229.606L133.43 229.052V230.164Z" fill="#F9BB4A"/>
<path d="M131.845 231.431L134.103 232.735L134.11 232.139L132.064 230.958L131.849 231.083L131.845 231.431Z" fill="#4C7891"/>
<path d="M131.849 231.084L132.064 230.959L131.851 230.835L131.849 231.084Z" fill="#4C7891"/>
<path d="M133.43 230.793V230.164L133.125 230.342L133.43 230.793Z" fill="#F34858"/>
<path d="M132.539 228.538V230.312L132.98 230.127L133.125 230.342L133.43 230.164V229.052L132.539 228.538Z" fill="#F34858"/>
<path d="M132.539 228.536L133.43 229.052L133.844 228.811L132.952 228.296L132.539 228.536Z" fill="#F9607F"/>
<path d="M130.345 219.382L129.377 219.944L127.624 218.932L127.21 219.173L129.393 220.434L130.343 219.882L130.345 219.382Z" fill="#FED57A"/>
<path d="M126.319 218.657L126.732 218.418L124.552 217.159L124.138 217.399L126.319 218.657Z" fill="#FED57A"/>
<path d="M130.358 220.99L130.772 220.75L130.341 220.501L130.343 219.882L129.393 220.434L129.393 220.672L130.357 221.229L130.358 220.99Z" fill="#EFAC41"/>
<path d="M130.357 221.229L129.393 220.672L129.386 223.165L130.353 222.604L130.357 221.229Z" fill="#EFAC41"/>
<path d="M129.383 224.199L129.377 226.232L130.345 225.669L130.35 223.637L129.383 224.199Z" fill="#EFAC41"/>
<path d="M130.35 223.637L130.353 222.604L129.386 223.165L129.383 224.199L130.35 223.637Z" fill="#EFAC41"/>
<path d="M125.624 221.552L125.631 220.957L127.239 221.885L129.359 220.652L129.393 220.672L129.393 220.434L127.21 219.173V220.914L126.76 220.248L126.319 220.434V218.659L124.138 217.399L124.121 223.198L124.552 223.447L126.721 222.185L125.624 221.552Z" fill="#F9BB4A"/>
<path d="M127.624 225.22L129.377 226.232L129.382 224.199L127.624 225.22Z" fill="#F9BB4A"/>
<path d="M129.386 223.165L129.393 220.672L129.359 220.652L127.239 221.885L127.89 222.261L127.883 222.856L126.721 222.185L124.552 223.447L126.732 224.705L129.386 223.165Z" fill="#F9BB4A"/>
<path d="M129.382 224.199L129.386 223.165L126.732 224.705L127.624 225.22L129.382 224.199Z" fill="#F9BB4A"/>
<path d="M125.624 221.552L126.721 222.185L127.239 221.885L125.631 220.957L125.624 221.552Z" fill="#4C7891"/>
<path d="M127.883 222.856L127.89 222.261L127.239 221.885L126.721 222.185L127.883 222.856Z" fill="#4C7891"/>
<path d="M126.319 220.434L126.76 220.248L127.21 220.914V219.173L126.319 218.659V220.434Z" fill="#F34858"/>
<path d="M127.624 218.932L126.732 218.418L126.319 218.657L127.21 219.173L127.624 218.932Z" fill="#F9607F"/>
<path d="M134.599 222.96L134.598 223.198L134.39 223.318L135.613 224.025L140.083 221.427L140.084 220.928L135.597 223.536L134.599 222.96Z" fill="#FED57A"/>
<path d="M132.539 222.248L132.952 222.009L130.772 220.75L130.358 220.99L132.539 222.248Z" fill="#FED57A"/>
<path d="M133.43 222.764L134.39 223.318L134.598 223.198L134.599 222.96L133.844 222.523L133.43 222.764Z" fill="#FED57A"/>
<path d="M135.613 224.263L137.762 225.504L137.783 225.516L140.068 226.836L140.083 221.427L135.613 224.025L135.613 224.263Z" fill="#EFAC41"/>
<path d="M137.762 225.504L135.613 224.263L135.606 226.757L137.762 225.504Z" fill="#EFAC41"/>
<path d="M138.653 226.02L135.602 227.79L135.597 229.824L140.067 227.225L140.068 226.836L137.783 225.516L138.653 226.02Z" fill="#EFAC41"/>
<path d="M135.602 227.79L138.653 226.02L137.783 225.516L137.762 225.504L135.606 226.757L135.602 227.79Z" fill="#EFAC41"/>
<path d="M134.615 223.687L134.612 224.806L135.579 224.244L135.613 224.263L135.613 224.025L134.39 223.318L134.184 223.438L134.615 223.687Z" fill="#F9BB4A"/>
<path d="M133.43 224.376L134.615 223.687L134.184 223.438L133.43 223.876V224.376Z" fill="#F9BB4A"/>
<path d="M132.064 224.671L132.494 224.92L133.367 224.413L133.125 224.054L132.064 224.671Z" fill="#F9BB4A"/>
<path d="M131.845 225.143L131.849 224.796L130.345 225.669L130.343 226.169L131.978 225.22L131.845 225.143Z" fill="#F9BB4A"/>
<path d="M133.43 224.376V224.505L133.367 224.413L132.494 224.92L133.459 225.476L134.612 224.806L134.615 223.687L133.43 224.376Z" fill="#F9BB4A"/>
<path d="M131.977 225.22L130.343 226.169L130.341 226.789L130.772 227.037L132.942 225.776L131.977 225.22Z" fill="#F9BB4A"/>
<path d="M134.599 229.247L135.597 229.824L135.602 227.79L134.601 228.371L134.599 229.247Z" fill="#F9BB4A"/>
<path d="M134.612 224.807L134.604 227.338L135.606 226.757L135.613 224.263L135.579 224.244L134.612 224.807Z" fill="#F9BB4A"/>
<path d="M133.844 228.811L134.599 229.247L134.601 228.371L133.844 228.811Z" fill="#F9BB4A"/>
<path d="M134.604 227.338L134.612 224.807L133.459 225.476L134.11 225.852L134.103 226.447L132.942 225.776L130.772 227.037L132.952 228.296L134.604 227.338Z" fill="#F9BB4A"/>
<path d="M134.604 227.338L134.601 228.371L135.602 227.79L135.606 226.757L134.604 227.338Z" fill="#F9BB4A"/>
<path d="M134.604 227.338L132.952 228.296L133.844 228.811L134.601 228.371L134.604 227.338Z" fill="#F9BB4A"/>
<path d="M133.43 223.003L134.184 223.438L134.39 223.318L133.43 222.764V223.003Z" fill="#F9BB4A"/>
<path d="M131.543 221.913L131.563 221.925L132.539 222.489V222.25L130.358 220.99L130.357 221.229L131.543 221.913Z" fill="#F9BB4A"/>
<path d="M132.064 224.671L133.125 224.054L132.98 223.839L132.539 224.025V222.489L131.563 221.925L132.433 222.429L130.35 223.637L130.345 225.669L131.849 224.796L131.851 224.548L132.064 224.671Z" fill="#F9BB4A"/>
<path d="M130.357 221.229L130.353 222.604L131.543 221.913L130.357 221.229Z" fill="#F9BB4A"/>
<path d="M134.184 223.438L133.43 223.003V223.876L134.184 223.438Z" fill="#F9BB4A"/>
<path d="M131.563 221.925L131.543 221.913L130.353 222.604L130.35 223.637L132.433 222.429L131.563 221.925Z" fill="#F9BB4A"/>
<path d="M132.064 224.671L131.849 224.796L131.845 225.143L131.977 225.22L132.494 224.92L132.064 224.671Z" fill="#4C7891"/>
<path d="M131.977 225.22L132.942 225.776L133.459 225.476L132.494 224.92L131.977 225.22Z" fill="#4C7891"/>
<path d="M134.103 226.447L134.11 225.852L133.459 225.476L132.942 225.776L134.103 226.447Z" fill="#4C7891"/>
<path d="M131.851 224.548L131.849 224.796L132.064 224.671L131.851 224.548Z" fill="#4C7891"/>
<path d="M133.125 224.054L133.367 224.413L133.43 224.376V223.876L133.125 224.054Z" fill="#F34858"/>
<path d="M133.43 224.506V224.376L133.367 224.413L133.43 224.506Z" fill="#F34858"/>
<path d="M132.539 222.489L133.43 223.003V222.764L132.539 222.25V222.489Z" fill="#F34858"/>
<path d="M132.539 224.025L132.98 223.839L133.125 224.054L133.43 223.876V223.003L132.539 222.489V224.025Z" fill="#F34858"/>
<path d="M132.539 222.248L133.43 222.764L133.844 222.523L132.952 222.009L132.539 222.248Z" fill="#F9607F"/>
<path d="M126.319 212.37L126.732 212.13L124.552 210.871L124.138 211.112L126.319 212.37Z" fill="#FED57A"/>
<path d="M130.345 213.095L129.377 213.656L127.624 212.645L127.21 212.885L129.393 214.146L130.343 213.594L130.345 213.095Z" fill="#FED57A"/>
<path d="M130.358 214.703L130.772 214.462L130.341 214.214L130.343 213.594L129.393 214.146L129.393 214.385L130.357 214.941L130.358 214.703Z" fill="#EFAC41"/>
<path d="M130.357 214.941L129.393 214.385L129.386 216.878L130.353 216.316L130.357 214.941Z" fill="#EFAC41"/>
<path d="M129.383 217.911L129.377 219.944L130.345 219.382L130.35 217.35L129.383 217.911Z" fill="#EFAC41"/>
<path d="M130.35 217.35L130.353 216.316L129.386 216.878L129.383 217.911L130.35 217.35Z" fill="#EFAC41"/>
<path d="M125.624 215.264L125.631 214.669L127.239 215.597L129.359 214.365L129.393 214.385L129.393 214.146L127.21 212.885V214.626L126.76 213.961L126.319 214.146V212.372L124.138 211.112L124.121 216.91L124.552 217.159L126.721 215.898L125.624 215.264Z" fill="#F9BB4A"/>
<path d="M127.624 218.932L129.377 219.944L129.382 217.911L127.624 218.932Z" fill="#F9BB4A"/>
<path d="M129.386 216.878L129.393 214.385L129.359 214.365L127.239 215.597L127.89 215.973L127.883 216.568L126.721 215.898L124.552 217.159L126.732 218.418L129.386 216.878Z" fill="#F9BB4A"/>
<path d="M129.382 217.911L129.386 216.878L126.732 218.418L127.624 218.932L129.382 217.911Z" fill="#F9BB4A"/>
<path d="M125.624 215.264L126.721 215.898L127.239 215.597L125.631 214.669L125.624 215.264Z" fill="#4C7891"/>
<path d="M127.883 216.568L127.89 215.973L127.239 215.597L126.721 215.898L127.883 216.568Z" fill="#4C7891"/>
<path d="M126.319 214.146L126.76 213.961L127.21 214.626V212.885L126.319 212.372V214.146Z" fill="#F34858"/>
<path d="M127.624 212.645L126.732 212.13L126.319 212.37L127.21 212.885L127.624 212.645Z" fill="#F9607F"/>
<path d="M135.597 217.248L134.599 216.672L134.598 216.91L134.39 217.031L135.613 217.737L140.1 215.129L140.101 214.63L135.597 217.248Z" fill="#FED57A"/>
<path d="M133.43 216.476L134.39 217.031L134.598 216.91L134.599 216.672L133.844 216.236L133.43 216.476Z" fill="#FED57A"/>
<path d="M132.539 215.961L132.952 215.722L130.772 214.462L130.358 214.703L132.539 215.961Z" fill="#FED57A"/>
<path d="M135.613 217.976L137.762 219.217L137.783 219.229L140.085 220.558L140.1 215.129L135.613 217.737L135.613 217.976Z" fill="#EFAC41"/>
<path d="M137.762 219.217L135.613 217.976L135.606 220.469L137.762 219.217Z" fill="#EFAC41"/>
<path d="M138.653 219.732L135.602 221.502L135.597 223.536L140.084 220.928L140.085 220.558L137.783 219.229L138.653 219.732Z" fill="#EFAC41"/>
<path d="M135.602 221.502L138.653 219.732L137.783 219.229L137.762 219.217L135.606 220.469L135.602 221.502Z" fill="#EFAC41"/>
<path d="M134.615 217.399L134.612 218.519L135.579 217.956L135.613 217.976L135.613 217.737L134.39 217.031L134.184 217.151L134.615 217.399Z" fill="#F9BB4A"/>
<path d="M131.845 218.855L131.849 218.508L130.345 219.382L130.343 219.882L131.978 218.932L131.845 218.855Z" fill="#F9BB4A"/>
<path d="M133.367 218.125L133.125 217.766L132.064 218.383L132.494 218.632L133.367 218.125Z" fill="#F9BB4A"/>
<path d="M133.43 218.088L134.615 217.399L134.184 217.151L133.43 217.589V218.088Z" fill="#F9BB4A"/>
<path d="M133.43 218.217L133.367 218.125L132.494 218.632L133.459 219.188L134.612 218.519L134.615 217.399L133.43 218.088V218.217Z" fill="#F9BB4A"/>
<path d="M131.977 218.932L130.343 219.882L130.341 220.501L130.772 220.75L132.942 219.489L131.977 218.932Z" fill="#F9BB4A"/>
<path d="M134.612 218.519L134.604 221.05L135.606 220.469L135.613 217.976L135.579 217.956L134.612 218.519Z" fill="#F9BB4A"/>
<path d="M134.599 222.96L135.597 223.536L135.602 221.502L134.601 222.084L134.599 222.96Z" fill="#F9BB4A"/>
<path d="M134.604 221.05L134.612 218.519L133.459 219.188L134.11 219.564L134.103 220.159L132.942 219.489L130.772 220.75L132.952 222.009L134.604 221.05Z" fill="#F9BB4A"/>
<path d="M133.844 222.523L134.599 222.96L134.601 222.084L133.844 222.523Z" fill="#F9BB4A"/>
<path d="M134.604 221.05L134.601 222.084L135.602 221.502L135.606 220.469L134.604 221.05Z" fill="#F9BB4A"/>
<path d="M133.844 222.523L134.601 222.084L134.604 221.05L132.952 222.009L133.844 222.523Z" fill="#F9BB4A"/>
<path d="M133.43 216.715L134.184 217.151L134.39 217.031L133.43 216.476V216.715Z" fill="#F9BB4A"/>
<path d="M131.543 215.626L131.563 215.638L132.539 216.201V215.963L130.358 214.703L130.357 214.941L131.543 215.626Z" fill="#F9BB4A"/>
<path d="M134.184 217.151L133.43 216.715V217.589L134.184 217.151Z" fill="#F9BB4A"/>
<path d="M131.851 218.261L132.064 218.383L133.125 217.766L132.98 217.552L132.539 217.737V216.201L131.563 215.638L132.433 216.141L130.35 217.35L130.345 219.382L131.849 218.508L131.851 218.261Z" fill="#F9BB4A"/>
<path d="M130.357 214.941L130.353 216.316L131.543 215.626L130.357 214.941Z" fill="#F9BB4A"/>
<path d="M131.563 215.638L131.543 215.626L130.353 216.316L130.35 217.35L132.433 216.141L131.563 215.638Z" fill="#F9BB4A"/>
<path d="M132.064 218.383L131.849 218.508L131.845 218.855L131.977 218.932L132.494 218.632L132.064 218.383Z" fill="#4C7891"/>
<path d="M131.977 218.932L132.942 219.489L133.459 219.188L132.494 218.632L131.977 218.932Z" fill="#4C7891"/>
<path d="M134.103 220.159L134.11 219.564L133.459 219.188L132.942 219.489L134.103 220.159Z" fill="#4C7891"/>
<path d="M131.851 218.261L131.849 218.509L132.064 218.383L131.851 218.261Z" fill="#4C7891"/>
<path d="M133.43 218.088V217.589L133.125 217.766L133.367 218.125L133.43 218.088Z" fill="#F34858"/>
<path d="M133.43 218.218V218.088L133.367 218.125L133.43 218.218Z" fill="#F34858"/>
<path d="M132.539 216.201L133.43 216.715V216.476L132.539 215.963V216.201Z" fill="#F34858"/>
<path d="M132.539 217.737L132.98 217.552L133.125 217.766L133.43 217.589V216.715L132.539 216.201V217.737Z" fill="#F34858"/>
<path d="M132.539 215.961L133.43 216.476L133.844 216.236L132.952 215.722L132.539 215.961Z" fill="#F9607F"/>
<path d="M128.42 205.895L127.21 206.597L129.393 207.858L130.605 207.154L128.42 205.895Z" fill="#FED57A"/>
<path d="M126.319 206.083L127.527 205.381L125.344 204.123L124.138 204.824L126.319 206.083Z" fill="#FED57A"/>
<path d="M130.358 208.416L131.571 207.71L130.605 207.154L129.393 207.858L129.393 208.097L130.357 208.653L130.358 208.416Z" fill="#EFAC41"/>
<path d="M130.357 208.653L129.393 208.097L129.386 210.59L130.353 210.028L130.357 208.653Z" fill="#EFAC41"/>
<path d="M129.383 211.624L129.377 213.656L130.345 213.095L130.35 211.063L129.383 211.624Z" fill="#EFAC41"/>
<path d="M130.35 211.063L130.353 210.028L129.386 210.59L129.383 211.624L130.35 211.063Z" fill="#EFAC41"/>
<path d="M125.624 208.977L125.631 208.381L127.239 209.309L129.359 208.078L129.393 208.097L129.393 207.858L127.21 206.598V208.339L126.76 207.674L126.319 207.858V206.084L124.138 204.824L124.121 210.622L124.552 210.871L126.721 209.61L125.624 208.977Z" fill="#F9BB4A"/>
<path d="M127.624 212.645L129.377 213.656L129.382 211.624L127.624 212.645Z" fill="#F9BB4A"/>
<path d="M129.386 210.59L129.393 208.097L129.359 208.078L127.239 209.309L127.89 209.685L127.883 210.281L126.721 209.61L124.552 210.871L126.732 212.13L129.386 210.59Z" fill="#F9BB4A"/>
<path d="M129.382 211.624L129.386 210.59L126.732 212.13L127.624 212.645L129.382 211.624Z" fill="#F9BB4A"/>
<path d="M125.624 208.977L126.721 209.61L127.239 209.309L125.631 208.381L125.624 208.977Z" fill="#4C7891"/>
<path d="M127.883 210.281L127.89 209.685L127.239 209.309L126.721 209.61L127.883 210.281Z" fill="#4C7891"/>
<path d="M126.319 207.858L126.76 207.674L127.21 208.339V206.598L126.319 206.084V207.858Z" fill="#F34858"/>
<path d="M128.42 205.895L127.527 205.381L126.319 206.083L127.21 206.597L128.42 205.895Z" fill="#F9607F"/>
<path d="M134.598 210.622L134.39 210.744L135.613 211.449L136.831 210.741L134.646 209.483L134.601 209.509L134.598 210.622Z" fill="#FED57A"/>
<path d="M132.539 209.675L133.754 208.969L131.571 207.71L130.358 208.416L132.539 209.675Z" fill="#FED57A"/>
<path d="M134.39 210.744L134.598 210.622L134.601 209.509L133.43 210.188L134.39 210.744Z" fill="#FED57A"/>
<path d="M135.613 211.688L140.102 214.28L140.105 213.235L140.63 212.93L136.831 210.741L135.613 211.449L135.613 211.688Z" fill="#EFAC41"/>
<path d="M135.606 214.181L137.763 212.93L138.653 213.444L135.602 215.215L135.597 217.248L140.101 214.63L140.102 214.28L135.613 211.688L135.606 214.181Z" fill="#EFAC41"/>
<path d="M138.653 213.444L137.762 212.93L135.606 214.181L135.602 215.215L138.653 213.444Z" fill="#EFAC41"/>
<path d="M134.615 211.112L134.612 212.231L135.579 211.669L135.613 211.688L135.613 211.449L134.39 210.744L134.184 210.863L134.615 211.112Z" fill="#F9BB4A"/>
<path d="M131.845 212.567L131.849 212.22L130.345 213.095L130.343 213.594L131.978 212.644L131.845 212.567Z" fill="#F9BB4A"/>
<path d="M133.367 211.837L133.125 211.479L132.064 212.095L132.494 212.344L133.367 211.837Z" fill="#F9BB4A"/>
<path d="M133.43 211.8L134.615 211.112L134.184 210.863L133.43 211.302V211.8Z" fill="#F9BB4A"/>
<path d="M133.43 211.8V211.929L133.367 211.837L132.494 212.344L133.459 212.9L134.612 212.231L134.615 211.112L133.43 211.8Z" fill="#F9BB4A"/>
<path d="M131.977 212.644L130.343 213.594L130.341 214.214L130.772 214.462L132.942 213.202L131.977 212.644Z" fill="#F9BB4A"/>
<path d="M134.612 212.231L134.604 214.762L135.606 214.181L135.613 211.688L135.579 211.669L134.612 212.231Z" fill="#F9BB4A"/>
<path d="M134.601 215.797L134.599 216.672L135.597 217.248L135.602 215.215L134.601 215.797Z" fill="#F9BB4A"/>
<path d="M133.844 216.236L134.599 216.672L134.601 215.797L133.844 216.236Z" fill="#F9BB4A"/>
<path d="M134.604 214.762L134.612 212.231L133.459 212.9L134.11 213.277L134.103 213.872L132.942 213.202L130.772 214.462L132.952 215.722L134.604 214.762Z" fill="#F9BB4A"/>
<path d="M134.601 215.797L135.602 215.215L135.606 214.181L134.604 214.762L134.601 215.797Z" fill="#F9BB4A"/>
<path d="M132.952 215.722L133.844 216.236L134.601 215.797L134.604 214.762L132.952 215.722Z" fill="#F9BB4A"/>
<path d="M133.43 210.427L134.184 210.863L134.39 210.744L133.43 210.188V210.427Z" fill="#F9BB4A"/>
<path d="M131.543 209.338L131.563 209.35L132.539 209.913V209.675L130.358 208.416L130.357 208.653L131.543 209.338Z" fill="#F9BB4A"/>
<path d="M130.357 208.653L130.353 210.028L131.543 209.338L130.357 208.653Z" fill="#F9BB4A"/>
<path d="M131.851 211.973L132.064 212.095L133.125 211.479L132.98 211.265L132.539 211.449V209.913L131.563 209.35L132.433 209.853L130.35 211.063L130.345 213.095L131.849 212.22L131.851 211.973Z" fill="#F9BB4A"/>
<path d="M134.184 210.863L133.43 210.427V211.302L134.184 210.863Z" fill="#F9BB4A"/>
<path d="M131.563 209.35L131.543 209.338L130.353 210.028L130.35 211.063L132.433 209.853L131.563 209.35Z" fill="#F9BB4A"/>
<path d="M132.064 212.095L131.849 212.22L131.845 212.567L131.977 212.644L132.494 212.344L132.064 212.095Z" fill="#4C7891"/>
<path d="M131.977 212.644L132.942 213.202L133.459 212.9L132.494 212.344L131.977 212.644Z" fill="#4C7891"/>
<path d="M134.103 213.872L134.11 213.277L133.459 212.9L132.942 213.202L134.103 213.872Z" fill="#4C7891"/>
<path d="M131.851 211.973L131.849 212.221L132.064 212.096L131.851 211.973Z" fill="#4C7891"/>
<path d="M133.43 211.8V211.302L133.125 211.479L133.367 211.837L133.43 211.8Z" fill="#F34858"/>
<path d="M133.43 211.93V211.8L133.367 211.837L133.43 211.93Z" fill="#F34858"/>
<path d="M133.43 210.427V210.188L132.539 209.675V209.913L133.43 210.427Z" fill="#F34858"/>
<path d="M133.43 210.427L132.539 209.913V211.449L132.98 211.265L133.125 211.479L133.43 211.302V210.427Z" fill="#F34858"/>
<path d="M134.601 209.509L134.647 209.483L134.601 209.456V209.509Z" fill="#F9607F"/>
<path d="M133.43 210.188L134.601 209.509V209.456L133.754 208.969L132.539 209.674L133.43 210.188Z" fill="#F9607F"/>
<path d="M237.487 183.2L237.491 184.574L233.57 186.839L233.566 185.464L237.487 183.2Z" fill="#EFAC41"/>
<path d="M140.57 245.306L140.563 247.864L137.406 246.041L137.413 243.483L140.57 245.306Z" fill="#F9607F"/>
<path d="M120.763 233.87L120.756 236.428L117.599 234.605L117.606 232.047L120.763 233.87Z" fill="#F9607F"/>
<path d="M4.34769 201.647L2.58148 200.621L9.82818 181.729L11.5944 182.756L4.34769 201.647Z" fill="#3C3E4B"/>
<path d="M11.5944 182.756L9.82819 181.729L26.7549 171.965L28.5211 172.991L11.5944 182.756Z" fill="#4E5161"/>
<path d="M28.5211 172.991L35.1808 183.683L4.34772 201.647L11.5944 182.756L28.5211 172.991Z" fill="#464957"/>
<path d="M16.6046 200.069L16.6091 201.647L34.4568 191.345L34.4523 189.767L16.6046 200.069Z" fill="#3F434F"/>
<path d="M34.4545 189.775V191.343L81.4737 218.817C83.1577 219.804 85.9065 219.804 87.6099 218.817C88.4616 218.314 88.8874 217.675 88.8874 217.036V215.468C88.868 216.107 88.4616 216.746 87.6099 217.23C85.8871 218.217 83.1577 218.217 81.4737 217.23L34.4545 189.775Z" fill="#525566"/>
<path d="M5.09397 199.66L4.34772 201.638L57.4643 232.674C59.1677 233.661 61.897 233.661 63.6004 232.674C64.4521 232.171 64.8779 231.532 64.8973 230.893V229.306C64.8779 229.964 64.4521 230.603 63.6004 231.087C61.897 232.074 59.1677 232.074 57.4643 231.087L5.09397 199.66Z" fill="#525566"/>
<path d="M5.10107 199.659L57.4637 231.091C59.1581 232.076 61.8928 232.076 63.5983 231.091C64.4511 230.599 64.8735 229.957 64.8895 229.307C64.8807 228.672 64.4655 228.03 63.6183 227.538L16.6046 200.069L34.4523 189.767L81.466 217.236C83.1604 218.221 85.8951 218.221 87.6006 217.236C88.4533 216.744 88.8758 216.101 88.8794 215.459C88.883 214.817 88.4678 214.175 87.6206 213.683L34.4923 182.66L5.10107 199.659Z" fill="#5B5E71"/>
<path d="M63.3675 185.28L63.313 198.755L24.0607 221.906L24.1152 208.431L63.3675 185.28Z" fill="#EFAC41"/>
<path d="M32.3429 208.986L32.3249 214.651L27.1962 217.631L27.2142 211.967L32.3429 208.986Z" fill="#E4E8F4"/>
<path d="M24.1153 208.431L24.0608 221.906L8.36261 212.843L8.41713 199.368L24.1153 208.431Z" fill="#F9BB4A"/>
<path d="M63.3714 185.291L24.1154 208.442L17.2579 204.472L15.2727 203.349L15.2327 203.329L8.41516 199.379L47.6713 176.227L54.5288 180.177L54.5489 180.198L56.5139 181.32L63.3714 185.291Z" fill="#FED57A"/>
<path d="M56.5137 181.32L17.2577 204.472L15.2725 203.349L15.2325 203.329L54.5286 180.177L54.5487 180.198L56.5137 181.32Z" fill="#5B5E71"/>
<path d="M17.2577 204.472L17.2392 210.988L15.2325 209.842L15.251 203.326L17.2577 204.472Z" fill="#474B59"/>
<path d="M56.9234 196.367L57.4637 197.395L57.1291 197.588L56.3907 198.011L56.9234 196.367Z" fill="#3F434F"/>
<path d="M57.1291 197.588L57.1349 199.622L56.7311 199.855L56.7253 197.821L57.1291 197.588Z" fill="#3F434F"/>
<path d="M59.1348 198.649L59.1361 199.084L56.3484 200.694L56.3472 200.258L59.1348 198.649Z" fill="#3F434F"/>
<path d="M62.0977 193.38L62.1018 194.829C62.1031 195.286 61.8387 195.818 61.4877 196.087L61.4914 197.393C61.7376 197.28 61.9232 197.29 61.9236 197.427L60.8368 198.055C60.8364 197.918 61.0213 197.693 61.2674 197.523L61.2637 196.217C61.1032 196.281 60.9646 196.265 60.8564 196.197C60.7287 196.102 60.6451 195.924 60.6444 195.67L60.6403 194.221L62.0977 193.38Z" fill="#3F434F"/>
<path d="M58.7442 196.656L58.7499 198.69L58.3462 198.923L58.3404 196.889L58.7442 196.656Z" fill="#3F434F"/>
<path d="M58.5412 195.433L59.0788 196.463L58.7442 196.656L58.0085 197.077L58.5412 195.433Z" fill="#3F434F"/>
<path d="M14.1676 211.1L13.6868 212.015L13.9845 212.187L14.6417 212.564L14.1676 211.1Z" fill="#4C7891"/>
<path d="M13.9845 212.187L13.9794 213.997L14.3387 214.204L14.3438 212.395L13.9845 212.187Z" fill="#4C7891"/>
<path d="M12.1996 213.131L12.1985 213.518L14.6793 214.951L14.6803 214.563L12.1996 213.131Z" fill="#4C7891"/>
<path d="M9.56299 208.442L9.55933 209.731C9.55818 210.139 9.79348 210.611 10.1059 210.851L10.1026 212.014C9.88347 211.913 9.71828 211.922 9.71793 212.044L10.6851 212.602C10.6855 212.48 10.5209 212.281 10.3019 212.129L10.3052 210.966C10.448 211.023 10.5713 211.01 10.6676 210.949C10.7813 210.865 10.8556 210.706 10.8563 210.48L10.8599 209.191L9.56299 208.442Z" fill="#4C7891"/>
<path d="M12.5473 211.357L12.5422 213.167L12.9015 213.375L12.9066 211.565L12.5473 211.357Z" fill="#4C7891"/>
<path d="M12.7279 210.269L12.2495 211.185L12.5473 211.357L13.2019 211.732L12.7279 210.269Z" fill="#4C7891"/>
<path d="M81.1675 195.454L81.113 208.928L41.8607 232.08L41.9152 218.605L81.1675 195.454Z" fill="#EFAC41"/>
<path d="M50.1428 219.16L50.1249 224.824L44.9962 227.805L45.0141 222.14L50.1428 219.16Z" fill="#E4E8F4"/>
<path d="M41.9152 218.605L41.8607 232.08L26.1625 223.017L26.2171 209.542L41.9152 218.605Z" fill="#F9BB4A"/>
<path d="M81.1713 195.464L41.9153 218.616L35.0578 214.645L33.0726 213.522L33.0326 213.503L26.2151 209.552L65.4712 186.401L72.3288 190.351L72.3488 190.371L74.3138 191.494L81.1713 195.464Z" fill="#FED57A"/>
<path d="M74.3137 191.494L35.0576 214.645L33.0725 213.523L33.0324 213.503L72.3286 190.351L72.3487 190.371L74.3137 191.494Z" fill="#5B5E71"/>
<path d="M35.0576 214.645L35.0392 221.162L33.0324 220.016L33.0509 213.499L35.0576 214.645Z" fill="#474B59"/>
<path d="M74.7233 206.541L75.2636 207.569L74.929 207.762L74.1906 208.185L74.7233 206.541Z" fill="#3F434F"/>
<path d="M74.929 207.762L74.9348 209.796L74.531 210.029L74.5253 207.995L74.929 207.762Z" fill="#3F434F"/>
<path d="M76.9348 208.823L76.936 209.258L74.1484 210.867L74.1471 210.432L76.9348 208.823Z" fill="#3F434F"/>
<path d="M79.8977 203.553L79.9018 205.003C79.9031 205.46 79.6386 205.992 79.2876 206.261L79.2913 207.567C79.5375 207.454 79.7232 207.464 79.7235 207.601L78.6367 208.228C78.6363 208.092 78.8212 207.867 79.0673 207.696L79.0636 206.39C78.9031 206.454 78.7646 206.439 78.6563 206.371C78.5286 206.276 78.445 206.098 78.4443 205.844L78.4402 204.395L79.8977 203.553Z" fill="#3F434F"/>
<path d="M76.5441 206.83L76.5499 208.863L76.1461 209.097L76.1403 207.063L76.5441 206.83Z" fill="#3F434F"/>
<path d="M76.3412 205.607L76.8787 206.636L76.5441 206.83L75.8084 207.251L76.3412 205.607Z" fill="#3F434F"/>
<path d="M31.9674 221.274L31.4866 222.189L31.7844 222.361L32.4415 222.737L31.9674 221.274Z" fill="#4C7891"/>
<path d="M31.7844 222.361L31.7793 224.171L32.1386 224.378L32.1437 222.568L31.7844 222.361Z" fill="#4C7891"/>
<path d="M29.9995 223.305L29.9984 223.692L32.4791 225.124L32.4802 224.737L29.9995 223.305Z" fill="#4C7891"/>
<path d="M27.3629 218.616L27.3592 219.905C27.3581 220.312 27.5934 220.785 27.9058 221.025L27.9025 222.187C27.6834 222.086 27.5182 222.096 27.5178 222.217L28.485 222.776C28.4854 222.654 28.3208 222.454 28.1018 222.302L28.1051 221.14C28.2479 221.197 28.3712 221.183 28.4675 221.123C28.5811 221.038 28.6555 220.88 28.6562 220.654L28.6598 219.364L27.3629 218.616Z" fill="#4C7891"/>
<path d="M30.3472 221.531L30.342 223.341L30.7014 223.548L30.7065 221.739L30.3472 221.531Z" fill="#4C7891"/>
<path d="M30.5278 220.443L30.0494 221.359L30.3472 221.531L31.0018 221.906L30.5278 220.443Z" fill="#4C7891"/>
<path d="M65.7724 179.669L65.7178 193.144L39.9144 208.364L39.9689 194.889L65.7724 179.669Z" fill="#EFAC41"/>
<path d="M48.1965 195.444L48.1786 201.108L43.0499 204.089L43.0678 198.424L48.1965 195.444Z" fill="#E4E8F4"/>
<path d="M39.9689 194.889L39.9144 208.364L24.2162 199.301L24.2708 185.826L39.9689 194.889Z" fill="#F9BB4A"/>
<path d="M65.7762 179.68L39.969 194.899L33.1115 190.929L31.1263 189.806L31.0863 189.786L24.2688 185.836L50.0761 170.616L56.9336 174.567L56.9537 174.587L58.9187 175.709L65.7762 179.68Z" fill="#FED57A"/>
<path d="M58.9186 175.709L33.1114 190.929L31.1262 189.806L31.0862 189.786L56.9335 174.567L56.9536 174.587L58.9186 175.709Z" fill="#5B5E71"/>
<path d="M33.1114 190.929L33.0929 197.446L31.0862 196.3L31.1046 189.783L33.1114 190.929Z" fill="#474B59"/>
<path d="M59.3282 190.756L59.8685 191.784L59.5339 191.977L58.7955 192.401L59.3282 190.756Z" fill="#3F434F"/>
<path d="M59.5339 191.977L59.5397 194.011L59.1359 194.244L59.1302 192.211L59.5339 191.977Z" fill="#3F434F"/>
<path d="M61.5397 193.038L61.5409 193.473L58.7532 195.083L58.752 194.647L61.5397 193.038Z" fill="#3F434F"/>
<path d="M64.5025 187.769L64.5066 189.218C64.5079 189.675 64.2435 190.207 63.8925 190.476L63.8962 191.782C64.1424 191.669 64.328 191.68 64.3284 191.816L63.2416 192.444C63.2412 192.307 63.4261 192.083 63.6722 191.912L63.6685 190.606C63.508 190.67 63.3695 190.654 63.2612 190.586C63.1335 190.491 63.0499 190.314 63.0492 190.059L63.0451 188.61L64.5025 187.769Z" fill="#3F434F"/>
<path d="M61.149 191.045L61.1547 193.079L60.751 193.312L60.7452 191.278L61.149 191.045Z" fill="#3F434F"/>
<path d="M60.9461 189.822L61.4836 190.852L61.149 191.045L60.4133 191.467L60.9461 189.822Z" fill="#3F434F"/>
<path d="M30.0212 197.558L29.5404 198.473L29.8382 198.645L30.4953 199.021L30.0212 197.558Z" fill="#4C7891"/>
<path d="M29.8382 198.645L29.833 200.455L30.1923 200.662L30.1975 198.852L29.8382 198.645Z" fill="#4C7891"/>
<path d="M28.0533 199.589L28.0522 199.976L30.5329 201.408L30.534 201.021L28.0533 199.589Z" fill="#4C7891"/>
<path d="M25.4166 194.899L25.413 196.189C25.4118 196.596 25.6471 197.069 25.9595 197.309L25.9562 198.471C25.7371 198.37 25.5719 198.38 25.5716 198.501L26.5388 199.06C26.5391 198.938 26.3745 198.738 26.1556 198.586L26.1588 197.424C26.3017 197.481 26.4249 197.467 26.5213 197.407C26.6349 197.322 26.7093 197.164 26.7099 196.938L26.7136 195.648L25.4166 194.899Z" fill="#4C7891"/>
<path d="M28.4009 197.815L28.3958 199.625L28.7551 199.832L28.7602 198.022L28.4009 197.815Z" fill="#4C7891"/>
<path d="M28.5815 196.727L28.1031 197.643L28.4009 197.815L29.0556 198.19L28.5815 196.727Z" fill="#4C7891"/>
<path d="M18.4926 153.142L16.7735 152.142L16.842 177.694L18.5611 178.693L18.4926 153.142Z" fill="#FA5168"/>
<path d="M26.3393 142.392L24.6202 141.393L18.4956 148.872L20.2147 149.871L26.3393 142.392Z" fill="#F34858"/>
<path d="M26.3156 134.017L24.5965 133.018L24.6202 141.393L26.3393 142.392L26.3156 134.017Z" fill="#FA5168"/>
<path d="M18.4861 150.869L16.767 149.87L10.6357 149.467L12.3548 150.466L18.4861 150.869Z" fill="#F34858"/>
<path d="M18.4512 138.558L16.7321 137.558L16.767 149.87L18.4861 150.869L18.4512 138.558Z" fill="#FA5168"/>
<path d="M10.5968 141.103L8.87769 140.104L8.91036 151.628L10.6294 152.627L10.5968 141.103Z" fill="#FA5168"/>
<path d="M28.0385 131.033L26.3194 130.034L8.87769 140.104L10.5968 141.103L28.0385 131.033Z" fill="#F9607F"/>
<path d="M28.0712 142.557L20.2212 152.144L20.2897 177.695L18.5611 178.693L18.4926 153.142L10.6295 152.627L10.5968 141.103L28.0385 131.033L28.0712 142.557ZM20.2147 149.871L26.3393 142.392L26.3156 134.017L20.1798 137.559L20.2147 149.871ZM12.3548 150.466L18.4861 150.869L18.4512 138.557L12.3311 142.091L12.3548 150.466Z" fill="#E63044"/>
</svg>
