<svg width="340" height="284" viewBox="0 0 340 284" fill="none" xmlns="http://www.w3.org/2000/svg">
    <path
        d="M249.9 76.68L265.88 191.984C266.9 199.027 261.913 205.502 254.887 206.525L98.4868 228.45C91.3468 229.358 84.8868 224.474 83.8668 217.43L67.7734 102.126L249.9 76.68Z"
        fill="url(#paint0_linear_46_10148)" />
    <path
        d="M248.087 63.9568L249.9 76.68L67.7734 102.126L66.0734 89.4032C65.0534 82.36 70.04 75.7712 77.0667 74.8624L233.467 52.9376C240.607 52.0288 247.067 56.9136 248.087 63.9568Z"
        fill="url(#paint1_linear_46_10148)" />
    <path
        d="M106.08 79.1792C106.76 83.2688 103.813 87.0176 99.7334 87.5856C95.6534 88.2672 91.8001 85.3136 91.2334 81.224C90.6668 77.1344 93.5001 73.272 97.6934 72.704C101.773 72.136 105.513 74.976 106.08 79.1792Z"
        fill="url(#paint2_linear_46_10148)" />
    <path
        d="M221.68 63.048C222.247 67.1376 219.3 70.8864 215.22 71.4544C211.14 72.0224 207.287 69.1824 206.72 65.0928C206.153 61.0032 208.987 57.1408 213.18 56.5728C217.26 56.0048 221 58.8448 221.68 63.048Z"
        fill="url(#paint3_linear_46_10148)" />
    <path
        d="M94.9733 53.1648C91.8 53.5056 89.6467 56.4592 90.1 59.5264L92.9333 79.8608C93.3867 83.0416 96.22 85.2 99.28 84.7456C102.453 84.2912 104.607 81.4512 104.153 78.384L101.32 57.936C100.867 54.8688 98.0333 52.7104 94.9733 53.1648Z"
        fill="url(#paint4_linear_46_10148)" />
    <path
        d="M210.46 36.92C207.287 37.3744 205.133 40.2144 205.587 43.3952L208.42 63.7296C208.873 66.9104 211.707 69.0688 214.767 68.6144C217.94 68.16 220.093 65.32 219.64 62.1392L216.807 41.8048C216.353 38.7376 213.52 36.5792 210.46 36.92Z"
        fill="url(#paint5_linear_46_10148)" />
    <path
        d="M184.733 103.83L137.927 110.306C135.207 110.76 132.827 108.829 132.373 106.216C132.033 103.49 133.96 101.104 136.567 100.763L183.373 94.1744C185.98 93.8336 188.473 95.6512 188.813 98.264C189.267 100.99 187.34 103.376 184.733 103.83Z"
        fill="url(#paint6_linear_46_10148)" />
    <path
        d="M108.46 142L89.5335 144.613C88.4001 144.84 87.2668 143.931 87.1535 142.795L85.3401 129.958C85.1135 128.822 86.0201 127.686 87.1535 127.573L106.08 124.846C107.327 124.733 108.347 125.528 108.573 126.664L110.273 139.501C110.5 140.75 109.707 141.773 108.46 142Z"
        fill="url(#paint7_linear_46_10148)" />
    <path
        d="M135.093 138.251L116.167 140.864C114.92 141.091 113.9 140.296 113.673 139.046L111.973 126.21C111.747 125.074 112.54 123.938 113.787 123.824L132.713 121.098C133.847 120.984 134.98 121.779 135.093 123.029L136.907 135.866C137.133 137.002 136.227 138.138 135.093 138.251Z"
        fill="url(#paint8_linear_46_10148)" />
    <path
        d="M161.727 134.502L142.8 137.229C141.553 137.342 140.533 136.547 140.307 135.298L138.493 122.461C138.38 121.325 139.173 120.189 140.42 120.075L159.347 117.462C160.48 117.235 161.613 118.144 161.727 119.28L163.54 132.117C163.653 133.253 162.86 134.389 161.727 134.502Z"
        fill="url(#paint9_linear_46_10148)" />
    <path
        d="M188.247 130.867L169.32 133.48C168.187 133.594 167.053 132.798 166.94 131.662L165.127 118.826C165.013 117.576 165.807 116.554 166.94 116.326L185.867 113.714C187.113 113.6 188.133 114.395 188.36 115.531L190.173 128.368C190.287 129.618 189.493 130.64 188.247 130.867Z"
        fill="url(#paint10_linear_46_10148)" />
    <path
        d="M213.974 127.232L195.047 129.845C193.8 130.072 192.78 129.277 192.554 128.027L190.854 115.19C190.627 114.054 191.42 112.918 192.667 112.805L211.594 110.078C212.727 109.965 213.86 110.76 213.974 112.01L215.787 124.846C216.014 125.982 215.107 127.118 213.974 127.232Z"
        fill="url(#paint11_linear_46_10148)" />
    <path
        d="M240.607 123.483L221.68 126.21C220.434 126.323 219.414 125.528 219.187 124.278L217.374 111.442C217.26 110.306 218.054 109.17 219.3 109.056L238.227 106.443C239.36 106.216 240.494 107.011 240.607 108.261L242.42 121.098C242.534 122.234 241.74 123.37 240.607 123.483Z"
        fill="url(#paint12_linear_46_10148)" />
    <path
        d="M111.747 165.402L92.8201 168.014C91.5734 168.128 90.5534 167.333 90.3267 166.197L88.6267 153.36C88.4001 152.11 89.1934 151.088 90.4401 150.861L109.367 148.248C110.5 148.134 111.633 148.93 111.747 150.066L113.56 162.902C113.787 164.152 112.88 165.174 111.747 165.402Z"
        fill="url(#paint13_linear_46_10148)" />
    <path
        d="M138.38 161.653L119.453 164.266C118.207 164.493 117.187 163.584 116.96 162.448L115.147 149.611C115.033 148.475 115.827 147.339 117.073 147.226L136 144.499C137.133 144.386 138.267 145.181 138.38 146.43L140.193 159.267C140.307 160.403 139.513 161.539 138.38 161.653Z"
        fill="url(#paint14_linear_46_10148)" />
    <path
        d="M164.9 157.904L145.973 160.63C144.84 160.744 143.707 159.949 143.593 158.699L141.78 145.862C141.667 144.726 142.46 143.59 143.593 143.477L162.52 140.864C163.767 140.637 164.787 141.432 165.013 142.682L166.827 155.518C166.94 156.654 166.147 157.79 164.9 157.904Z"
        fill="url(#paint15_linear_46_10148)" />
    <path
        d="M191.533 154.155L172.607 156.882C171.473 156.995 170.34 156.2 170.227 155.064L168.413 142.227C168.187 140.978 169.093 139.955 170.227 139.728L189.153 137.115C190.4 136.888 191.42 137.797 191.647 138.933L193.347 151.77C193.573 152.906 192.78 154.042 191.533 154.155Z"
        fill="url(#paint16_linear_46_10148)" />
    <path
        d="M217.26 150.634L198.333 153.246C197.087 153.474 196.067 152.565 195.84 151.429L194.027 138.592C193.913 137.456 194.707 136.32 195.953 136.206L214.88 133.48C216.013 133.366 217.147 134.162 217.26 135.298L219.073 148.134C219.187 149.384 218.393 150.406 217.26 150.634Z"
        fill="url(#paint17_linear_46_10148)" />
    <path
        d="M243.78 146.885L224.853 149.498C223.72 149.725 222.587 148.93 222.473 147.68L220.66 134.843C220.547 133.707 221.34 132.571 222.473 132.458L241.4 129.845C242.647 129.618 243.667 130.413 243.893 131.662L245.707 144.499C245.82 145.635 245.027 146.771 243.78 146.885Z"
        fill="url(#paint18_linear_46_10148)" />
    <path
        d="M115.033 188.803L96.1067 191.416C94.86 191.53 93.8401 190.734 93.6134 189.598L91.8 176.762C91.6867 175.512 92.48 174.49 93.7267 174.262L112.653 171.65C113.787 171.536 114.92 172.331 115.033 173.467L116.847 186.304C116.96 187.554 116.167 188.576 115.033 188.803Z"
        fill="url(#paint19_linear_46_10148)" />
    <path
        d="M141.553 185.054L122.627 187.667C121.493 187.894 120.36 186.986 120.247 185.85L118.433 173.013C118.32 171.877 119.113 170.741 120.247 170.627L139.173 167.901C140.42 167.787 141.44 168.582 141.667 169.718L143.48 182.555C143.593 183.805 142.8 184.827 141.553 185.054Z"
        fill="url(#paint20_linear_46_10148)" />
    <path
        d="M168.187 181.306L149.26 183.918C148.127 184.146 146.993 183.35 146.88 182.101L145.067 169.264C144.84 168.128 145.747 166.992 146.88 166.878L165.807 164.152C167.053 164.038 168.073 164.834 168.3 166.083L170 178.92C170.227 180.056 169.433 181.192 168.187 181.306Z"
        fill="url(#paint21_linear_46_10148)" />
    <path
        d="M194.82 177.557L175.894 180.283C174.647 180.397 173.627 179.602 173.4 178.352L171.7 165.515C171.474 164.379 172.267 163.243 173.514 163.13L192.44 160.517C193.574 160.29 194.707 161.198 194.82 162.334L196.634 175.171C196.86 176.307 195.954 177.443 194.82 177.557Z"
        fill="url(#paint22_linear_46_10148)" />
    <path
        d="M220.434 174.035L201.507 176.648C200.374 176.875 199.24 175.966 199.127 174.83L197.314 161.994C197.2 160.858 197.994 159.722 199.127 159.494L218.054 156.882C219.3 156.768 220.32 157.563 220.547 158.699L222.36 171.536C222.474 172.786 221.68 173.808 220.434 174.035Z"
        fill="url(#paint23_linear_46_10148)" />
    <path
        d="M247.067 170.286L228.14 172.899C227.007 173.126 225.874 172.331 225.76 171.082L223.947 158.245C223.72 157.109 224.627 155.973 225.76 155.859L244.687 153.133C245.934 153.019 246.953 153.814 247.18 155.064L248.88 167.901C249.107 169.037 248.314 170.173 247.067 170.286Z"
        fill="url(#paint24_linear_46_10148)" />
    <path
        d="M118.207 212.091L99.28 214.818C98.1467 214.931 97.0134 214.136 96.9 213L95.0867 200.163C94.9734 198.914 95.7667 197.891 96.9 197.664L115.827 195.051C117.073 194.824 118.093 195.733 118.32 196.869L120.133 209.706C120.247 210.842 119.453 211.978 118.207 212.091Z"
        fill="url(#paint25_linear_46_10148)" />
    <path
        d="M144.84 208.456L125.913 211.069C124.78 211.182 123.647 210.387 123.533 209.251L121.72 196.414C121.493 195.165 122.4 194.142 123.533 193.915L142.46 191.302C143.593 191.189 144.727 191.984 144.953 193.12L146.653 205.957C146.88 207.206 146.087 208.229 144.84 208.456Z"
        fill="url(#paint26_linear_46_10148)" />
    <path
        d="M171.473 204.707L152.547 207.32C151.3 207.547 150.28 206.638 150.053 205.502L148.353 192.666C148.127 191.53 148.92 190.394 150.167 190.28L169.093 187.554C170.227 187.44 171.36 188.235 171.473 189.485L173.287 202.322C173.513 203.458 172.607 204.594 171.473 204.707Z"
        fill="url(#paint27_linear_46_10148)" />
    <path
        d="M198.107 200.958L179.18 203.685C177.933 203.798 176.913 203.003 176.687 201.754L174.873 188.917C174.76 187.781 175.553 186.645 176.8 186.531L195.727 183.918C196.86 183.691 197.993 184.486 198.107 185.736L199.92 198.573C200.033 199.709 199.24 200.845 198.107 200.958Z"
        fill="url(#paint28_linear_46_10148)" />
    <path
        d="M223.72 197.437L204.793 200.05C203.66 200.163 202.527 199.368 202.413 198.232L200.6 185.395C200.373 184.146 201.28 183.123 202.413 182.896L221.34 180.283C222.473 180.17 223.607 180.965 223.833 182.101L225.533 194.938C225.76 196.187 224.853 197.21 223.72 197.437Z"
        fill="url(#paint29_linear_46_10148)" />
    <path
        d="M250.353 193.688L231.427 196.301C230.18 196.528 229.16 195.619 228.933 194.483L227.233 181.646C227.007 180.51 227.8 179.374 229.047 179.261L247.973 176.534C249.107 176.421 250.24 177.216 250.353 178.352L252.167 191.189C252.28 192.438 251.487 193.461 250.353 193.688Z"
        fill="url(#paint30_linear_46_10148)" />
    <path
        d="M300.787 137.115C300.787 139.16 299.087 140.75 297.047 140.75C295.007 140.75 293.307 139.16 293.307 137.115C293.307 135.07 295.007 133.366 297.047 133.366C299.087 133.366 300.787 135.07 300.787 137.115Z"
        fill="url(#paint31_linear_46_10148)" />
    <path
        d="M191.08 260.144C191.08 262.189 189.493 263.893 187.453 263.893C185.3 263.893 183.713 262.189 183.713 260.144C183.713 258.099 185.3 256.395 187.453 256.395C189.493 256.395 191.08 258.099 191.08 260.144Z"
        fill="url(#paint32_linear_46_10148)" />
    <path
        d="M42.5 109.851C42.5 112.01 40.9133 113.6 38.8733 113.6C36.8333 113.6 35.1333 112.01 35.1333 109.851C35.1333 107.806 36.8333 106.216 38.8733 106.216C40.9133 106.216 42.5 107.806 42.5 109.851Z"
        fill="url(#paint33_linear_46_10148)" />
    <path
        d="M161.613 24.0832C161.613 26.128 159.913 27.832 157.873 27.832C155.833 27.832 154.247 26.128 154.247 24.0832C154.247 22.0384 155.833 20.448 157.873 20.448C159.913 20.448 161.613 22.0384 161.613 24.0832Z"
        fill="url(#paint34_linear_46_10148)" />
    <g style="mix-blend-mode:hue">
        <rect width="340" height="283" fill="#01565B" />
    </g>
    <path
        d="M304.753 197.437C304.753 218.907 287.413 236.288 265.993 236.288C244.573 236.288 227.233 218.907 227.233 197.437C227.233 175.966 244.573 158.586 265.993 158.586C287.413 158.586 304.753 175.966 304.753 197.437Z"
        fill="url(#paint35_linear_46_10148)" />
    <path
        d="M297.047 197.437C297.047 214.704 283.22 228.563 265.993 228.563C248.88 228.563 234.94 214.704 234.94 197.437C234.94 180.283 248.88 166.31 265.993 166.31C283.22 166.31 297.047 180.283 297.047 197.437Z"
        fill="url(#paint36_linear_46_10148)" />
    <path
        d="M294.327 197.437C294.327 213.114 281.633 225.837 265.993 225.837C250.353 225.837 237.773 213.114 237.773 197.437C237.773 181.76 250.353 169.15 265.993 169.15C281.633 169.15 294.327 181.76 294.327 197.437Z"
        fill="url(#paint37_linear_46_10148)" />
    <path
        d="M268.147 197.437C268.147 198.573 267.127 199.595 265.993 199.595C264.86 199.595 263.953 198.573 263.953 197.437C263.953 196.301 264.86 195.392 265.993 195.392C267.127 195.392 268.147 196.301 268.147 197.437Z"
        fill="url(#paint38_linear_46_10148)" />
    <path
        d="M265.993 176.648C265.087 176.648 264.293 177.443 264.293 178.466L265.087 197.437H267.013L267.693 178.466C267.807 177.443 267.013 176.648 265.993 176.648Z"
        fill="url(#paint39_linear_46_10148)" />
    <path
        d="M281.407 204.934C281.86 204.139 281.52 203.117 280.613 202.662L266.447 196.642L265.653 198.346L279.14 205.73C280.047 206.184 281.067 205.843 281.407 204.934Z"
        fill="url(#paint40_linear_46_10148)" />
    <path
        d="M265.993 172.786C265.653 172.786 265.427 172.558 265.427 172.218V168.582C265.427 168.242 265.653 168.014 265.993 168.014C266.333 168.014 266.673 168.242 266.673 168.582V172.218C266.673 172.558 266.333 172.786 265.993 172.786Z"
        fill="url(#paint41_linear_46_10148)" />
    <path
        d="M241.4 197.437C241.4 197.778 241.173 198.118 240.833 198.118H237.207C236.867 198.118 236.64 197.778 236.64 197.437C236.64 197.096 236.867 196.869 237.207 196.869H240.833C241.173 196.869 241.4 197.096 241.4 197.437Z"
        fill="url(#paint42_linear_46_10148)" />
    <path
        d="M265.993 222.088C266.333 222.088 266.673 222.429 266.673 222.656V226.405C266.673 226.746 266.333 226.973 265.993 226.973C265.653 226.973 265.427 226.746 265.427 226.405V222.656C265.427 222.429 265.653 222.088 265.993 222.088Z"
        fill="url(#paint43_linear_46_10148)" />
    <path
        d="M290.587 197.437C290.587 197.096 290.927 196.869 291.153 196.869H294.893C295.233 196.869 295.46 197.096 295.46 197.437C295.46 197.778 295.233 198.118 294.893 198.118H291.153C290.927 198.118 290.587 197.778 290.587 197.437Z"
        fill="url(#paint44_linear_46_10148)" />
    <defs>
        <linearGradient id="paint0_linear_46_10148" x1="191.781" y1="1.25073" x2="269.257"
            y2="532.032" gradientUnits="userSpaceOnUse">
            <stop stop-color="white" />
            <stop offset="1" stop-color="#66C8FF" />
        </linearGradient>
        <linearGradient id="paint1_linear_46_10148" x1="68.4998" y1="-18.6531" x2="320.472"
            y2="214.378" gradientUnits="userSpaceOnUse">
            <stop stop-color="#66C8FF" />
            <stop offset="1" stop-color="#0068FF" />
        </linearGradient>
        <linearGradient id="paint2_linear_46_10148" x1="101.599" y1="56.9715" x2="110.588"
            y2="94.6432" gradientUnits="userSpaceOnUse">
            <stop stop-color="#66C8FF" />
            <stop offset="1" stop-color="#0068FF" />
        </linearGradient>
        <linearGradient id="paint3_linear_46_10148" x1="217.091" y1="40.8267" x2="226.08"
            y2="78.4983" gradientUnits="userSpaceOnUse">
            <stop stop-color="#66C8FF" />
            <stop offset="1" stop-color="#0068FF" />
        </linearGradient>
        <linearGradient id="paint4_linear_46_10148" x1="51.4715" y1="84.9626" x2="50.2376"
            y2="51.8733" gradientUnits="userSpaceOnUse">
            <stop stop-color="#12336D" />
            <stop offset="1" stop-color="#0059B3" />
        </linearGradient>
        <linearGradient id="paint5_linear_46_10148" x1="166.965" y1="68.8189" x2="165.731"
            y2="35.7296" gradientUnits="userSpaceOnUse">
            <stop stop-color="#12336D" />
            <stop offset="1" stop-color="#0059B3" />
        </linearGradient>
        <linearGradient id="paint6_linear_46_10148" x1="161.874" y1="-77.5969" x2="162.37"
            y2="291.969" gradientUnits="userSpaceOnUse">
            <stop stop-color="white" />
            <stop offset="1" stop-color="#66C8FF" />
        </linearGradient>
        <linearGradient id="paint7_linear_46_10148" x1="51.2144" y1="14.9385" x2="206.324"
            y2="344.536" gradientUnits="userSpaceOnUse">
            <stop stop-color="white" />
            <stop offset="1" stop-color="#66C8FF" />
        </linearGradient>
        <linearGradient id="paint8_linear_46_10148" x1="74.2787" y1="3.65799" x2="229.388"
            y2="333.256" gradientUnits="userSpaceOnUse">
            <stop stop-color="white" />
            <stop offset="1" stop-color="#66C8FF" />
        </linearGradient>
        <linearGradient id="paint9_linear_46_10148" x1="97.3421" y1="-7.62253" x2="252.451"
            y2="321.976" gradientUnits="userSpaceOnUse">
            <stop stop-color="white" />
            <stop offset="1" stop-color="#66C8FF" />
        </linearGradient>
        <linearGradient id="paint10_linear_46_10148" x1="120.407" y1="-18.903" x2="275.516"
            y2="310.696" gradientUnits="userSpaceOnUse">
            <stop stop-color="white" />
            <stop offset="1" stop-color="#66C8FF" />
        </linearGradient>
        <linearGradient id="paint11_linear_46_10148" x1="142.656" y1="-29.7847" x2="297.765"
            y2="299.813" gradientUnits="userSpaceOnUse">
            <stop stop-color="white" />
            <stop offset="1" stop-color="#66C8FF" />
        </linearGradient>
        <linearGradient id="paint12_linear_46_10148" x1="165.721" y1="-41.0652" x2="320.83"
            y2="288.534" gradientUnits="userSpaceOnUse">
            <stop stop-color="white" />
            <stop offset="1" stop-color="#66C8FF" />
        </linearGradient>
        <linearGradient id="paint13_linear_46_10148" x1="44.4403" y1="16.9185" x2="199.55"
            y2="346.518" gradientUnits="userSpaceOnUse">
            <stop stop-color="white" />
            <stop offset="1" stop-color="#66C8FF" />
        </linearGradient>
        <linearGradient id="paint14_linear_46_10148" x1="67.5048" y1="5.63802" x2="222.615"
            y2="335.237" gradientUnits="userSpaceOnUse">
            <stop stop-color="white" />
            <stop offset="1" stop-color="#66C8FF" />
        </linearGradient>
        <linearGradient id="paint15_linear_46_10148" x1="90.5693" y1="-5.64248" x2="245.679"
            y2="323.957" gradientUnits="userSpaceOnUse">
            <stop stop-color="white" />
            <stop offset="1" stop-color="#66C8FF" />
        </linearGradient>
        <linearGradient id="paint16_linear_46_10148" x1="113.634" y1="-16.923" x2="268.744"
            y2="312.676" gradientUnits="userSpaceOnUse">
            <stop stop-color="white" />
            <stop offset="1" stop-color="#66C8FF" />
        </linearGradient>
        <linearGradient id="paint17_linear_46_10148" x1="135.882" y1="-27.8058" x2="290.993"
            y2="301.794" gradientUnits="userSpaceOnUse">
            <stop stop-color="white" />
            <stop offset="1" stop-color="#66C8FF" />
        </linearGradient>
        <linearGradient id="paint18_linear_46_10148" x1="158.947" y1="-39.0866" x2="314.057"
            y2="290.514" gradientUnits="userSpaceOnUse">
            <stop stop-color="white" />
            <stop offset="1" stop-color="#66C8FF" />
        </linearGradient>
        <linearGradient id="paint19_linear_46_10148" x1="37.6675" y1="18.8986" x2="192.778"
            y2="348.499" gradientUnits="userSpaceOnUse">
            <stop stop-color="white" />
            <stop offset="1" stop-color="#66C8FF" />
        </linearGradient>
        <linearGradient id="paint20_linear_46_10148" x1="60.732" y1="7.61781" x2="215.843"
            y2="337.218" gradientUnits="userSpaceOnUse">
            <stop stop-color="white" />
            <stop offset="1" stop-color="#66C8FF" />
        </linearGradient>
        <linearGradient id="paint21_linear_46_10148" x1="83.7953" y1="-3.66236" x2="238.906"
            y2="325.938" gradientUnits="userSpaceOnUse">
            <stop stop-color="white" />
            <stop offset="1" stop-color="#66C8FF" />
        </linearGradient>
        <linearGradient id="paint22_linear_46_10148" x1="106.861" y1="-14.9421" x2="261.972"
            y2="314.657" gradientUnits="userSpaceOnUse">
            <stop stop-color="white" />
            <stop offset="1" stop-color="#66C8FF" />
        </linearGradient>
        <linearGradient id="paint23_linear_46_10148" x1="214.202" y1="152.645" x2="221.97"
            y2="204.296" gradientUnits="userSpaceOnUse">
            <stop stop-color="#66C8FF" />
            <stop offset="1" stop-color="#0068FF" />
        </linearGradient>
        <linearGradient id="paint24_linear_46_10148" x1="240.767" y1="148.65" x2="248.534"
            y2="200.301" gradientUnits="userSpaceOnUse">
            <stop stop-color="#66C8FF" />
            <stop offset="1" stop-color="#0068FF" />
        </linearGradient>
        <linearGradient id="paint25_linear_46_10148" x1="30.8947" y1="20.8786" x2="186.004"
            y2="350.478" gradientUnits="userSpaceOnUse">
            <stop stop-color="white" />
            <stop offset="1" stop-color="#66C8FF" />
        </linearGradient>
        <linearGradient id="paint26_linear_46_10148" x1="53.9592" y1="9.59813" x2="209.068"
            y2="339.198" gradientUnits="userSpaceOnUse">
            <stop stop-color="white" />
            <stop offset="1" stop-color="#66C8FF" />
        </linearGradient>
        <linearGradient id="paint27_linear_46_10148" x1="77.0224" y1="-1.68119" x2="232.132"
            y2="327.918" gradientUnits="userSpaceOnUse">
            <stop stop-color="white" />
            <stop offset="1" stop-color="#66C8FF" />
        </linearGradient>
        <linearGradient id="paint28_linear_46_10148" x1="100.087" y1="-12.9628" x2="255.197"
            y2="316.637" gradientUnits="userSpaceOnUse">
            <stop stop-color="white" />
            <stop offset="1" stop-color="#66C8FF" />
        </linearGradient>
        <linearGradient id="paint29_linear_46_10148" x1="122.336" y1="-23.8434" x2="277.446"
            y2="305.754" gradientUnits="userSpaceOnUse">
            <stop stop-color="white" />
            <stop offset="1" stop-color="#66C8FF" />
        </linearGradient>
        <linearGradient id="paint30_linear_46_10148" x1="145.401" y1="-35.1239" x2="300.511"
            y2="294.475" gradientUnits="userSpaceOnUse">
            <stop stop-color="white" />
            <stop offset="1" stop-color="#66C8FF" />
        </linearGradient>
        <linearGradient id="paint31_linear_46_10148" x1="310.166" y1="54.6018" x2="283.318"
            y2="299.835" gradientUnits="userSpaceOnUse">
            <stop stop-color="white" />
            <stop offset="1" stop-color="#66C8FF" />
        </linearGradient>
        <linearGradient id="paint32_linear_46_10148" x1="200.506" y1="177.692" x2="173.658"
            y2="422.924" gradientUnits="userSpaceOnUse">
            <stop stop-color="white" />
            <stop offset="1" stop-color="#66C8FF" />
        </linearGradient>
        <linearGradient id="paint33_linear_46_10148" x1="51.9406" y1="27.4344" x2="25.0922"
            y2="272.667" gradientUnits="userSpaceOnUse">
            <stop stop-color="white" />
            <stop offset="1" stop-color="#66C8FF" />
        </linearGradient>
        <linearGradient id="paint34_linear_46_10148" x1="171.004" y1="-58.3518" x2="144.156"
            y2="186.881" gradientUnits="userSpaceOnUse">
            <stop stop-color="white" />
            <stop offset="1" stop-color="#66C8FF" />
        </linearGradient>
        <linearGradient id="paint35_linear_46_10148" x1="213.467" y1="158.706" x2="288.692"
            y2="158.706" gradientUnits="userSpaceOnUse">
            <stop stop-color="#F2C496" />
            <stop offset="1" stop-color="#E8A076" />
        </linearGradient>
        <linearGradient id="paint36_linear_46_10148" x1="282.503" y1="126.678" x2="349.138"
            y2="307.417" gradientUnits="userSpaceOnUse">
            <stop stop-color="white" />
            <stop offset="1" stop-color="#66C8FF" />
        </linearGradient>
        <linearGradient id="paint37_linear_46_10148" x1="290.96" y1="160.371" x2="367.381"
            y2="358.601" gradientUnits="userSpaceOnUse">
            <stop stop-color="white" />
            <stop offset="1" stop-color="#66C8FF" />
        </linearGradient>
        <linearGradient id="paint38_linear_46_10148" x1="266.888" y1="177.49" x2="272.657"
            y2="261.24" gradientUnits="userSpaceOnUse">
            <stop stop-color="#12336D" />
            <stop offset="1" stop-color="#0059B3" />
        </linearGradient>
        <linearGradient id="paint39_linear_46_10148" x1="323.666" y1="89.4612" x2="350.783"
            y2="483.107" gradientUnits="userSpaceOnUse">
            <stop stop-color="#12336D" />
            <stop offset="1" stop-color="#0059B3" />
        </linearGradient>
        <linearGradient id="paint40_linear_46_10148" x1="329.051" y1="271.068" x2="25.9373"
            y2="149.608" gradientUnits="userSpaceOnUse">
            <stop stop-color="#12336D" />
            <stop offset="1" stop-color="#0059B3" />
        </linearGradient>
        <linearGradient id="paint41_linear_46_10148" x1="277.035" y1="166.975" x2="272.706"
            y2="186.204" gradientUnits="userSpaceOnUse">
            <stop stop-color="white" />
            <stop offset="1" stop-color="#66C8FF" />
        </linearGradient>
        <linearGradient id="paint42_linear_46_10148" x1="235.601" y1="186.436" x2="254.794"
            y2="190.734" gradientUnits="userSpaceOnUse">
            <stop stop-color="white" />
            <stop offset="1" stop-color="#66C8FF" />
        </linearGradient>
        <linearGradient id="paint43_linear_46_10148" x1="271.292" y1="204.486" x2="280.421"
            y2="240.633" gradientUnits="userSpaceOnUse">
            <stop stop-color="white" />
            <stop offset="1" stop-color="#66C8FF" />
        </linearGradient>
        <linearGradient id="paint44_linear_46_10148" x1="274.008" y1="193.636" x2="323.928"
            y2="202.007" gradientUnits="userSpaceOnUse">
            <stop stop-color="white" />
            <stop offset="1" stop-color="#66C8FF" />
        </linearGradient>
    </defs>
</svg>
