<svg width="340" height="284" viewBox="0 0 340 284" fill="none" xmlns="http://www.w3.org/2000/svg">
<path d="M255.218 219.816L43.0577 253.101C39.2043 253.782 35.5777 251.056 35.011 247.194L9.17104 81.9056C8.49104 78.0432 11.211 74.408 15.0643 73.84L227.224 40.4416C231.078 39.8736 234.704 42.4864 235.271 46.3488L261.111 211.75C261.791 215.613 259.071 219.248 255.218 219.816Z" fill="url(#paint0_linear_46_10224)"/>
<path d="M226.658 49.7568L251.818 211.182L43.6244 243.899L18.3511 82.4736L226.658 49.7568Z" fill="url(#paint1_linear_46_10224)"/>
<path d="M199.458 53.96L172.258 153.814L162.284 151.429L176.111 94.9696L155.484 60.8896L163.871 59.64L179.398 82.928L186.651 56.0048L199.458 53.96Z" fill="white"/>
<path d="M237.538 119.848L240.258 136.774L210.791 154.269C205.804 157.222 200.251 159.154 194.584 160.062L102.444 174.49C96.3245 175.512 89.9778 174.944 84.0845 173.013L74.4511 169.718C68.5578 167.674 62.2111 167.219 56.0911 168.128L32.4045 171.877L29.9111 155.859L58.9244 151.315C65.3844 150.293 72.0711 150.974 78.1911 153.133L90.8845 157.79C97.1178 160.062 103.691 160.63 110.151 159.608L183.931 148.021C189.711 147.226 195.264 145.181 200.251 142.227L237.538 119.848Z" fill="white"/>
<path d="M94.1709 235.947L107.204 170.286L114.004 169.15L100.518 234.925L94.1709 235.947Z" fill="white"/>
<path d="M66.4043 155.632L82.9509 72.3632L89.7509 71.2272L72.8642 154.61L66.4043 155.632Z" fill="white"/>
<path d="M245.471 170.627L246.831 178.693L202.971 152.565L204.218 146.203L245.471 170.627Z" fill="white"/>
<path d="M34.6709 164.606L36.9376 164.266" stroke="url(#paint2_linear_46_10224)" stroke-width="2.26667" stroke-linecap="round" stroke-linejoin="round"/>
<path d="M41.4709 163.584L67.4242 159.494L95.3043 169.378L197.644 153.36L231.984 133.253" stroke="url(#paint3_linear_46_10224)" stroke-width="2.26667" stroke-linecap="round" stroke-linejoin="round" stroke-dasharray="4.58 4.58"/>
<path d="M233.911 132.117L235.951 130.981" stroke="url(#paint4_linear_46_10224)" stroke-width="2.26667" stroke-linecap="round" stroke-linejoin="round"/>
<path d="M158.998 96.1056L147.551 138.138L101.311 145.294L88.6177 137.91L102.671 69.1824L143.018 62.9344L158.998 96.1056Z" fill="url(#paint5_linear_46_10224)"/>
<path d="M153.671 178.238L165.571 224.701L118.651 232.085C121.711 214.022 127.604 182.328 127.604 182.328L153.671 178.238Z" fill="url(#paint6_linear_46_10224)"/>
<path d="M251.251 211.296L239.238 213.114L186.084 221.52L177.698 222.77L164.891 176.534L199.798 168.242L251.251 211.296Z" fill="url(#paint7_linear_46_10224)"/>
<path fill-rule="evenodd" clip-rule="evenodd" d="M53.711 142.114C54.051 144.386 53.4843 146.885 52.011 148.93L46.571 156.427L39.2043 150.974C35.011 147.907 34.1043 142.114 37.1643 138.024C38.6376 135.979 40.791 134.73 43.171 134.389C45.551 133.934 47.931 134.502 49.971 135.979C52.1243 137.456 53.371 139.728 53.711 142.114ZM47.251 143.022C47.0243 141.659 45.6643 140.637 44.191 140.864C42.7176 141.091 41.6976 142.454 41.9243 143.931C42.151 145.408 43.511 146.317 44.9843 146.09C46.4576 145.862 47.4776 144.499 47.251 143.022Z" fill="url(#paint8_linear_46_10224)"/>
<path fill-rule="evenodd" clip-rule="evenodd" d="M226.317 121.552C226.657 123.938 226.204 126.437 224.617 128.482L219.178 135.979L211.811 130.526C207.731 127.459 206.824 121.666 209.771 117.576C211.244 115.531 213.511 114.282 215.778 113.941C218.158 113.486 220.651 114.054 222.691 115.531C224.731 117.008 225.977 119.28 226.317 121.552ZM219.857 122.574C219.631 121.098 218.271 120.189 216.797 120.416C215.324 120.643 214.304 122.006 214.531 123.483C214.871 124.846 216.117 125.869 217.591 125.642C219.064 125.414 220.084 124.051 219.857 122.574Z" fill="url(#paint9_linear_46_10224)"/>
<path d="M110.264 21.9248C110.264 23.9696 108.678 25.6736 106.638 25.6736C104.598 25.6736 102.897 23.9696 102.897 21.9248C102.897 19.88 104.598 18.176 106.638 18.176C108.678 18.176 110.264 19.88 110.264 21.9248Z" fill="url(#paint10_linear_46_10224)"/>
<path d="M122.391 261.621C122.391 263.666 120.691 265.37 118.651 265.37C116.611 265.37 114.911 263.666 114.911 261.621C114.911 259.576 116.611 257.872 118.651 257.872C120.691 257.872 122.391 259.576 122.391 261.621Z" fill="url(#paint11_linear_46_10224)"/>
<path d="M289.671 77.1344C289.671 79.1792 287.971 80.8832 285.931 80.8832C283.891 80.8832 282.191 79.1792 282.191 77.1344C282.191 75.0896 283.891 73.3856 285.931 73.3856C287.971 73.3856 289.671 75.0896 289.671 77.1344Z" fill="url(#paint12_linear_46_10224)"/>
<path d="M250.458 253.555C250.458 255.6 248.871 257.304 246.831 257.304C244.678 257.304 243.091 255.6 243.091 253.555C243.091 251.51 244.678 249.806 246.831 249.806C248.871 249.806 250.458 251.51 250.458 253.555Z" fill="url(#paint13_linear_46_10224)"/>
<g style="mix-blend-mode:hue">
<rect width="340" height="283" fill="#01565B"/>
</g>
<path fill-rule="evenodd" clip-rule="evenodd" d="M331.718 178.92C331.718 192.325 326.504 205.843 316.304 216.181L279.018 253.555L241.844 216.181C221.331 195.619 221.331 162.107 241.844 141.546C252.158 131.322 265.644 126.096 279.018 126.096C292.618 126.096 306.104 131.322 316.304 141.546C326.504 151.77 331.718 165.402 331.718 178.92ZM294.318 178.92C294.318 170.514 287.404 163.584 279.018 163.584C270.631 163.584 263.831 170.514 263.831 178.92C263.831 187.326 270.631 194.142 279.018 194.142C287.404 194.142 294.318 187.326 294.318 178.92Z" fill="url(#paint14_linear_46_10224)"/>
<defs>
<linearGradient id="paint0_linear_46_10224" x1="257.582" y1="31.5308" x2="207.634" y2="287.54" gradientUnits="userSpaceOnUse">
<stop stop-color="#66C8FF"/>
<stop offset="1" stop-color="#0068FF"/>
</linearGradient>
<linearGradient id="paint1_linear_46_10224" x1="-777.986" y1="45.6467" x2="1608.39" y2="71.9735" gradientUnits="userSpaceOnUse">
<stop stop-color="white"/>
<stop offset="1" stop-color="#66C8FF"/>
</linearGradient>
<linearGradient id="paint2_linear_46_10224" x1="34.6448" y1="164.419" x2="131.142" y2="132.255" gradientUnits="userSpaceOnUse">
<stop stop-color="#F4D279"/>
<stop offset="1" stop-color="#FF9843"/>
</linearGradient>
<linearGradient id="paint3_linear_46_10224" x1="31.4081" y1="149.275" x2="233.79" y2="117.636" gradientUnits="userSpaceOnUse">
<stop stop-color="#F4D279"/>
<stop offset="1" stop-color="#FF9843"/>
</linearGradient>
<linearGradient id="paint4_linear_46_10224" x1="233.787" y1="131.094" x2="235.873" y2="130.768" gradientUnits="userSpaceOnUse">
<stop stop-color="#F4D279"/>
<stop offset="1" stop-color="#FF9843"/>
</linearGradient>
<linearGradient id="paint5_linear_46_10224" x1="-14.1235" y1="-377.289" x2="266.629" y2="358.848" gradientUnits="userSpaceOnUse">
<stop stop-color="white"/>
<stop offset="1" stop-color="#66C8FF"/>
</linearGradient>
<linearGradient id="paint6_linear_46_10224" x1="52.6129" y1="-101.022" x2="230.845" y2="366.305" gradientUnits="userSpaceOnUse">
<stop stop-color="white"/>
<stop offset="1" stop-color="#66C8FF"/>
</linearGradient>
<linearGradient id="paint7_linear_46_10224" x1="147.785" y1="-199.315" x2="278.355" y2="417.528" gradientUnits="userSpaceOnUse">
<stop stop-color="white"/>
<stop offset="1" stop-color="#66C8FF"/>
</linearGradient>
<linearGradient id="paint8_linear_46_10224" x1="57.8454" y1="134.193" x2="59.0871" y2="171.979" gradientUnits="userSpaceOnUse">
<stop stop-color="#66C8FF"/>
<stop offset="1" stop-color="#0068FF"/>
</linearGradient>
<linearGradient id="paint9_linear_46_10224" x1="229.061" y1="111.752" x2="236.2" y2="149.14" gradientUnits="userSpaceOnUse">
<stop stop-color="#66C8FF"/>
<stop offset="1" stop-color="#0068FF"/>
</linearGradient>
<linearGradient id="paint10_linear_46_10224" x1="119.698" y1="-60.518" x2="92.8504" y2="184.708" gradientUnits="userSpaceOnUse">
<stop stop-color="white"/>
<stop offset="1" stop-color="#66C8FF"/>
</linearGradient>
<linearGradient id="paint11_linear_46_10224" x1="131.748" y1="179.178" x2="104.9" y2="424.404" gradientUnits="userSpaceOnUse">
<stop stop-color="white"/>
<stop offset="1" stop-color="#66C8FF"/>
</linearGradient>
<linearGradient id="paint12_linear_46_10224" x1="299.057" y1="-5.31542" x2="272.209" y2="239.918" gradientUnits="userSpaceOnUse">
<stop stop-color="white"/>
<stop offset="1" stop-color="#66C8FF"/>
</linearGradient>
<linearGradient id="paint13_linear_46_10224" x1="259.885" y1="171.074" x2="233.037" y2="416.306" gradientUnits="userSpaceOnUse">
<stop stop-color="white"/>
<stop offset="1" stop-color="#66C8FF"/>
</linearGradient>
<linearGradient id="paint14_linear_46_10224" x1="207.767" y1="126.293" x2="309.909" y2="126.293" gradientUnits="userSpaceOnUse">
<stop stop-color="#F2C496"/>
<stop offset="1" stop-color="#E8A076"/>
</linearGradient>
</defs>
</svg>
