<svg width="340" height="284" viewBox="0 0 340 284" fill="none" xmlns="http://www.w3.org/2000/svg">
<path d="M186.08 240.144C186.08 242.189 184.493 243.893 182.453 243.893C180.3 243.893 178.713 242.189 178.713 240.144C178.713 238.099 180.3 236.395 182.453 236.395C184.493 236.395 186.08 238.099 186.08 240.144Z" fill="url(#paint0_linear_46_10097)"/>
<path fill-rule="evenodd" clip-rule="evenodd" d="M320.999 153.415C321.048 157.303 319.79 161.207 316.794 164.146L306.418 175L295.642 164.728C289.683 158.964 289.432 149.504 295.058 143.579C297.871 140.616 301.801 139.093 305.54 139.023C309.487 138.796 313.402 140.228 316.393 143.02C319.385 145.811 320.925 149.708 320.999 153.415ZM310.331 153.694C310.274 151.284 308.264 149.544 305.832 149.598C303.4 149.652 301.464 151.619 301.521 154.03C301.785 156.283 303.588 158.18 306.019 158.126C308.451 158.072 310.388 156.105 310.331 153.694Z" fill="url(#paint1_linear_46_10097)"/>
<path d="M305.787 97.1152C305.787 99.16 304.087 100.75 302.047 100.75C300.007 100.75 298.307 99.16 298.307 97.1152C298.307 95.0704 300.007 93.3664 302.047 93.3664C304.087 93.3664 305.787 95.0704 305.787 97.1152Z" fill="url(#paint2_linear_46_10097)"/>
<path d="M109.652 208.657V97.2482H56.4361L33.3084 151.49L1.87268 176.698V208.657H109.652Z" fill="url(#paint3_linear_46_10097)"/>
<path d="M41.6162 147.664C40.4935 147.664 39.8199 146.763 40.269 145.638L58.4568 103.1C58.9058 101.975 60.2531 101.074 61.6003 101.074H96.4041C97.7514 101.074 98.6495 101.975 98.6495 103.325V145.413C98.6495 146.763 97.7514 147.664 96.4041 147.664H41.6162Z" fill="#363745"/>
<path d="M98.6496 154.866C98.6496 155.766 98.2005 156.216 97.3024 156.216H85.6263C84.7281 156.216 84.0544 155.766 84.0544 154.866V153.065C84.0544 152.165 84.7281 151.49 85.6263 151.49H97.3024C98.2005 151.49 98.6496 152.165 98.6496 153.065V154.866Z" fill="#363745"/>
<path d="M1.87268 201.23H4.79172C7.03712 201.23 8.83342 199.429 8.83342 196.954V183.9C8.83342 181.649 7.03712 179.848 4.79172 179.848H1.87268V201.23Z" fill="#FFC978"/>
<path d="M40.0445 184.125C26.572 184.125 15.7941 195.153 15.7941 208.657H64.5194C64.5194 195.153 53.5169 184.125 40.0445 184.125Z" fill="#363745"/>
<path d="M61.1512 208.657C61.1512 220.136 51.7205 229.589 40.0444 229.589C28.5928 229.589 19.1621 220.136 19.1621 208.657C19.1621 196.954 28.5928 187.501 40.0444 187.501C51.7205 187.501 61.1512 196.954 61.1512 208.657Z" fill="#54556B"/>
<path d="M52.1696 208.657C52.1696 215.184 46.7807 220.586 40.0445 220.586C33.5328 220.586 28.1438 215.184 28.1438 208.657C28.1438 201.905 33.5328 196.504 40.0445 196.504C46.7807 196.504 52.1696 201.905 52.1696 208.657Z" fill="url(#paint4_linear_46_10097)"/>
<path d="M280.527 73.616H109.652V206.407H280.527V73.616Z" fill="url(#paint5_linear_46_10097)"/>
<path style="mix-blend-mode:multiply" d="M109.652 97.2482L187.792 208.657H109.652V97.2482Z" fill="url(#paint6_linear_46_10097)"/>
<path d="M283.896 196.504H98.6495V208.657H283.896V196.504Z" fill="#363745"/>
<path d="M226.413 184.125C212.941 184.125 202.163 195.153 202.163 208.657H250.888C250.888 195.153 239.886 184.125 226.413 184.125Z" fill="#363745"/>
<path d="M247.52 208.657C247.52 220.136 238.089 229.589 226.413 229.589C214.961 229.589 205.531 220.136 205.531 208.657C205.531 196.954 214.961 187.501 226.413 187.501C238.089 187.501 247.52 196.954 247.52 208.657Z" fill="#54556B"/>
<path d="M238.538 208.657C238.538 215.184 233.149 220.586 226.413 220.586C219.902 220.586 214.513 215.184 214.513 208.657C214.513 201.905 219.902 196.504 226.413 196.504C233.149 196.504 238.538 201.905 238.538 208.657Z" fill="url(#paint7_linear_46_10097)"/>
<path d="M280.528 186.601H277.833C275.363 186.601 273.567 184.8 273.567 182.324V169.27C273.567 167.02 275.363 165.219 277.833 165.219H280.528V186.601Z" fill="#FFC978"/>
<path d="M37.5001 89.8512C37.5001 92.0096 35.9134 93.6 33.8734 93.6C31.8334 93.6 30.1334 92.0096 30.1334 89.8512C30.1334 87.8064 31.8334 86.216 33.8734 86.216C35.9134 86.216 37.5001 87.8064 37.5001 89.8512Z" fill="url(#paint8_linear_46_10097)"/>
<path d="M156.613 14.0832C156.613 16.128 154.913 17.832 152.873 17.832C150.833 17.832 149.247 16.128 149.247 14.0832C149.247 12.0384 150.833 10.448 152.873 10.448C154.913 10.448 156.613 12.0384 156.613 14.0832Z" fill="url(#paint9_linear_46_10097)"/>
<g style="mix-blend-mode:hue">
<rect width="340" height="283" fill="#01565B"/>
</g>
<path d="M337.561 229.589H259.645V175.797H337.561V229.589Z" fill="url(#paint10_linear_46_10097)"/>
<path d="M310.84 229.589H259.645V175.797H310.84V229.589Z" fill="url(#paint11_linear_46_10097)"/>
<path d="M327.681 189.076H320.72V175.797H327.681V189.076Z" fill="#D48063"/>
<path d="M327.681 229.589H320.72V216.535H327.681V229.589Z" fill="#D48063"/>
<defs>
<linearGradient id="paint0_linear_46_10097" x1="195.506" y1="157.692" x2="168.658" y2="402.924" gradientUnits="userSpaceOnUse">
<stop stop-color="white"/>
<stop offset="1" stop-color="#66C8FF"/>
</linearGradient>
<linearGradient id="paint1_linear_46_10097" x1="327.495" y1="138.31" x2="331.029" y2="199.643" gradientUnits="userSpaceOnUse">
<stop stop-color="#66C8FF"/>
<stop offset="1" stop-color="#0068FF"/>
</linearGradient>
<linearGradient id="paint2_linear_46_10097" x1="315.166" y1="14.6018" x2="288.318" y2="259.835" gradientUnits="userSpaceOnUse">
<stop stop-color="white"/>
<stop offset="1" stop-color="#66C8FF"/>
</linearGradient>
<linearGradient id="paint3_linear_46_10097" x1="136.278" y1="122.224" x2="102.823" y2="246.348" gradientUnits="userSpaceOnUse">
<stop stop-color="white"/>
<stop offset="1" stop-color="#D4EBFF"/>
</linearGradient>
<linearGradient id="paint4_linear_46_10097" x1="42.4156" y1="181.523" x2="59.5375" y2="208.117" gradientUnits="userSpaceOnUse">
<stop stop-color="white"/>
<stop offset="1" stop-color="#D4EBFF"/>
</linearGradient>
<linearGradient id="paint5_linear_46_10097" x1="190.06" y1="-14.449" x2="295.48" y2="149.286" gradientUnits="userSpaceOnUse">
<stop stop-color="white"/>
<stop offset="1" stop-color="#D4EBFF"/>
</linearGradient>
<linearGradient id="paint6_linear_46_10097" x1="251.658" y1="144.542" x2="213.689" y2="245.877" gradientUnits="userSpaceOnUse">
<stop stop-color="white"/>
<stop offset="1" stop-color="#D4EBFF"/>
</linearGradient>
<linearGradient id="paint7_linear_46_10097" x1="228.793" y1="181.523" x2="245.915" y2="208.117" gradientUnits="userSpaceOnUse">
<stop stop-color="white"/>
<stop offset="1" stop-color="#D4EBFF"/>
</linearGradient>
<linearGradient id="paint8_linear_46_10097" x1="46.9408" y1="7.4344" x2="20.0923" y2="252.667" gradientUnits="userSpaceOnUse">
<stop stop-color="white"/>
<stop offset="1" stop-color="#66C8FF"/>
</linearGradient>
<linearGradient id="paint9_linear_46_10097" x1="166.004" y1="-68.3518" x2="139.156" y2="176.881" gradientUnits="userSpaceOnUse">
<stop stop-color="white"/>
<stop offset="1" stop-color="#66C8FF"/>
</linearGradient>
<linearGradient id="paint10_linear_46_10097" x1="313.144" y1="175.881" x2="357.781" y2="175.881" gradientUnits="userSpaceOnUse">
<stop stop-color="#F2C496"/>
<stop offset="1" stop-color="#E8A076"/>
</linearGradient>
<linearGradient id="paint11_linear_46_10097" x1="250.553" y1="175.881" x2="300.233" y2="175.881" gradientUnits="userSpaceOnUse">
<stop stop-color="#F2C496"/>
<stop offset="1" stop-color="#E8A076"/>
</linearGradient>
</defs>
</svg>
