<svg width="18" height="18" viewBox="0 0 18 18" fill="none" xmlns="http://www.w3.org/2000/svg">
<path d="M2.18936 4.95456C2.02619 4.57384 1.58528 4.39747 1.20456 4.56064C0.823838 4.72381 0.647475 5.16472 0.810641 5.54544L2.18936 4.95456ZM11.6904 9.99652L11.4157 9.29864V9.29864L11.6904 9.99652ZM6.93825 10.4056C7.16415 10.0584 7.06584 9.59379 6.71865 9.36789C6.37146 9.14198 5.90688 9.2403 5.68097 9.58749L6.93825 10.4056ZM4.62136 11.216C4.39545 11.5631 4.49377 12.0277 4.84096 12.2536C5.18815 12.4795 5.65273 12.3812 5.87864 12.034L4.62136 11.216ZM17.1894 5.54544C17.3525 5.16472 17.1762 4.72381 16.7954 4.56064C16.4147 4.39747 15.9738 4.57384 15.8106 4.95456L17.1894 5.54544ZM14.25 8.34663L13.7367 7.79978V7.79978L14.25 8.34663ZM14.8447 10.002C15.1376 10.2949 15.6124 10.2949 15.9053 10.002C16.1982 9.70907 16.1982 9.23419 15.9053 8.9413L14.8447 10.002ZM8.25 12.375C8.25 12.7892 8.58579 13.125 9 13.125C9.41421 13.125 9.75 12.7892 9.75 12.375H8.25ZM12.1214 12.034C12.3473 12.3812 12.8119 12.4795 13.159 12.2536C13.5062 12.0277 13.6045 11.5631 13.3786 11.216L12.1214 12.034ZM4.28033 8.87696C4.57322 8.58406 4.57322 8.10919 4.28033 7.8163C3.98744 7.5234 3.51256 7.5234 3.21967 7.8163L4.28033 8.87696ZM2.09467 8.9413C1.80178 9.23419 1.80178 9.70906 2.09467 10.002C2.38756 10.2949 2.86244 10.2949 3.15533 10.002L2.09467 8.9413ZM9 9.75C6.65111 9.75 4.96133 8.5821 3.83085 7.36466C3.26583 6.75618 2.85106 6.14534 2.57806 5.6867C2.44199 5.45809 2.3423 5.26927 2.27775 5.14018C2.24551 5.07569 2.22212 5.02628 2.20742 4.99446C2.20008 4.97856 2.19491 4.96707 2.19191 4.96031C2.19041 4.95693 2.18944 4.95474 2.18902 4.95376C2.18881 4.95328 2.18873 4.9531 2.18879 4.95323C2.18881 4.95329 2.18888 4.95344 2.18897 4.95366C2.18902 4.95377 2.18912 4.954 2.18914 4.95405C2.18925 4.9543 2.18936 4.95456 1.5 5.25C0.810641 5.54544 0.810772 5.54574 0.810911 5.54607C0.810969 5.5462 0.811118 5.54655 0.811234 5.54682C0.811467 5.54736 0.811735 5.54798 0.812039 5.54868C0.812645 5.55009 0.813393 5.55181 0.814283 5.55385C0.816061 5.55792 0.818407 5.56326 0.821321 5.56981C0.82715 5.58292 0.83526 5.60091 0.845676 5.62346C0.866502 5.66855 0.896581 5.73193 0.936113 5.811C1.01512 5.96901 1.13223 6.19035 1.28912 6.45393C1.60206 6.97966 2.07792 7.68132 2.73165 8.38534C4.03867 9.7929 6.09889 11.25 9 11.25V9.75ZM11.4157 9.29864C10.7088 9.57689 9.90672 9.75 9 9.75V11.25C10.1032 11.25 11.0912 11.0384 11.9651 10.6944L11.4157 9.29864ZM5.68097 9.58749L4.62136 11.216L5.87864 12.034L6.93825 10.4056L5.68097 9.58749ZM16.5 5.25C15.8106 4.95456 15.8107 4.95441 15.8108 4.95426C15.8108 4.95422 15.8108 4.95408 15.8109 4.954C15.811 4.95383 15.811 4.9537 15.8111 4.95358C15.8112 4.95336 15.8112 4.95323 15.8112 4.9532C15.8113 4.95313 15.8111 4.95346 15.8108 4.95417C15.8102 4.95559 15.8089 4.95853 15.8069 4.96296C15.803 4.9718 15.7963 4.98653 15.7869 5.00671C15.7681 5.04707 15.7383 5.10912 15.6974 5.18932C15.6155 5.34988 15.4895 5.58218 15.3174 5.85825C14.9721 6.41253 14.4489 7.13128 13.7367 7.79978L14.7633 8.89348C15.595 8.1128 16.1969 7.28324 16.5905 6.65151C16.788 6.33456 16.9349 6.06442 17.0337 5.8708C17.0831 5.77391 17.1206 5.69593 17.1464 5.64053C17.1593 5.61283 17.1693 5.59075 17.1765 5.57476C17.18 5.56676 17.1829 5.56028 17.1851 5.55537C17.1861 5.55292 17.187 5.55086 17.1877 5.5492C17.1881 5.54838 17.1884 5.54765 17.1887 5.54702C17.1888 5.5467 17.1889 5.54642 17.1891 5.54615C17.1891 5.54602 17.1892 5.54584 17.1892 5.54578C17.1893 5.54561 17.1894 5.54544 16.5 5.25ZM13.7367 7.79978C13.1059 8.39184 12.3352 8.93671 11.4157 9.29864L11.9651 10.6944C13.0968 10.249 14.0248 9.58661 14.7633 8.89348L13.7367 7.79978ZM13.7197 8.87696L14.8447 10.002L15.9053 8.9413L14.7803 7.8163L13.7197 8.87696ZM8.25 10.5V12.375H9.75V10.5H8.25ZM11.0618 10.4056L12.1214 12.034L13.3786 11.216L12.319 9.58749L11.0618 10.4056ZM3.21967 7.8163L2.09467 8.9413L3.15533 10.002L4.28033 8.87696L3.21967 7.8163Z" fill="#1A1B25"/>
</svg>
