<svg width="249" height="219" viewBox="0 0 249 219" fill="none" xmlns="http://www.w3.org/2000/svg">
<circle cx="199" cy="44" r="5" fill="#99BBBD"/>
<circle cx="209" cy="88" r="4" fill="#99BBBD"/>
<circle cx="199" cy="154" r="4" fill="#99BBBD"/>
<circle cx="90" cy="4" r="4" fill="#99BBBD"/>
<circle cx="35" cy="128" r="4" fill="#99BBBD"/>
<circle cx="4" cy="182" r="4" fill="#99BBBD"/>
<circle cx="110" cy="215" r="4" fill="#99BBBD"/>
<circle cx="69" cy="45" r="4" fill="#FFBE4C"/>
<circle cx="170" cy="193" r="5" fill="#FFBE4C"/>
<circle cx="14.5" cy="46.5" r="2.5" fill="#99BBBD"/>
<rect x="2" y="104" width="25" height="3" rx="1.5" transform="rotate(-40 2 104)" fill="#A4ACB9"/>
<rect x="231" y="111" width="21" height="3" rx="1.5" transform="rotate(-40 231 111)" fill="#A4ACB9"/>
<rect x="55" y="206" width="17" height="3" rx="1.5" transform="rotate(-40 55 206)" fill="#01565B"/>
<rect x="127" y="27" width="29" height="3" rx="1.5" transform="rotate(-40 127 27)" fill="#01565B"/>
<path d="M114.185 49.9977C120.008 42.7936 130.992 42.7936 136.815 49.9977C140.433 54.4737 146.35 56.3962 151.908 54.9017C160.854 52.4965 169.74 58.9524 170.217 68.2035C170.513 73.9514 174.17 78.9844 179.545 81.0424C188.196 84.3547 191.59 94.8005 186.538 102.565C183.399 107.389 183.399 113.611 186.538 118.435C191.59 126.199 188.196 136.645 179.545 139.958C174.17 142.016 170.513 147.049 170.217 152.796C169.74 162.048 160.854 168.504 151.908 166.098C146.35 164.604 140.433 166.526 136.815 171.002C130.992 178.206 120.008 178.206 114.185 171.002C110.567 166.526 104.65 164.604 99.0918 166.098C90.1461 168.504 81.2603 162.048 80.7835 152.796C80.4872 147.049 76.8305 142.016 71.4555 139.958C62.8045 136.645 59.4104 126.199 64.4623 118.435C67.6012 113.611 67.6012 107.389 64.4623 102.565C59.4104 94.8005 62.8045 84.3547 71.4555 81.0424C76.8305 78.9844 80.4872 73.9514 80.7835 68.2035C81.2603 58.9523 90.1461 52.4965 99.0918 54.9017C104.65 56.3962 110.567 54.4737 114.185 49.9977Z" fill="#01565B"/>
<ellipse cx="125.737" cy="108.76" rx="28" ry="28.12" fill="#F8F9FB"/>
<path d="M117.754 110.203L122.772 115.975L135.316 101.545" stroke="#01565B" stroke-width="3" stroke-linecap="round" stroke-linejoin="round"/>
</svg>
