<svg width="16" height="15" viewBox="0 0 16 15" fill="none" xmlns="http://www.w3.org/2000/svg">
<path d="M10.0755 10.0193L9.67892 9.62039L9.67892 9.62039L10.0755 10.0193ZM10.4171 9.67962L10.8137 10.0785L10.8137 10.0785L10.4171 9.67962ZM12.2296 9.44206L11.961 9.93626L11.961 9.93626L12.2296 9.44206ZM13.6625 10.221L13.3938 10.7152L13.6625 10.221ZM14.0663 12.6622L14.4629 13.0611L14.4629 13.0611L14.0663 12.6622ZM13.0008 13.7216L12.6042 13.3227L12.6042 13.3227L13.0008 13.7216ZM12.0072 14.2239L12.0594 14.7839L12.0594 14.7839L12.0072 14.2239ZM4.61152 11.0449L5.00813 10.646L4.61152 11.0449ZM1.00217 4.3092L0.440572 4.34112L0.440572 4.34112L1.00217 4.3092ZM5.85814 5.39804L6.25475 5.79692L6.25475 5.79692L5.85814 5.39804ZM5.97568 3.40761L6.42598 3.07051L6.42598 3.07051L5.97568 3.40761ZM5.02994 2.14431L4.57964 2.48141L4.57964 2.48141L5.02994 2.14431ZM2.69609 1.93112L3.0927 2.33L3.0927 2.33L2.69609 1.93112ZM1.51889 3.10164L1.12227 2.70276L1.12227 2.70276L1.51889 3.10164ZM7.04734 8.62293L7.44396 8.22405L7.04734 8.62293ZM10.4722 10.4181L10.8137 10.0785L10.0205 9.28075L9.67892 9.62039L10.4722 10.4181ZM11.961 9.93626L13.3938 10.7152L13.9311 9.72679L12.4983 8.94786L11.961 9.93626ZM13.6696 12.2633L12.6042 13.3227L13.3975 14.1205L14.4629 13.0611L13.6696 12.2633ZM11.955 13.6638C10.8676 13.7652 8.05423 13.6748 5.00813 10.646L4.21491 11.4438C7.53899 14.749 10.7027 14.9104 12.0594 14.7839L11.955 13.6638ZM5.00813 10.646C2.1046 7.759 1.62363 5.33074 1.56376 4.27729L0.440572 4.34112C0.515924 5.66699 1.11147 8.35799 4.21491 11.4438L5.00813 10.646ZM6.03964 6.01081L6.25475 5.79692L5.46153 4.99916L5.24641 5.21305L6.03964 6.01081ZM6.42598 3.07051L5.48024 1.80721L4.57964 2.48141L5.52538 3.74472L6.42598 3.07051ZM2.29947 1.53224L1.12227 2.70276L1.9155 3.50052L3.0927 2.33L2.29947 1.53224ZM5.64303 5.61193C5.24641 5.21305 5.24588 5.21358 5.24534 5.21412C5.24516 5.2143 5.24462 5.21485 5.24425 5.21522C5.24351 5.21595 5.24276 5.21671 5.242 5.21748C5.24048 5.21903 5.23891 5.22064 5.23729 5.22233C5.23404 5.2257 5.2306 5.22934 5.22699 5.23327C5.21976 5.24112 5.21181 5.2501 5.20331 5.26025C5.18631 5.28054 5.16704 5.30553 5.14679 5.33541C5.10619 5.39533 5.06195 5.47455 5.02441 5.57418C4.94782 5.77747 4.90676 6.04545 4.95824 6.37729C5.05892 7.02625 5.50586 7.88345 6.65073 9.02181L7.44396 8.22405C6.37256 7.15874 6.11735 6.51044 6.06994 6.20482C6.04737 6.05937 6.07078 5.98778 6.07717 5.97083C6.08112 5.96034 6.083 5.95927 6.07815 5.96643C6.07577 5.96994 6.07178 5.97542 6.06559 5.98281C6.06249 5.98651 6.05884 5.99069 6.05454 5.99535C6.0524 5.99769 6.05009 6.00014 6.04761 6.00272C6.04637 6.004 6.04509 6.00532 6.04376 6.00667C6.04309 6.00734 6.04242 6.00803 6.04173 6.00871C6.04139 6.00906 6.04087 6.00958 6.0407 6.00975C6.04017 6.01028 6.03964 6.01081 5.64303 5.61193ZM6.65073 9.02181C7.79597 10.1606 8.65716 10.6038 9.30725 10.7035C9.63937 10.7544 9.90724 10.7138 10.1104 10.6381C10.21 10.601 10.2893 10.5572 10.3494 10.517C10.3793 10.4969 10.4044 10.4778 10.4247 10.461C10.4349 10.4525 10.4439 10.4446 10.4518 10.4374C10.4558 10.4339 10.4594 10.4304 10.4628 10.4272C10.4645 10.4256 10.4661 10.424 10.4677 10.4225C10.4685 10.4218 10.4692 10.421 10.47 10.4203C10.4703 10.4199 10.4709 10.4194 10.4711 10.4192C10.4716 10.4187 10.4722 10.4181 10.0755 10.0193C9.67892 9.62039 9.67945 9.61986 9.67998 9.61934C9.68015 9.61917 9.68068 9.61865 9.68103 9.61831C9.68172 9.61763 9.68241 9.61696 9.68308 9.6163C9.68444 9.61498 9.68576 9.6137 9.68706 9.61247C9.68964 9.61001 9.69211 9.60772 9.69445 9.60559C9.69913 9.60132 9.70332 9.5977 9.70702 9.59464C9.71441 9.58852 9.71985 9.58461 9.72327 9.58232C9.73026 9.57763 9.7288 9.57973 9.71769 9.58387C9.69934 9.5907 9.62572 9.61416 9.47782 9.59148C9.16787 9.54394 8.51496 9.28898 7.44396 8.22405L6.65073 9.02181ZM5.48024 1.80721C4.71575 0.786019 3.21247 0.624428 2.29947 1.53224L3.0927 2.33C3.49146 1.9335 4.19967 1.97386 4.57964 2.48141L5.48024 1.80721ZM1.56376 4.27729C1.54901 4.0177 1.66806 3.74655 1.9155 3.50052L1.12227 2.70276C0.719284 3.10346 0.402471 3.67069 0.440572 4.34112L1.56376 4.27729ZM12.6042 13.3227C12.3981 13.5277 12.1772 13.6431 11.955 13.6638L12.0594 14.7839C12.6103 14.7326 13.0618 14.4542 13.3975 14.1205L12.6042 13.3227ZM6.25475 5.79692C6.99313 5.06273 7.04802 3.90142 6.42598 3.07051L5.52538 3.74472C5.828 4.14895 5.78298 4.67953 5.46153 4.99916L6.25475 5.79692ZM13.3938 10.7152C14.0072 11.0486 14.1027 11.8327 13.6696 12.2633L14.4629 13.0611C15.4681 12.0616 15.1581 10.3938 13.9311 9.72679L13.3938 10.7152ZM10.8137 10.0785C11.1017 9.79213 11.5653 9.72117 11.961 9.93626L12.4983 8.94786C11.6856 8.50606 10.6769 8.62807 10.0205 9.28075L10.8137 10.0785Z" fill="#818898"/>
</svg>
