<svg width="28" height="28" viewBox="0 0 28 28" fill="none" xmlns="http://www.w3.org/2000/svg">
<rect x="1" y="1" width="26" height="26" rx="13" fill="#01565B"/>
<rect x="1" y="1" width="26" height="26" rx="13" stroke="white" stroke-width="1.5"/>
<ellipse cx="14" cy="14.5835" rx="1.75" ry="1.75" stroke="white"/>
<path d="M12.7038 19.25H15.2964C17.117 19.25 18.0273 19.25 18.6812 18.821C18.9643 18.6353 19.2073 18.3967 19.3965 18.1187C19.8334 17.4767 19.8334 16.583 19.8334 14.7955C19.8334 13.008 19.8334 12.1142 19.3965 11.4722C19.2073 11.1942 18.9643 10.9556 18.6812 10.7699C18.261 10.4942 17.735 10.3957 16.9296 10.3605C16.5452 10.3605 16.2143 10.0746 16.139 9.70455C16.0259 9.14952 15.5296 8.75 14.9531 8.75H13.0471C12.4706 8.75 11.9743 9.14952 11.8612 9.70455C11.7858 10.0746 11.4549 10.3605 11.0706 10.3605C10.2652 10.3957 9.73915 10.4942 9.31897 10.7699C9.03589 10.9556 8.79283 11.1942 8.60368 11.4722C8.16675 12.1142 8.16675 13.008 8.16675 14.7955C8.16675 16.583 8.16675 17.4767 8.60368 18.1187C8.79283 18.3967 9.03589 18.6353 9.31897 18.821C9.97289 19.25 10.8832 19.25 12.7038 19.25Z" stroke="white"/>
<path d="M18.0833 12.8335H17.5" stroke="white" stroke-linecap="round"/>
</svg>
