<svg width="15" height="15" viewBox="0 0 15 15" fill="none" xmlns="http://www.w3.org/2000/svg">
<g clip-path="url(#clip0_23_6505)">
<path d="M5 7.5H5.00562M7.49437 7.5H7.5M9.99438 7.5H10" stroke="#01565B" stroke-width="1.25" stroke-linecap="round" stroke-linejoin="round"/>
<path d="M7.5 13.75C10.9518 13.75 13.75 10.9518 13.75 7.5C13.75 4.04822 10.9518 1.25 7.5 1.25C4.04822 1.25 1.25 4.04822 1.25 7.5C1.25 8.4998 1.48476 9.44477 1.90216 10.2828C2.01309 10.5055 2.05001 10.76 1.9857 11.0004L1.61344 12.3917C1.45185 12.9956 2.00438 13.5482 2.60834 13.3866L3.99962 13.0143C4.23996 12.95 4.4945 12.9869 4.71721 13.0978C5.55523 13.5152 6.5002 13.75 7.5 13.75Z" stroke="#01565B" stroke-width="0.9375"/>
</g>
<defs>
<clipPath id="clip0_23_6505">
<rect width="15" height="15" fill="white"/>
</clipPath>
</defs>
</svg>
