<svg width="24" height="25" viewBox="0 0 24 25" fill="none" xmlns="http://www.w3.org/2000/svg">
<path d="M14.375 17.3387L20.5 17.3387M9.125 8.58871L3 8.58871M3 17.3387H4.75M20.5 8.58871L18.75 8.58871M9.5625 14.75C11.0122 14.75 12.1875 15.9253 12.1875 17.375C12.1875 18.8247 11.0122 20 9.5625 20C8.11275 20 6.9375 18.8247 6.9375 17.375C6.9375 15.9253 8.11275 14.75 9.5625 14.75ZM13.9375 6C12.4878 6 11.3125 7.17525 11.3125 8.625C11.3125 10.0747 12.4878 11.25 13.9375 11.25C15.3872 11.25 16.5625 10.0747 16.5625 8.625C16.5625 7.17525 15.3872 6 13.9375 6Z" stroke="#0D0D12" stroke-width="1.5" stroke-linecap="round"/>
</svg>
