<svg width="14" height="14" viewBox="0 0 14 14" fill="none" xmlns="http://www.w3.org/2000/svg">
<path d="M5.22776 11.0314L5.49861 10.6878L5.22776 11.0314ZM7.00008 3.20876L6.68487 3.51216C6.76734 3.59784 6.88115 3.64626 7.00008 3.64626C7.11901 3.64626 7.23282 3.59784 7.3153 3.51216L7.00008 3.20876ZM8.7724 11.0314L9.04325 11.375L8.7724 11.0314ZM5.49861 10.6878C4.61448 9.99085 3.6477 9.31021 2.88075 8.44659C2.12879 7.59986 1.60425 6.61185 1.60425 5.33003H0.729248C0.729248 6.88493 1.37704 8.07109 2.2265 9.02761C3.06096 9.96725 4.1247 10.7189 4.95691 11.375L5.49861 10.6878ZM1.60425 5.33003C1.60425 4.07536 2.31321 3.0232 3.28096 2.58084C4.22112 2.15109 5.48438 2.2649 6.68487 3.51216L7.3153 2.90537C5.89087 1.42545 4.23747 1.18154 2.91719 1.78504C1.6245 2.37593 0.729248 3.748 0.729248 5.33003H1.60425ZM4.95691 11.375C5.25571 11.6105 5.57648 11.8617 5.90156 12.0517C6.2265 12.2416 6.59735 12.3959 7.00008 12.3959V11.5209C6.81948 11.5209 6.607 11.4505 6.34302 11.2962C6.07919 11.142 5.80546 10.9297 5.49861 10.6878L4.95691 11.375ZM9.04325 11.375C9.87547 10.7189 10.9392 9.96725 11.7737 9.02761C12.6231 8.07109 13.2709 6.88493 13.2709 5.33003H12.3959C12.3959 6.61185 11.8714 7.59986 11.1194 8.44659C10.3525 9.31021 9.38569 9.99085 8.50155 10.6878L9.04325 11.375ZM13.2709 5.33003C13.2709 3.748 12.3757 2.37593 11.083 1.78504C9.76269 1.18154 8.10929 1.42545 6.68487 2.90537L7.3153 3.51216C8.51578 2.2649 9.77904 2.15109 10.7192 2.58084C11.687 3.0232 12.3959 4.07536 12.3959 5.33003H13.2709ZM8.50155 10.6878C8.1947 10.9297 7.92098 11.142 7.65714 11.2962C7.39317 11.4505 7.18068 11.5209 7.00008 11.5209V12.3959C7.40281 12.3959 7.77366 12.2416 8.0986 12.0517C8.42368 11.8617 8.74445 11.6105 9.04325 11.375L8.50155 10.6878Z" fill="#0D0D12"/>
</svg>
