<svg width="101" height="100" viewBox="0 0 101 100" fill="none" xmlns="http://www.w3.org/2000/svg">
<g clip-path="url(#clip0_32_6759)">
<path d="M48.3447 2.56675C50.1826 1.07169 52.8174 1.07169 54.6553 2.56675L60.7625 7.5349C61.8678 8.43404 63.3042 8.81891 64.711 8.59289L72.4841 7.34397C74.8232 6.96814 77.1051 8.28554 77.9492 10.4992L80.7541 17.8554C81.2618 19.1867 82.3133 20.2382 83.6446 20.7459L91.0008 23.5508C93.2145 24.3949 94.5319 26.6768 94.156 29.0159L92.9071 36.789C92.6811 38.1958 93.066 39.6322 93.9651 40.7375L98.9333 46.8447C100.428 48.6826 100.428 51.3174 98.9333 53.1553L93.9651 59.2625C93.066 60.3678 92.6811 61.8042 92.9071 63.211L94.156 70.9841C94.5319 73.3232 93.2145 75.6051 91.0008 76.4492L83.6446 79.2541C82.3133 79.7618 81.2618 80.8133 80.7541 82.1446L77.9492 89.5008C77.1051 91.7145 74.8232 93.0319 72.4841 92.656L64.711 91.4071C63.3042 91.1811 61.8678 91.566 60.7625 92.4651L54.6553 97.4333C52.8174 98.9283 50.1826 98.9283 48.3447 97.4333L42.2375 92.4651C41.1322 91.566 39.6958 91.1811 38.289 91.4071L30.5159 92.656C28.1767 93.0319 25.8949 91.7145 25.0508 89.5008L22.2459 82.1446C21.7382 80.8133 20.6867 79.7618 19.3554 79.2541L11.9992 76.4492C9.78554 75.6051 8.46814 73.3232 8.84397 70.9841L10.0929 63.211C10.3189 61.8042 9.93404 60.3678 9.0349 59.2625L4.06675 53.1553C2.57169 51.3174 2.57169 48.6826 4.06675 46.8447L9.0349 40.7375C9.93404 39.6322 10.3189 38.1958 10.0929 36.789L8.84397 29.0159C8.46814 26.6768 9.78554 24.3949 11.9992 23.5508L19.3554 20.7459C20.6867 20.2382 21.7382 19.1867 22.2459 17.8554L25.0508 10.4992C25.8949 8.28554 28.1768 6.96814 30.5159 7.34397L38.289 8.59289C39.6958 8.81891 41.1322 8.43404 42.2375 7.5349L48.3447 2.56675Z" fill="#28806F"/>
<circle cx="50.5" cy="50" r="19" fill="#F8F9FB"/>
<path d="M45.0833 50.975L48.4881 54.875L57 45.125" stroke="#28806F" stroke-width="3" stroke-linecap="round" stroke-linejoin="round"/>
</g>
<defs>
<clipPath id="clip0_32_6759">
<rect width="100" height="100" fill="white" transform="translate(0.5)"/>
</clipPath>
</defs>
</svg>
